{
customParameters = (
{
name = note;
value = "";
},
{
name = openTypeNameVersion;
value = "Version ";
},
{
name = openTypeOS2FamilyClass;
value = (
    0,
    0
);
},
{
name = openTypeOS2Panose;
value = (
    0,
    0,
    0,
    0,
    0,
    0,
    0,
    0,
    0,
    0
);
},
{
name = openTypeOS2StrikeoutPosition;
value = 512;
},
{
name = openTypeOS2StrikeoutSize;
value = 102;
},
{
name = openTypeOS2SubscriptXOffset;
value = 0;
},
{
name = openTypeOS2SubscriptXSize;
value = 1434;
},
{
name = openTypeOS2SubscriptYOffset;
value = 287;
},
{
name = openTypeOS2SubscriptYSize;
value = 1331;
},
{
name = openTypeOS2SuperscriptXOffset;
value = 0;
},
{
name = openTypeOS2SuperscriptXSize;
value = 1434;
},
{
name = openTypeOS2SuperscriptYOffset;
value = 977;
},
{
name = openTypeOS2SuperscriptYSize;
value = 1331;
},
{
name = openTypeOS2Type;
value = (
    0,
    0,
    0,
    1,
    0,
    0,
    0,
    0,
    0,
    0,
    0,
    0,
    0,
    0,
    0,
    0
);
},
{
name = openTypeOS2VendorID;
value = newt;
},
{
name = postscriptBlueFuzz;
value = 2;
},
{
name = postscriptBlueScale;
value = 0.039625;
},
{
name = postscriptBlueShift;
value = 14;
},
{
name = postscriptFontName;
value = Untitled;
},
{
name = postscriptFullName;
value = Untitled;
},
{
name = styleMapStyleName;
value = regular;
},
{
name = styleName;
value = Normal;
},
{
name = width;
value = Condensed;
}
);
date = "2012-03-04 19:02:26 +0000";
designer = "vernon adams";
familyName = "Open453";
fontMaster = (
{
ascender = 1536;
capHeight = 1577;
customParameters = (
{
name = TypoAscender;
value = 1536;
},
{
name = TypoDescender;
value = "-512";
},
{
name = TypoLineGap;
value = 0;
},
{
name = winAscent;
value = 0;
},
{
name = winDescent;
value = 0;
},
{
name = postscriptUnderlineThickness;
value = 102;
},
{
name = postscriptUnderlinePosition;
value = "-204";
}
);
descender = "-512";
id = "680DE9A7-CE01-463E-86B9-683CD586B94D";
weight = Bold;
width = Condensed;
xHeight = 1059;
}
);
glyphs = (
{
glyphname = A;
lastChange = "2013-03-01 07:01:33 -0800";
layers = (
{
layerId = "680DE9A7-CE01-463E-86B9-683CD586B94D";
name = "Bold Condensed";
paths = (
{
closed = 1;
nodes = (
"2169 1254 LINE SMOOTH",
"2161 1254 OFFCURVE",
"2161 1243 OFFCURVE",
"2161 1237 CURVE SMOOTH",
"2161 1214 OFFCURVE",
"2185 1199 OFFCURVE",
"2185 1174 CURVE SMOOTH",
"2185 1172 OFFCURVE",
"2185 1164 OFFCURVE",
"2183 1164 CURVE SMOOTH",
"2132 1012 LINE",
"2132 1006 LINE",
"2120 969 OFFCURVE",
"2108 949 OFFCURVE",
"2102 916 CURVE",
"1913 381 LINE SMOOTH",
"1913 375 OFFCURVE",
"1907 348 OFFCURVE",
"1907 344 CURVE SMOOTH",
"1897 311 OFFCURVE",
"1860 201 OFFCURVE",
"1854 187 CURVE SMOOTH",
"1844 160 OFFCURVE",
"1790 40 OFFCURVE",
"1778 13 CURVE",
"1766 5 OFFCURVE",
"1776 4 OFFCURVE",
"1764 -10 CURVE SMOOTH",
"1733 -45 OFFCURVE",
"1700 -79 OFFCURVE",
"1651 -77 CURVE",
"1639 -87 OFFCURVE",
"1643 -113 OFFCURVE",
"1643 -123 CURVE SMOOTH",
"1643 -145 LINE",
"1651 -153 LINE",
"1796 -149 OFFCURVE",
"1915 -159 OFFCURVE",
"2056 -159 CURVE SMOOTH",
"2062 -159 OFFCURVE",
"2079 -159 OFFCURVE",
"2079 -153 CURVE SMOOTH",
"2079 -86 LINE SMOOTH",
"2079 -82 OFFCURVE",
"2069 -71 OFFCURVE",
"2065 -69 CURVE SMOOTH",
"2059 -67 OFFCURVE",
"2015 -57 OFFCURVE",
"2011 -55 CURVE SMOOTH",
"1962 -32 OFFCURVE",
"1944 21 OFFCURVE",
"1944 68 CURVE SMOOTH",
"1944 115 OFFCURVE",
"1946 164 OFFCURVE",
"1958 209 CURVE SMOOTH",
"1966 238 OFFCURVE",
"2010 375 OFFCURVE",
"2020 404 CURVE",
"2038 402 OFFCURVE",
"2135 398 OFFCURVE",
"2155 396 CURVE",
"2431 396 LINE",
"2437 392 OFFCURVE",
"2452 365 OFFCURVE",
"2454 359 CURVE SMOOTH",
"2460 347 OFFCURVE",
"2489 250 OFFCURVE",
"2493 238 CURVE SMOOTH",
"2493 238 OFFCURVE",
"2499 226 OFFCURVE",
"2499 224 CURVE SMOOTH",
"2552 74 LINE SMOOTH",
"2554 68 OFFCURVE",
"2554 41 OFFCURVE",
"2554 35 CURVE SMOOTH",
"2554 -14 OFFCURVE",
"2529 -61 OFFCURVE",
"2476 -69 CURVE SMOOTH",
"2468 -71 OFFCURVE",
"2425 -75 OFFCURVE",
"2417 -77 CURVE",
"2405 -85 OFFCURVE",
"2403 -100 OFFCURVE",
"2403 -114 CURVE SMOOTH",
"2403 -131 LINE SMOOTH",
"2403 -139 OFFCURVE",
"2409 -159 OFFCURVE",
"2409 -159 CURVE",
"2935 -159 LINE",
"2935 -100 LINE SMOOTH",
"2935 -98 OFFCURVE",
"2925 -86 OFFCURVE",
"2921 -86 CURVE",
"2919 -84 OFFCURVE",
"2892 -77 OFFCURVE",
"2884 -77 CURVE SMOOTH",
"2867 -77 LINE SMOOTH",
"2838 -61 OFFCURVE",
"2796 -18 OFFCURVE",
"2786 13 CURVE SMOOTH",
"2650 426 LINE",
"2636 457 LINE",
"2425 1096 LINE",
"2421 1100 OFFCURVE",
"2411 1121 OFFCURVE",
"2409 1125 CURVE SMOOTH",
"2407 1135 OFFCURVE",
"2382 1221 OFFCURVE",
"2380 1231 CURVE SMOOTH",
"2378 1235 OFFCURVE",
"2374 1246 OFFCURVE",
"2372 1246 CURVE SMOOTH",
"2368 1248 OFFCURVE",
"2347 1254 OFFCURVE",
"2341 1254 CURVE SMOOTH"
);
},
{
closed = 1;
nodes = (
"2243 1028 OFFCURVE",
"2261 967 OFFCURVE",
"2259 961 CURVE",
"2265 943 OFFCURVE",
"2290 864 OFFCURVE",
"2296 848 CURVE SMOOTH",
"2335 739 OFFCURVE",
"2364 627 OFFCURVE",
"2403 516 CURVE",
"2403 502 LINE",
"2071 502 LINE SMOOTH",
"2069 502 OFFCURVE",
"2052 506 OFFCURVE",
"2048 508 CURVE",
"2048 516 LINE",
"2052 528 OFFCURVE",
"2075 593 OFFCURVE",
"2079 607 CURVE SMOOTH",
"2079 609 OFFCURVE",
"2085 619 OFFCURVE",
"2087 621 CURVE SMOOTH",
"2192 944 LINE",
"2206 967 OFFCURVE",
"2213 1028 OFFCURVE",
"2233 1028 CURVE SMOOTH"
);
}
);
width = 4388;
}
);
unicode = 0041;
},
{
glyphname = B;
lastChange = "2012-12-26 13:06:26 -0800";
layers = (
{
anchors = (
{
name = bottom;
position = "{740, 0}";
},
{
name = ogonek;
position = "{1332, 10}";
},
{
name = top;
position = "{740, 1577}";
}
);
layerId = "680DE9A7-CE01-463E-86B9-683CD586B94D";
name = "Bold Condensed";
paths = (
{
closed = 1;
nodes = (
"84 1577 LINE",
"84 1551 LINE SMOOTH",
"94 1544 OFFCURVE",
"271 1479 OFFCURVE",
"307 1411 CURVE",
"307 190 LINE SMOOTH",
"307 151 OFFCURVE",
"291 118 OFFCURVE",
"74 42 CURVE SMOOTH",
"74 42 OFFCURVE",
"74 1 OFFCURVE",
"76 0 CURVE",
"559 0 LINE SMOOTH",
"1070 0 OFFCURVE",
"1312 155 OFFCURVE",
"1312 444 CURVE SMOOTH",
"1312 676 OFFCURVE",
"1155 784 OFFCURVE",
"911 858 CURVE",
"1135 907 OFFCURVE",
"1210 1059 OFFCURVE",
"1210 1201 CURVE SMOOTH",
"1210 1433 OFFCURVE",
"1082 1577 OFFCURVE",
"532 1577 CURVE SMOOTH"
);
},
{
closed = 1;
nodes = (
"923 800 OFFCURVE",
"1077 694 OFFCURVE",
"1077 445 CURVE SMOOTH",
"1077 254 OFFCURVE",
"1008 69 OFFCURVE",
"547 69 CURVE",
"547 800 LINE"
);
},
{
closed = 1;
nodes = (
"873 1515 OFFCURVE",
"980 1367 OFFCURVE",
"980 1178 CURVE SMOOTH",
"980 984 OFFCURVE",
"834 863 OFFCURVE",
"547 863 CURVE",
"547 1515 LINE"
);
}
);
width = 1480;
}
);
unicode = 0042;
},
{
glyphname = C;
lastChange = "2012-12-26 13:06:26 -0800";
layers = (
{
anchors = (
{
name = bottom;
position = "{805, 0}";
},
{
name = top;
position = "{805, 1577}";
}
);
layerId = "680DE9A7-CE01-463E-86B9-683CD586B94D";
name = "Bold Condensed";
paths = (
{
closed = 1;
nodes = (
"932 1882 OFFCURVE",
"876 1870 OFFCURVE",
"821 1874 CURVE",
"794 1868 OFFCURVE",
"676 1835 OFFCURVE",
"649 1829 CURVE SMOOTH",
"608 1817 OFFCURVE",
"572 1794 OFFCURVE",
"535 1776 CURVE SMOOTH",
"515 1764 OFFCURVE",
"489 1759 OFFCURVE",
"471 1747 CURVE SMOOTH",
"408 1710 OFFCURVE",
"338 1642 OFFCURVE",
"291 1595 CURVE",
"291 1591 OFFCURVE",
"285 1579 OFFCURVE",
"283 1577 CURVE SMOOTH",
"279 1571 OFFCURVE",
"233 1522 OFFCURVE",
"229 1516 CURVE SMOOTH",
"219 1502 OFFCURVE",
"188 1452 OFFCURVE",
"184 1444 CURVE SMOOTH",
"178 1432 OFFCURVE",
"143 1337 OFFCURVE",
"139 1327 CURVE SMOOTH",
"119 1278 OFFCURVE",
"86 1177 OFFCURVE",
"86 1128 CURVE SMOOTH",
"86 842 LINE SMOOTH",
"86 836 OFFCURVE",
"98 768 OFFCURVE",
"104 743 CURVE SMOOTH",
"104 741 OFFCURVE",
"111 727 OFFCURVE",
"113 725 CURVE SMOOTH",
"115 721 OFFCURVE",
"129 678 OFFCURVE",
"131 672 CURVE SMOOTH",
"145 641 OFFCURVE",
"222 496 OFFCURVE",
"238 467 CURVE",
"254 447 OFFCURVE",
"336 364 OFFCURVE",
"354 350 CURVE SMOOTH",
"362 342 OFFCURVE",
"436 301 OFFCURVE",
"444 295 CURVE SMOOTH",
"446 293 OFFCURVE",
"459 281 OFFCURVE",
"463 279 CURVE SMOOTH",
"598 205 OFFCURVE",
"751 170 OFFCURVE",
"907 170 CURVE SMOOTH",
"1100 170 OFFCURVE",
"1297 188 OFFCURVE",
"1475 268 CURVE",
"1512 309 OFFCURVE",
"1497 340 OFFCURVE",
"1501 395 CURVE SMOOTH",
"1520 565 LINE",
"1520 637 LINE",
"1512 647 OFFCURVE",
"1497 655 OFFCURVE",
"1485 655 CURVE SMOOTH",
"1426 655 OFFCURVE",
"1423 600 OFFCURVE",
"1403 555 CURVE SMOOTH",
"1393 530 OFFCURVE",
"1370 490 OFFCURVE",
"1350 467 CURVE SMOOTH",
"1270 381 OFFCURVE",
"1190 308 OFFCURVE",
"1071 279 CURVE SMOOTH",
"1069 277 OFFCURVE",
"1055 279 OFFCURVE",
"1053 279 CURVE SMOOTH",
"1051 277 OFFCURVE",
"1038 270 OFFCURVE",
"1036 268 CURVE",
"866 268 LINE SMOOTH",
"862 268 OFFCURVE",
"837 275 OFFCURVE",
"829 279 CURVE SMOOTH",
"686 326 OFFCURVE",
"604 371 OFFCURVE",
"516 494 CURVE SMOOTH",
"489 531 OFFCURVE",
"426 625 OFFCURVE",
"426 627 CURVE SMOOTH",
"426 637 LINE",
"362 842 LINE",
"364 846 OFFCURVE",
"364 858 OFFCURVE",
"362 860 CURVE",
"362 868 OFFCURVE",
"354 926 OFFCURVE",
"354 932 CURVE SMOOTH",
"354 1184 LINE SMOOTH",
"356 1219 OFFCURVE",
"366 1255 OFFCURVE",
"362 1290 CURVE",
"368 1317 OFFCURVE",
"406 1435 OFFCURVE",
"418 1460 CURVE",
"424 1478 OFFCURVE",
"475 1561 OFFCURVE",
"489 1577 CURVE SMOOTH",
"495 1585 OFFCURVE",
"571 1661 OFFCURVE",
"596 1686 CURVE SMOOTH",
"604 1694 OFFCURVE",
"637 1718 OFFCURVE",
"641 1720 CURVE SMOOTH",
"664 1732 OFFCURVE",
"746 1772 OFFCURVE",
"758 1776 CURVE SMOOTH",
"813 1790 OFFCURVE",
"881 1794 OFFCURVE",
"938 1794 CURVE SMOOTH",
"1176 1794 OFFCURVE",
"1331 1626 OFFCURVE",
"1411 1415 CURVE",
"1415 1411 OFFCURVE",
"1434 1399 OFFCURVE",
"1440 1399 CURVE SMOOTH",
"1456 1397 OFFCURVE",
"1493 1402 OFFCURVE",
"1501 1425 CURVE",
"1501 1431 OFFCURVE",
"1503 1458 OFFCURVE",
"1503 1466 CURVE SMOOTH",
"1503 1474 OFFCURVE",
"1501 1503 OFFCURVE",
"1501 1505 CURVE SMOOTH",
"1499 1521 OFFCURVE",
"1477 1643 OFFCURVE",
"1475 1659 CURVE SMOOTH",
"1475 1665 OFFCURVE",
"1477 1714 OFFCURVE",
"1475 1720 CURVE SMOOTH",
"1473 1732 OFFCURVE",
"1460 1770 OFFCURVE",
"1456 1776 CURVE SMOOTH",
"1456 1778 OFFCURVE",
"1429 1790 OFFCURVE",
"1421 1792 CURVE SMOOTH",
"1392 1802 OFFCURVE",
"1262 1847 OFFCURVE",
"1233 1855 CURVE SMOOTH",
"1206 1855 LINE SMOOTH",
"1196 1857 OFFCURVE",
"1116 1872 OFFCURVE",
"1108 1874 CURVE SMOOTH",
"1061 1880 OFFCURVE",
"1028 1882 OFFCURVE",
"987 1882 CURVE SMOOTH"
);
},
{
closed = 1;
nodes = (
"1399 381 OFFCURVE",
"1399 373 OFFCURVE",
"1395 373 CURVE SMOOTH",
"1391 373 OFFCURVE",
"1391 381 OFFCURVE",
"1395 381 CURVE SMOOTH"
);
}
);
width = 1609;
}
);
unicode = 0043;
},
{
glyphname = E;
lastChange = "2012-12-26 13:06:26 -0800";
layers = (
{
anchors = (
{
name = bottom;
position = "{740, 0}";
},
{
name = ogonek;
position = "{1332, 10}";
},
{
name = top;
position = "{740, 1577}";
}
);
layerId = "680DE9A7-CE01-463E-86B9-683CD586B94D";
name = "Bold Condensed";
paths = (
{
closed = 1;
nodes = (
"1117 1577 LINE",
"84 1577 LINE",
"84 1551 LINE SMOOTH",
"94 1544 OFFCURVE",
"271 1479 OFFCURVE",
"307 1411 CURVE",
"307 190 LINE SMOOTH",
"307 151 OFFCURVE",
"291 118 OFFCURVE",
"74 42 CURVE SMOOTH",
"74 42 OFFCURVE",
"74 1 OFFCURVE",
"76 0 CURVE",
"1247 0 LINE SMOOTH",
"1292 0 OFFCURVE",
"1323 6 OFFCURVE",
"1333 57 CURVE SMOOTH",
"1389 315 LINE SMOOTH",
"1391 328 OFFCURVE",
"1393 344 OFFCURVE",
"1393 359 CURVE SMOOTH",
"1393 382 OFFCURVE",
"1388 401 OFFCURVE",
"1368 401 CURVE SMOOTH",
"1328 401 OFFCURVE",
"1323 383 OFFCURVE",
"1292 335 CURVE SMOOTH",
"1203 198 OFFCURVE",
"1185 105 OFFCURVE",
"817 84 CURVE SMOOTH",
"547 69 LINE",
"547 800 LINE",
"731 790 LINE SMOOTH",
"983 770 OFFCURVE",
"1056 788 OFFCURVE",
"1122 553 CURVE",
"1122 553 OFFCURVE",
"1163 552 OFFCURVE",
"1163 553 CURVE SMOOTH",
"1163 1043 LINE SMOOTH",
"1163 1071 OFFCURVE",
"1162 1083 OFFCURVE",
"1151 1096 CURVE",
"1123 1096 LINE",
"1053 865 OFFCURVE",
"996 892 OFFCURVE",
"743 873 CURVE SMOOTH",
"547 863 LINE",
"547 1515 LINE",
"1001 1501 LINE SMOOTH",
"1175 1496 OFFCURVE",
"1228 1241 OFFCURVE",
"1267 1241 CURVE SMOOTH",
"1267 1241 OFFCURVE",
"1312 1242 OFFCURVE",
"1316 1255 CURVE",
"1316 1552 LINE SMOOTH",
"1316 1569 OFFCURVE",
"1301 1579 OFFCURVE",
"1297 1579 CURVE SMOOTH"
);
}
);
width = 1480;
}
);
unicode = 0045;
},
{
glyphname = F;
lastChange = "2012-12-26 13:06:26 -0800";
layers = (
{
layerId = "680DE9A7-CE01-463E-86B9-683CD586B94D";
name = "Bold Condensed";
paths = (
{
closed = 1;
nodes = (
"199 1692 LINE",
"183 1690 OFFCURVE",
"108 1685 OFFCURVE",
"94 1683 CURVE",
"84 1673 OFFCURVE",
"86 1659 OFFCURVE",
"86 1645 CURVE SMOOTH",
"86 1584 OFFCURVE",
"156 1614 OFFCURVE",
"199 1585 CURVE SMOOTH",
"242 1556 OFFCURVE",
"275 1534 OFFCURVE",
"281 1481 CURVE",
"285 1465 OFFCURVE",
"289 1405 OFFCURVE",
"289 1399 CURVE SMOOTH",
"289 631 LINE SMOOTH",
"289 541 OFFCURVE",
"290 430 OFFCURVE",
"184 397 CURVE SMOOTH",
"178 397 OFFCURVE",
"129 391 OFFCURVE",
"123 391 CURVE SMOOTH",
"90 385 OFFCURVE",
"92 363 OFFCURVE",
"86 330 CURVE",
"86 324 LINE",
"100 307 LINE",
"131 309 OFFCURVE",
"266 309 OFFCURVE",
"297 307 CURVE SMOOTH",
"328 307 OFFCURVE",
"573 301 OFFCURVE",
"604 301 CURVE SMOOTH",
"618 301 OFFCURVE",
"682 305 OFFCURVE",
"694 307 CURVE",
"694 375 LINE SMOOTH",
"694 377 OFFCURVE",
"690 381 OFFCURVE",
"688 383 CURVE SMOOTH",
"665 397 OFFCURVE",
"652 391 OFFCURVE",
"621 397 CURVE SMOOTH",
"521 420 OFFCURVE",
"502 486 OFFCURVE",
"500 580 CURVE SMOOTH",
"492 963 LINE",
"492 971 LINE SMOOTH",
"492 983 OFFCURVE",
"492 983 OFFCURVE",
"500 999 CURVE",
"688 999 LINE SMOOTH",
"741 997 OFFCURVE",
"825 1001 OFFCURVE",
"868 954 CURVE SMOOTH",
"884 934 OFFCURVE",
"918 899 OFFCURVE",
"928 872 CURVE SMOOTH",
"946 827 OFFCURVE",
"934 774 OFFCURVE",
"991 774 CURVE SMOOTH",
"1003 774 OFFCURVE",
"1036 777 OFFCURVE",
"1032 797 CURVE",
"1032 1036 LINE",
"1034 1050 OFFCURVE",
"1040 1159 OFFCURVE",
"1040 1171 CURVE SMOOTH",
"1040 1181 OFFCURVE",
"1036 1241 OFFCURVE",
"1032 1255 CURVE SMOOTH",
"1032 1259 OFFCURVE",
"1026 1270 OFFCURVE",
"1026 1270 CURVE SMOOTH",
"958 1270 LINE SMOOTH",
"956 1270 OFFCURVE",
"950 1266 OFFCURVE",
"950 1264 CURVE SMOOTH",
"948 1258 OFFCURVE",
"938 1214 OFFCURVE",
"936 1210 CURVE SMOOTH",
"911 1144 OFFCURVE",
"842 1081 OFFCURVE",
"770 1081 CURVE SMOOTH",
"500 1081 LINE SMOOTH",
"500 1081 OFFCURVE",
"494 1108 OFFCURVE",
"492 1120 CURVE",
"492 1135 LINE",
"494 1145 OFFCURVE",
"498 1186 OFFCURVE",
"500 1194 CURVE",
"500 1602 LINE",
"897 1602 LINE",
"995 1571 LINE SMOOTH",
"999 1569 OFFCURVE",
"1032 1538 OFFCURVE",
"1040 1526 CURVE SMOOTH",
"1046 1520 OFFCURVE",
"1084 1460 OFFCURVE",
"1094 1444 CURVE SMOOTH",
"1110 1413 OFFCURVE",
"1114 1382 OFFCURVE",
"1153 1382 CURVE SMOOTH",
"1167 1382 OFFCURVE",
"1198 1382 OFFCURVE",
"1198 1405 CURVE SMOOTH",
"1198 1534 LINE SMOOTH",
"1198 1550 OFFCURVE",
"1192 1637 OFFCURVE",
"1190 1653 CURVE SMOOTH",
"1186 1669 OFFCURVE",
"1177 1677 OFFCURVE",
"1161 1683 CURVE",
"621 1683 LINE SMOOTH",
"584 1683 OFFCURVE",
"289 1690 OFFCURVE",
"252 1692 CURVE SMOOTH"
);
},
{
closed = 1;
nodes = (
"744 1477 OFFCURVE",
"744 1468 OFFCURVE",
"748 1468 CURVE SMOOTH",
"752 1468 OFFCURVE",
"752 1477 OFFCURVE",
"748 1477 CURVE SMOOTH"
);
}
);
width = 1259;
}
);
unicode = 0046;
},
{
glyphname = H;
lastChange = "2012-12-26 13:06:16 -0800";
layers = (
{
anchors = (
{
name = center;
position = "{915, 789}";
},
{
name = top;
position = "{915, 1577}";
}
);
layerId = "680DE9A7-CE01-463E-86B9-683CD586B94D";
name = "Bold Condensed";
paths = (
{
closed = 1;
nodes = (
"1061 1577 LINE",
"1047 1563 OFFCURVE",
"1047 1530 OFFCURVE",
"1047 1497 CURVE SMOOTH",
"1047 1481 LINE SMOOTH",
"1047 1434 OFFCURVE",
"1280 1479 OFFCURVE",
"1280 1321 CURVE SMOOTH",
"1280 862 LINE",
"557 862 LINE",
"557 1321 LINE SMOOTH",
"557 1479 OFFCURVE",
"791 1434 OFFCURVE",
"791 1481 CURVE SMOOTH",
"791 1497 LINE SMOOTH",
"791 1530 OFFCURVE",
"790 1563 OFFCURVE",
"776 1577 CURVE",
"94 1577 LINE",
"84 1563 OFFCURVE",
"84 1528 OFFCURVE",
"84 1495 CURVE SMOOTH",
"84 1481 LINE",
"90 1434 OFFCURVE",
"317 1479 OFFCURVE",
"317 1321 CURVE SMOOTH",
"317 256 LINE SMOOTH",
"317 98 OFFCURVE",
"90 143 OFFCURVE",
"84 96 CURVE",
"84 82 LINE SMOOTH",
"84 49 OFFCURVE",
"84 14 OFFCURVE",
"94 0 CURVE",
"776 0 LINE",
"790 14 OFFCURVE",
"791 47 OFFCURVE",
"791 80 CURVE SMOOTH",
"791 96 LINE SMOOTH",
"791 143 OFFCURVE",
"557 98 OFFCURVE",
"557 256 CURVE SMOOTH",
"557 745 LINE",
"1280 745 LINE",
"1280 256 LINE SMOOTH",
"1280 98 OFFCURVE",
"1047 143 OFFCURVE",
"1047 96 CURVE SMOOTH",
"1047 80 LINE SMOOTH",
"1047 47 OFFCURVE",
"1047 14 OFFCURVE",
"1061 0 CURVE",
"1743 0 LINE",
"1753 14 OFFCURVE",
"1753 49 OFFCURVE",
"1753 82 CURVE SMOOTH",
"1753 96 LINE",
"1747 143 OFFCURVE",
"1520 98 OFFCURVE",
"1520 256 CURVE SMOOTH",
"1520 1321 LINE SMOOTH",
"1520 1479 OFFCURVE",
"1747 1434 OFFCURVE",
"1753 1481 CURVE",
"1753 1495 LINE SMOOTH",
"1753 1528 OFFCURVE",
"1753 1563 OFFCURVE",
"1743 1577 CURVE"
);
}
);
width = 1830;
}
);
unicode = 0048;
},
{
glyphname = I;
lastChange = "2012-12-26 13:06:16 -0800";
layers = (
{
anchors = (
{
name = ogonek;
position = "{776, 10}";
},
{
name = top;
position = "{431, 1577}";
}
);
layerId = "680DE9A7-CE01-463E-86B9-683CD586B94D";
name = "Bold Condensed";
paths = (
{
closed = 1;
nodes = (
"92 1577 LINE",
"78 1563 OFFCURVE",
"78 1530 OFFCURVE",
"78 1497 CURVE SMOOTH",
"78 1481 LINE SMOOTH",
"78 1434 OFFCURVE",
"311 1479 OFFCURVE",
"311 1321 CURVE SMOOTH",
"311 256 LINE SMOOTH",
"311 98 OFFCURVE",
"78 143 OFFCURVE",
"78 96 CURVE SMOOTH",
"78 80 LINE SMOOTH",
"78 47 OFFCURVE",
"78 14 OFFCURVE",
"92 0 CURVE",
"774 0 LINE",
"784 14 OFFCURVE",
"784 49 OFFCURVE",
"784 82 CURVE SMOOTH",
"784 96 LINE",
"778 143 OFFCURVE",
"551 98 OFFCURVE",
"551 256 CURVE SMOOTH",
"551 1321 LINE SMOOTH",
"551 1479 OFFCURVE",
"778 1434 OFFCURVE",
"784 1481 CURVE",
"784 1495 LINE SMOOTH",
"784 1528 OFFCURVE",
"784 1563 OFFCURVE",
"774 1577 CURVE"
);
}
);
width = 862;
}
);
unicode = 0049;
},
{
glyphname = L;
lastChange = "2012-12-26 13:06:16 -0800";
layers = (
{
anchors = (
{
name = bottom;
position = "{740, 0}";
},
{
name = top;
position = "{740, 1577}";
}
);
layerId = "680DE9A7-CE01-463E-86B9-683CD586B94D";
name = "Bold Condensed";
paths = (
{
closed = 1;
nodes = (
"92 1577 LINE",
"78 1563 OFFCURVE",
"78 1530 OFFCURVE",
"78 1497 CURVE SMOOTH",
"78 1481 LINE SMOOTH",
"78 1434 OFFCURVE",
"311 1479 OFFCURVE",
"311 1321 CURVE SMOOTH",
"311 256 LINE SMOOTH",
"311 98 OFFCURVE",
"78 143 OFFCURVE",
"78 96 CURVE SMOOTH",
"78 80 LINE SMOOTH",
"78 47 OFFCURVE",
"78 14 OFFCURVE",
"92 0 CURVE",
"1251 0 LINE SMOOTH",
"1296 0 OFFCURVE",
"1327 6 OFFCURVE",
"1337 57 CURVE SMOOTH",
"1393 315 LINE SMOOTH",
"1395 328 OFFCURVE",
"1397 344 OFFCURVE",
"1397 359 CURVE SMOOTH",
"1397 382 OFFCURVE",
"1392 401 OFFCURVE",
"1372 401 CURVE SMOOTH",
"1302 401 OFFCURVE",
"1297 363 OFFCURVE",
"1266 315 CURVE SMOOTH",
"1177 178 OFFCURVE",
"1029 104 OFFCURVE",
"821 104 CURVE SMOOTH",
"662 104 OFFCURVE",
"551 106 OFFCURVE",
"551 399 CURVE SMOOTH",
"551 1321 LINE SMOOTH",
"551 1479 OFFCURVE",
"778 1434 OFFCURVE",
"784 1481 CURVE",
"784 1495 LINE SMOOTH",
"784 1528 OFFCURVE",
"784 1563 OFFCURVE",
"774 1577 CURVE"
);
}
);
width = 1480;
}
);
unicode = 004C;
},
{
glyphname = M;
lastChange = "2012-12-26 13:06:26 -0800";
layers = (
{
layerId = "680DE9A7-CE01-463E-86B9-683CD586B94D";
name = "Bold Condensed";
paths = (
{
closed = 1;
nodes = (
"1694 1599 LINE SMOOTH",
"1688 1599 OFFCURVE",
"1636 1591 OFFCURVE",
"1630 1591 CURVE SMOOTH",
"1399 1591 LINE",
"1393 1585 LINE",
"1391 1560 OFFCURVE",
"1382 1442 OFFCURVE",
"1378 1417 CURVE SMOOTH",
"1374 1388 OFFCURVE",
"1350 1346 OFFCURVE",
"1358 1311 CURVE",
"1251 975 LINE",
"1235 948 OFFCURVE",
"1235 912 OFFCURVE",
"1217 885 CURVE",
"1049 457 LINE SMOOTH",
"1049 455 OFFCURVE",
"1047 455 OFFCURVE",
"1047 455 CURVE SMOOTH",
"1024 455 OFFCURVE",
"1022 518 OFFCURVE",
"1006 541 CURVE",
"895 856 LINE",
"895 870 LINE",
"895 870 OFFCURVE",
"849 993 OFFCURVE",
"831 1044 CURVE SMOOTH",
"829 1050 OFFCURVE",
"821 1059 OFFCURVE",
"823 1067 CURVE",
"719 1382 LINE",
"713 1397 LINE",
"670 1571 LINE SMOOTH",
"670 1577 OFFCURVE",
"649 1591 OFFCURVE",
"641 1591 CURVE SMOOTH",
"276 1591 LINE SMOOTH",
"260 1591 OFFCURVE",
"262 1548 OFFCURVE",
"262 1540 CURVE SMOOTH",
"262 1536 LINE",
"264 1528 OFFCURVE",
"270 1509 OFFCURVE",
"270 1507 CURVE SMOOTH",
"270 1507 OFFCURVE",
"287 1501 OFFCURVE",
"291 1501 CURVE SMOOTH",
"297 1499 OFFCURVE",
"342 1497 OFFCURVE",
"348 1493 CURVE SMOOTH",
"354 1491 OFFCURVE",
"389 1456 OFFCURVE",
"397 1444 CURVE SMOOTH",
"403 1436 OFFCURVE",
"422 1390 OFFCURVE",
"424 1382 CURVE SMOOTH",
"424 1380 OFFCURVE",
"426 1351 OFFCURVE",
"426 1339 CURVE SMOOTH",
"426 1329 OFFCURVE",
"424 1294 OFFCURVE",
"424 1290 CURVE SMOOTH",
"420 1247 OFFCURVE",
"395 1040 OFFCURVE",
"389 995 CURVE",
"371 950 OFFCURVE",
"377 897 OFFCURVE",
"369 848 CURVE SMOOTH",
"363 809 OFFCURVE",
"327 623 OFFCURVE",
"319 582 CURVE",
"321 566 OFFCURVE",
"313 548 OFFCURVE",
"311 532 CURVE SMOOTH",
"299 408 LINE",
"287 394 OFFCURVE",
"287 364 OFFCURVE",
"285 350 CURVE",
"279 332 OFFCURVE",
"254 243 OFFCURVE",
"250 225 CURVE",
"240 217 OFFCURVE",
"225 194 OFFCURVE",
"221 188 CURVE SMOOTH",
"180 143 OFFCURVE",
"139 122 OFFCURVE",
"80 104 CURVE",
"74 86 OFFCURVE",
"74 77 OFFCURVE",
"74 59 CURVE SMOOTH",
"74 53 OFFCURVE",
"74 20 OFFCURVE",
"88 20 CURVE SMOOTH",
"571 20 LINE SMOOTH",
"579 20 OFFCURVE",
"586 72 OFFCURVE",
"586 78 CURVE SMOOTH",
"586 146 OFFCURVE",
"504 110 OFFCURVE",
"473 133 CURVE SMOOTH",
"438 168 LINE SMOOTH",
"420 193 OFFCURVE",
"403 229 OFFCURVE",
"403 260 CURVE SMOOTH",
"403 442 LINE",
"467 891 LINE",
"467 926 LINE",
"502 1151 LINE",
"500 1178 OFFCURVE",
"504 1216 OFFCURVE",
"508 1241 CURVE SMOOTH",
"510 1247 OFFCURVE",
"512 1257 OFFCURVE",
"520 1257 CURVE",
"522 1255 LINE",
"537 1227 LINE",
"748 616 LINE",
"754 604 LINE",
"866 260 LINE",
"866 252 LINE SMOOTH",
"872 232 OFFCURVE",
"883 199 OFFCURVE",
"887 176 CURVE SMOOTH",
"889 166 OFFCURVE",
"899 92 OFFCURVE",
"901 84 CURVE SMOOTH",
"901 82 OFFCURVE",
"911 51 OFFCURVE",
"915 43 CURVE SMOOTH",
"922 29 LINE",
"938 17 OFFCURVE",
"942 22 OFFCURVE",
"958 20 CURVE SMOOTH",
"960 20 OFFCURVE",
"989 14 OFFCURVE",
"993 14 CURVE SMOOTH",
"995 14 OFFCURVE",
"1016 25 OFFCURVE",
"1020 29 CURVE SMOOTH",
"1022 29 OFFCURVE",
"1026 39 OFFCURVE",
"1028 43 CURVE SMOOTH",
"1202 590 LINE",
"1208 598 OFFCURVE",
"1227 643 OFFCURVE",
"1231 651 CURVE SMOOTH",
"1251 723 LINE SMOOTH",
"1253 725 OFFCURVE",
"1266 748 OFFCURVE",
"1266 750 CURVE SMOOTH",
"1280 787 OFFCURVE",
"1338 952 OFFCURVE",
"1350 989 CURVE",
"1358 1004 LINE",
"1427 1249 LINE",
"1434 1262 LINE",
"1442 1217 OFFCURVE",
"1456 1175 OFFCURVE",
"1462 1128 CURVE SMOOTH",
"1462 1116 LINE",
"1518 680 LINE SMOOTH",
"1520 676 OFFCURVE",
"1526 657 OFFCURVE",
"1526 651 CURVE SMOOTH",
"1542 538 OFFCURVE",
"1561 412 OFFCURVE",
"1561 295 CURVE SMOOTH",
"1561 229 OFFCURVE",
"1530 182 OFFCURVE",
"1477 147 CURVE SMOOTH",
"1475 145 OFFCURVE",
"1464 141 OFFCURVE",
"1462 139 CURVE",
"1456 139 OFFCURVE",
"1405 135 OFFCURVE",
"1399 133 CURVE SMOOTH",
"1362 127 OFFCURVE",
"1362 96 OFFCURVE",
"1358 63 CURVE",
"1358 59 LINE SMOOTH",
"1358 36 OFFCURVE",
"1372 20 OFFCURVE",
"1395 20 CURVE SMOOTH",
"1399 20 LINE",
"1424 22 OFFCURVE",
"1620 29 OFFCURVE",
"1645 29 CURVE SMOOTH",
"1989 29 LINE",
"2003 35 LINE",
"2009 92 LINE",
"2009 98 LINE SMOOTH",
"2009 116 OFFCURVE",
"2001 141 OFFCURVE",
"1978 141 CURVE",
"1974 139 LINE SMOOTH",
"1972 139 OFFCURVE",
"1950 133 OFFCURVE",
"1946 133 CURVE SMOOTH",
"1909 133 OFFCURVE",
"1847 174 OFFCURVE",
"1835 211 CURVE SMOOTH",
"1827 231 OFFCURVE",
"1808 295 OFFCURVE",
"1806 301 CURVE SMOOTH",
"1800 330 OFFCURVE",
"1776 469 OFFCURVE",
"1772 498 CURVE",
"1774 531 OFFCURVE",
"1763 559 OFFCURVE",
"1757 590 CURVE SMOOTH",
"1753 610 OFFCURVE",
"1735 733 OFFCURVE",
"1729 764 CURVE SMOOTH",
"1711 887 OFFCURVE",
"1695 1014 OFFCURVE",
"1679 1137 CURVE SMOOTH",
"1671 1209 OFFCURVE",
"1659 1282 OFFCURVE",
"1659 1354 CURVE SMOOTH",
"1659 1405 OFFCURVE",
"1669 1438 OFFCURVE",
"1702 1481 CURVE",
"1702 1479 OFFCURVE",
"1706 1479 OFFCURVE",
"1708 1481 CURVE SMOOTH",
"1714 1493 LINE",
"1741 1520 OFFCURVE",
"1812 1495 OFFCURVE",
"1812 1542 CURVE SMOOTH",
"1812 1603 OFFCURVE",
"1792 1599 OFFCURVE",
"1739 1599 CURVE SMOOTH"
);
}
);
width = 2086;
}
);
unicode = 004D;
},
{
glyphname = N;
lastChange = "2012-12-26 13:06:26 -0800";
layers = (
{
anchors = (
{
name = bottom;
position = "{930, 0}";
},
{
name = top;
position = "{930, 1577}";
}
);
layerId = "680DE9A7-CE01-463E-86B9-683CD586B94D";
name = "Bold Condensed";
paths = (
{
closed = 1;
nodes = (
"1245 1620 LINE SMOOTH",
"1210 1620 OFFCURVE",
"1188 1612 OFFCURVE",
"1188 1571 CURVE SMOOTH",
"1188 1551 OFFCURVE",
"1197 1536 OFFCURVE",
"1217 1530 CURVE SMOOTH",
"1227 1526 OFFCURVE",
"1305 1503 OFFCURVE",
"1315 1501 CURVE SMOOTH",
"1358 1487 OFFCURVE",
"1405 1430 OFFCURVE",
"1419 1389 CURVE SMOOTH",
"1431 1352 OFFCURVE",
"1430 1319 OFFCURVE",
"1440 1284 CURVE",
"1450 1075 OFFCURVE",
"1450 866 OFFCURVE",
"1454 659 CURVE SMOOTH",
"1454 649 OFFCURVE",
"1462 571 OFFCURVE",
"1462 561 CURVE SMOOTH",
"1462 543 OFFCURVE",
"1456 458 OFFCURVE",
"1454 442 CURVE",
"1440 442 LINE SMOOTH",
"1438 442 OFFCURVE",
"1394 492 OFFCURVE",
"1378 512 CURVE SMOOTH",
"1372 518 OFFCURVE",
"1333 576 OFFCURVE",
"1329 582 CURVE SMOOTH",
"1311 605 OFFCURVE",
"1222 703 OFFCURVE",
"1202 723 CURVE",
"1167 791 OFFCURVE",
"1108 852 OFFCURVE",
"1055 905 CURVE SMOOTH",
"1055 907 OFFCURVE",
"1049 918 OFFCURVE",
"1049 920 CURVE SMOOTH",
"1012 954 LINE SMOOTH",
"1008 960 OFFCURVE",
"987 989 OFFCURVE",
"985 995 CURVE",
"768 1241 LINE",
"731 1290 LINE",
"453 1606 LINE",
"143 1606 LINE SMOOTH",
"135 1606 OFFCURVE",
"106 1601 OFFCURVE",
"100 1599 CURVE SMOOTH",
"82 1591 OFFCURVE",
"80 1562 OFFCURVE",
"80 1546 CURVE SMOOTH",
"80 1507 OFFCURVE",
"114 1519 OFFCURVE",
"143 1507 CURVE SMOOTH",
"206 1482 OFFCURVE",
"256 1436 OFFCURVE",
"311 1397 CURVE",
"311 1389 LINE",
"319 1385 OFFCURVE",
"348 1360 OFFCURVE",
"354 1354 CURVE SMOOTH",
"364 1340 OFFCURVE",
"360 1302 OFFCURVE",
"360 1290 CURVE SMOOTH",
"360 1278 OFFCURVE",
"367 1183 OFFCURVE",
"367 1171 CURVE SMOOTH",
"369 1095 OFFCURVE",
"369 748 OFFCURVE",
"367 674 CURVE",
"369 664 OFFCURVE",
"373 614 OFFCURVE",
"375 604 CURVE SMOOTH",
"375 596 LINE",
"373 588 OFFCURVE",
"369 526 OFFCURVE",
"367 518 CURVE",
"367 506 OFFCURVE",
"369 393 OFFCURVE",
"367 379 CURVE SMOOTH",
"367 365 OFFCURVE",
"352 284 OFFCURVE",
"346 266 CURVE SMOOTH",
"334 223 OFFCURVE",
"295 183 OFFCURVE",
"262 154 CURVE SMOOTH",
"260 154 OFFCURVE",
"252 147 OFFCURVE",
"248 147 CURVE SMOOTH",
"236 143 OFFCURVE",
"192 135 OFFCURVE",
"184 133 CURVE SMOOTH",
"143 133 LINE SMOOTH",
"108 129 OFFCURVE",
"106 86 OFFCURVE",
"106 61 CURVE SMOOTH",
"106 57 OFFCURVE",
"109 43 OFFCURVE",
"109 43 CURVE",
"123 35 LINE",
"711 35 LINE SMOOTH",
"736 35 OFFCURVE",
"733 72 OFFCURVE",
"733 84 CURVE SMOOTH",
"733 107 OFFCURVE",
"732 135 OFFCURVE",
"705 139 CURVE SMOOTH",
"699 141 OFFCURVE",
"647 145 OFFCURVE",
"641 147 CURVE SMOOTH",
"631 149 OFFCURVE",
"577 174 OFFCURVE",
"563 182 CURVE SMOOTH",
"526 202 OFFCURVE",
"496 332 OFFCURVE",
"494 365 CURVE SMOOTH",
"494 379 OFFCURVE",
"487 486 OFFCURVE",
"487 498 CURVE SMOOTH",
"485 521 OFFCURVE",
"487 700 OFFCURVE",
"487 723 CURVE",
"485 733 OFFCURVE",
"479 811 OFFCURVE",
"479 821 CURVE SMOOTH",
"479 989 LINE SMOOTH",
"479 1001 OFFCURVE",
"473 1108 OFFCURVE",
"473 1122 CURVE SMOOTH",
"473 1192 LINE SMOOTH",
"473 1198 OFFCURVE",
"475 1206 OFFCURVE",
"483 1206 CURVE SMOOTH",
"487 1206 LINE",
"528 1163 LINE",
"745 897 LINE",
"776 872 OFFCURVE",
"798 838 OFFCURVE",
"823 807 CURVE SMOOTH",
"872 746 OFFCURVE",
"926 684 OFFCURVE",
"977 625 CURVE SMOOTH",
"1020 582 LINE SMOOTH",
"1026 576 OFFCURVE",
"1069 512 OFFCURVE",
"1075 506 CURVE SMOOTH",
"1079 502 OFFCURVE",
"1108 473 OFFCURVE",
"1110 469 CURVE",
"1114 467 OFFCURVE",
"1122 453 OFFCURVE",
"1124 449 CURVE SMOOTH",
"1454 63 LINE",
"1462 43 OFFCURVE",
"1478 14 OFFCURVE",
"1503 14 CURVE SMOOTH",
"1587 14 LINE SMOOTH",
"1591 14 OFFCURVE",
"1602 25 OFFCURVE",
"1602 29 CURVE SMOOTH",
"1602 63 LINE SMOOTH",
"1600 79 OFFCURVE",
"1577 209 OFFCURVE",
"1573 225 CURVE SMOOTH",
"1573 227 OFFCURVE",
"1575 256 OFFCURVE",
"1573 260 CURVE SMOOTH",
"1573 264 OFFCURVE",
"1567 297 OFFCURVE",
"1567 301 CURVE SMOOTH",
"1567 324 LINE SMOOTH",
"1567 340 OFFCURVE",
"1561 488 OFFCURVE",
"1561 506 CURVE SMOOTH",
"1559 543 OFFCURVE",
"1561 852 OFFCURVE",
"1561 891 CURVE",
"1559 905 OFFCURVE",
"1552 1018 OFFCURVE",
"1552 1030 CURVE SMOOTH",
"1552 1151 LINE SMOOTH",
"1552 1157 OFFCURVE",
"1559 1213 OFFCURVE",
"1561 1221 CURVE",
"1561 1231 OFFCURVE",
"1559 1309 OFFCURVE",
"1561 1319 CURVE SMOOTH",
"1561 1321 OFFCURVE",
"1565 1346 OFFCURVE",
"1567 1354 CURVE SMOOTH",
"1569 1364 OFFCURVE",
"1585 1413 OFFCURVE",
"1587 1423 CURVE SMOOTH",
"1595 1432 LINE SMOOTH",
"1597 1436 OFFCURVE",
"1626 1469 OFFCURVE",
"1630 1473 CURVE SMOOTH",
"1638 1481 OFFCURVE",
"1678 1505 OFFCURVE",
"1686 1507 CURVE SMOOTH",
"1711 1517 OFFCURVE",
"1762 1505 OFFCURVE",
"1778 1536 CURVE SMOOTH",
"1778 1565 LINE SMOOTH",
"1778 1581 OFFCURVE",
"1782 1610 OFFCURVE",
"1755 1614 CURVE",
"1704 1612 OFFCURVE",
"1458 1612 OFFCURVE",
"1405 1614 CURVE SMOOTH",
"1391 1614 OFFCURVE",
"1280 1620 OFFCURVE",
"1266 1620 CURVE SMOOTH"
);
}
);
width = 1859;
}
);
unicode = 004E;
},
{
glyphname = O;
lastChange = "2012-12-26 13:06:22 -0800";
layers = (
{
anchors = (
{
name = top;
position = "{826, 1577}";
}
);
layerId = "680DE9A7-CE01-463E-86B9-683CD586B94D";
name = "Bold Condensed";
paths = (
{
closed = 1;
nodes = (
"418 1593 OFFCURVE",
"74 1209 OFFCURVE",
"74 753 CURVE SMOOTH",
"74 312 OFFCURVE",
"395 -35 OFFCURVE",
"823 -35 CURVE SMOOTH",
"1255 -35 OFFCURVE",
"1575 317 OFFCURVE",
"1575 756 CURVE SMOOTH",
"1575 1226 OFFCURVE",
"1300 1593 OFFCURVE",
"827 1593 CURVE SMOOTH"
);
},
{
closed = 1;
nodes = (
"1176 1491 OFFCURVE",
"1323 1080 OFFCURVE",
"1323 704 CURVE SMOOTH",
"1323 354 OFFCURVE",
"1177 64 OFFCURVE",
"838 64 CURVE SMOOTH",
"486 64 OFFCURVE",
"326 461 OFFCURVE",
"326 792 CURVE SMOOTH",
"326 1133 OFFCURVE",
"443 1491 OFFCURVE",
"808 1491 CURVE SMOOTH"
);
}
);
width = 1652;
}
);
unicode = 004F;
},
{
glyphname = P;
lastChange = "2012-12-26 13:06:26 -0800";
layers = (
{
layerId = "680DE9A7-CE01-463E-86B9-683CD586B94D";
name = "Bold Condensed";
paths = (
{
closed = 1;
nodes = (
"625 1585 LINE SMOOTH",
"615 1585 OFFCURVE",
"536 1579 OFFCURVE",
"526 1579 CURVE SMOOTH",
"516 1577 OFFCURVE",
"438 1579 OFFCURVE",
"428 1579 CURVE",
"424 1577 OFFCURVE",
"385 1571 OFFCURVE",
"379 1571 CURVE SMOOTH",
"369 1571 OFFCURVE",
"284 1577 OFFCURVE",
"274 1579 CURVE SMOOTH",
"113 1579 LINE",
"111 1577 OFFCURVE",
"94 1573 OFFCURVE",
"92 1571 CURVE SMOOTH",
"90 1571 OFFCURVE",
"84 1565 OFFCURVE",
"84 1565 CURVE",
"84 1501 LINE SMOOTH",
"84 1499 OFFCURVE",
"100 1489 OFFCURVE",
"106 1487 CURVE SMOOTH",
"112 1485 OFFCURVE",
"170 1481 OFFCURVE",
"176 1481 CURVE SMOOTH",
"293 1452 OFFCURVE",
"301 1341 OFFCURVE",
"303 1241 CURVE SMOOTH",
"303 940 LINE SMOOTH",
"303 932 OFFCURVE",
"295 870 OFFCURVE",
"295 862 CURVE SMOOTH",
"295 827 LINE SMOOTH",
"295 733 OFFCURVE",
"303 641 OFFCURVE",
"303 545 CURVE SMOOTH",
"303 428 OFFCURVE",
"310 305 OFFCURVE",
"281 188 CURVE SMOOTH",
"273 149 OFFCURVE",
"221 135 OFFCURVE",
"190 127 CURVE SMOOTH",
"176 123 OFFCURVE",
"106 108 OFFCURVE",
"92 104 CURVE SMOOTH",
"76 98 OFFCURVE",
"78 73 OFFCURVE",
"78 59 CURVE SMOOTH",
"78 30 OFFCURVE",
"90 14 OFFCURVE",
"123 14 CURVE SMOOTH",
"191 14 OFFCURVE",
"258 20 OFFCURVE",
"326 20 CURVE SMOOTH",
"439 20 OFFCURVE",
"551 14 OFFCURVE",
"664 14 CURVE SMOOTH",
"772 14 LINE",
"790 24 OFFCURVE",
"793 45 OFFCURVE",
"793 63 CURVE SMOOTH",
"793 75 OFFCURVE",
"792 98 OFFCURVE",
"778 104 CURVE",
"651 118 OFFCURVE",
"559 136 OFFCURVE",
"547 281 CURVE SMOOTH",
"547 285 OFFCURVE",
"549 318 OFFCURVE",
"547 324 CURVE",
"547 332 OFFCURVE",
"543 371 OFFCURVE",
"541 379 CURVE",
"541 723 LINE SMOOTH",
"541 733 OFFCURVE",
"535 817 OFFCURVE",
"535 827 CURVE SMOOTH",
"535 841 OFFCURVE",
"541 949 OFFCURVE",
"541 961 CURVE SMOOTH",
"541 965 LINE SMOOTH",
"541 1074 OFFCURVE",
"532 1183 OFFCURVE",
"532 1294 CURVE SMOOTH",
"532 1321 OFFCURVE",
"535 1439 OFFCURVE",
"535 1466 CURVE",
"539 1476 OFFCURVE",
"547 1491 OFFCURVE",
"561 1493 CURVE SMOOTH",
"573 1495 OFFCURVE",
"631 1495 OFFCURVE",
"643 1495 CURVE SMOOTH",
"690 1495 OFFCURVE",
"727 1497 OFFCURVE",
"772 1487 CURVE SMOOTH",
"833 1473 OFFCURVE",
"891 1462 OFFCURVE",
"940 1423 CURVE SMOOTH",
"946 1419 OFFCURVE",
"990 1376 OFFCURVE",
"1004 1360 CURVE SMOOTH",
"1008 1356 OFFCURVE",
"1024 1335 OFFCURVE",
"1024 1333 CURVE SMOOTH",
"1030 1323 OFFCURVE",
"1055 1259 OFFCURVE",
"1059 1241 CURVE",
"1069 1214 OFFCURVE",
"1067 1194 OFFCURVE",
"1067 1165 CURVE SMOOTH",
"1067 1140 OFFCURVE",
"1069 1104 OFFCURVE",
"1059 1079 CURVE",
"1053 1059 OFFCURVE",
"1014 966 OFFCURVE",
"1004 946 CURVE",
"963 895 OFFCURVE",
"902 854 OFFCURVE",
"836 842 CURVE SMOOTH",
"822 840 OFFCURVE",
"708 829 OFFCURVE",
"694 827 CURVE SMOOTH",
"671 825 OFFCURVE",
"645 809 OFFCURVE",
"645 782 CURVE SMOOTH",
"645 755 OFFCURVE",
"659 733 OFFCURVE",
"688 729 CURVE SMOOTH",
"776 729 LINE SMOOTH",
"887 729 OFFCURVE",
"996 738 OFFCURVE",
"1096 793 CURVE SMOOTH",
"1108 799 OFFCURVE",
"1147 823 OFFCURVE",
"1151 827 CURVE SMOOTH",
"1163 837 OFFCURVE",
"1241 912 OFFCURVE",
"1264 932 CURVE SMOOTH",
"1315 985 OFFCURVE",
"1333 1089 OFFCURVE",
"1333 1159 CURVE SMOOTH",
"1333 1280 OFFCURVE",
"1284 1386 OFFCURVE",
"1194 1466 CURVE SMOOTH",
"1178 1478 OFFCURVE",
"1110 1528 OFFCURVE",
"1096 1536 CURVE SMOOTH",
"1092 1538 OFFCURVE",
"1042 1552 OFFCURVE",
"1024 1556 CURVE SMOOTH",
"977 1568 OFFCURVE",
"926 1575 OFFCURVE",
"877 1579 CURVE SMOOTH",
"871 1579 OFFCURVE",
"708 1583 OFFCURVE",
"645 1585 CURVE SMOOTH"
);
},
{
closed = 1;
nodes = (
"109 1477 OFFCURVE",
"109 1468 OFFCURVE",
"113 1468 CURVE SMOOTH",
"117 1468 OFFCURVE",
"117 1477 OFFCURVE",
"113 1477 CURVE SMOOTH"
);
}
);
width = 1417;
}
);
unicode = 0050;
},
{
glyphname = R;
lastChange = "2012-12-26 13:06:26 -0800";
layers = (
{
anchors = (
{
name = bottom;
position = "{756, 0}";
},
{
name = top;
position = "{756, 1577}";
}
);
layerId = "680DE9A7-CE01-463E-86B9-683CD586B94D";
name = "Bold Condensed";
paths = (
{
closed = 1;
nodes = (
"90 1692 LINE",
"90 1616 LINE SMOOTH",
"90 1593 OFFCURVE",
"192 1596 OFFCURVE",
"217 1571 CURVE SMOOTH",
"248 1540 OFFCURVE",
"270 1495 OFFCURVE",
"270 1450 CURVE SMOOTH",
"270 541 LINE SMOOTH",
"270 475 OFFCURVE",
"218 407 OFFCURVE",
"150 397 CURVE",
"136 397 OFFCURVE",
"98 391 OFFCURVE",
"96 391 CURVE SMOOTH",
"94 391 OFFCURVE",
"90 385 OFFCURVE",
"90 383 CURVE SMOOTH",
"88 375 OFFCURVE",
"82 344 OFFCURVE",
"82 338 CURVE SMOOTH",
"82 315 OFFCURVE",
"86 301 OFFCURVE",
"113 301 CURVE SMOOTH",
"668 301 LINE",
"668 391 LINE",
"586 406 LINE SMOOTH",
"582 408 OFFCURVE",
"575 416 OFFCURVE",
"575 420 CURVE",
"542 420 OFFCURVE",
"524 440 OFFCURVE",
"504 467 CURVE SMOOTH",
"502 467 OFFCURVE",
"496 479 OFFCURVE",
"496 481 CURVE SMOOTH",
"494 491 OFFCURVE",
"487 535 OFFCURVE",
"487 541 CURVE SMOOTH",
"487 940 LINE SMOOTH",
"487 948 OFFCURVE",
"510 954 OFFCURVE",
"518 954 CURVE SMOOTH",
"586 954 OFFCURVE",
"649 917 OFFCURVE",
"690 864 CURVE SMOOTH",
"1059 391 LINE",
"1141 307 LINE",
"1413 301 LINE SMOOTH",
"1438 299 OFFCURVE",
"1442 318 OFFCURVE",
"1442 338 CURVE SMOOTH",
"1442 399 OFFCURVE",
"1393 399 OFFCURVE",
"1346 428 CURVE SMOOTH",
"1338 434 OFFCURVE",
"1300 459 OFFCURVE",
"1292 467 CURVE SMOOTH",
"1261 492 OFFCURVE",
"1242 520 OFFCURVE",
"1217 549 CURVE SMOOTH",
"1118 670 LINE",
"1104 684 LINE SMOOTH",
"1102 688 OFFCURVE",
"1083 719 OFFCURVE",
"1081 721 CURVE SMOOTH",
"1077 725 OFFCURVE",
"1046 756 OFFCURVE",
"1044 760 CURVE SMOOTH",
"1034 770 OFFCURVE",
"962 862 OFFCURVE",
"954 872 CURVE SMOOTH",
"940 886 OFFCURVE",
"872 957 OFFCURVE",
"856 969 CURVE",
"999 1030 LINE",
"1003 1040 OFFCURVE",
"1020 1040 OFFCURVE",
"1028 1044 CURVE SMOOTH",
"1036 1048 OFFCURVE",
"1067 1069 OFFCURVE",
"1073 1075 CURVE SMOOTH",
"1147 1132 OFFCURVE",
"1180 1237 OFFCURVE",
"1180 1327 CURVE SMOOTH",
"1180 1474 OFFCURVE",
"1050 1610 OFFCURVE",
"915 1653 CURVE",
"860 1673 OFFCURVE",
"790 1692 OFFCURVE",
"729 1692 CURVE SMOOTH"
);
},
{
closed = 1;
nodes = (
"649 1602 OFFCURVE",
"750 1594 OFFCURVE",
"834 1526 CURVE SMOOTH",
"906 1469 OFFCURVE",
"938 1392 OFFCURVE",
"938 1300 CURVE SMOOTH",
"938 1275 OFFCURVE",
"925 1230 OFFCURVE",
"915 1210 CURVE SMOOTH",
"911 1200 OFFCURVE",
"891 1157 OFFCURVE",
"887 1149 CURVE SMOOTH",
"885 1149 OFFCURVE",
"874 1139 OFFCURVE",
"870 1135 CURVE SMOOTH",
"768 1045 OFFCURVE",
"647 1044 OFFCURVE",
"514 1044 CURVE SMOOTH",
"504 1044 OFFCURVE",
"493 1053 OFFCURVE",
"487 1059 CURVE",
"487 1286 LINE SMOOTH",
"487 1298 OFFCURVE",
"496 1407 OFFCURVE",
"496 1421 CURVE SMOOTH",
"496 1431 OFFCURVE",
"489 1528 OFFCURVE",
"487 1540 CURVE SMOOTH",
"487 1561 LINE SMOOTH",
"487 1577 OFFCURVE",
"488 1586 OFFCURVE",
"496 1602 CURVE",
"545 1602 LINE SMOOTH"
);
}
);
width = 1511;
}
);
unicode = 0052;
},
{
glyphname = S;
lastChange = "2012-12-26 13:06:22 -0800";
layers = (
{
anchors = (
{
name = bottom;
position = "{697, 0}";
},
{
name = top;
position = "{697, 0}";
}
);
layerId = "680DE9A7-CE01-463E-86B9-683CD586B94D";
name = "Bold Condensed";
paths = (
{
closed = 1;
nodes = (
"526 1591 OFFCURVE",
"295 1452 OFFCURVE",
"295 1187 CURVE SMOOTH",
"295 978 OFFCURVE",
"425 864 OFFCURVE",
"568 788 CURVE SMOOTH",
"834 646 LINE SMOOTH",
"1021 546 OFFCURVE",
"1082 468 OFFCURVE",
"1082 330 CURVE SMOOTH",
"1082 172 OFFCURVE",
"967 65 OFFCURVE",
"772 65 CURVE SMOOTH",
"476 65 OFFCURVE",
"407 300 OFFCURVE",
"359 467 CURVE",
"325 467 LINE",
"313 82 LINE",
"347 58 OFFCURVE",
"518 -30 OFFCURVE",
"774 -30 CURVE SMOOTH",
"1085 -30 OFFCURVE",
"1304 124 OFFCURVE",
"1304 423 CURVE SMOOTH",
"1304 607 OFFCURVE",
"1194 736 OFFCURVE",
"1000 840 CURVE SMOOTH",
"694 1004 LINE SMOOTH",
"615 1046 OFFCURVE",
"510 1116 OFFCURVE",
"510 1245 CURVE SMOOTH",
"510 1416 OFFCURVE",
"606 1498 OFFCURVE",
"778 1498 CURVE SMOOTH",
"1059 1498 OFFCURVE",
"1114 1353 OFFCURVE",
"1183 1148 CURVE",
"1193 1150 OFFCURVE",
"1212 1154 OFFCURVE",
"1212 1157 CURVE SMOOTH",
"1212 1473 LINE",
"1122 1532 OFFCURVE",
"987 1591 OFFCURVE",
"802 1591 CURVE SMOOTH"
);
}
);
width = 1394;
}
);
unicode = 0053;
},
{
glyphname = T;
lastChange = "2012-12-26 13:06:26 -0800";
layers = (
{
anchors = (
{
name = bottom;
position = "{814, 0}";
},
{
name = center;
position = "{814, 789}";
},
{
name = top;
position = "{814, 1577}";
}
);
layerId = "680DE9A7-CE01-463E-86B9-683CD586B94D";
name = "Bold Condensed";
paths = (
{
closed = 1;
nodes = (
"174 1579 LINE SMOOTH",
"106 1579 OFFCURVE",
"92 1567 OFFCURVE",
"92 1544 CURVE SMOOTH",
"92 1526 OFFCURVE",
"94 1501 OFFCURVE",
"94 1470 CURVE SMOOTH",
"94 1353 OFFCURVE",
"86 1284 OFFCURVE",
"86 1239 CURVE SMOOTH",
"86 1231 OFFCURVE",
"108 1227 OFFCURVE",
"135 1227 CURVE SMOOTH",
"227 1227 OFFCURVE",
"243 1481 OFFCURVE",
"393 1481 CURVE SMOOTH",
"694 1481 LINE",
"694 256 LINE SMOOTH",
"694 98 OFFCURVE",
"461 143 OFFCURVE",
"461 96 CURVE SMOOTH",
"461 80 LINE SMOOTH",
"461 47 OFFCURVE",
"461 14 OFFCURVE",
"475 0 CURVE",
"1157 0 LINE",
"1167 14 OFFCURVE",
"1167 49 OFFCURVE",
"1167 82 CURVE SMOOTH",
"1167 96 LINE",
"1161 143 OFFCURVE",
"934 98 OFFCURVE",
"934 256 CURVE SMOOTH",
"934 1481 LINE",
"1235 1481 LINE SMOOTH",
"1385 1481 OFFCURVE",
"1401 1227 OFFCURVE",
"1493 1227 CURVE SMOOTH",
"1520 1227 OFFCURVE",
"1542 1231 OFFCURVE",
"1542 1239 CURVE SMOOTH",
"1542 1284 OFFCURVE",
"1534 1353 OFFCURVE",
"1534 1470 CURVE SMOOTH",
"1534 1501 OFFCURVE",
"1536 1526 OFFCURVE",
"1536 1544 CURVE SMOOTH",
"1536 1567 OFFCURVE",
"1522 1579 OFFCURVE",
"1454 1579 CURVE SMOOTH"
);
}
);
width = 1628;
}
);
unicode = 0054;
},
{
glyphname = Y;
lastChange = "2012-12-26 13:06:26 -0800";
layers = (
{
anchors = (
{
name = top;
position = "{807, 1577}";
}
);
layerId = "680DE9A7-CE01-463E-86B9-683CD586B94D";
name = "Bold Condensed";
paths = (
{
closed = 1;
nodes = (
"1465 1593 OFFCURVE",
"1434 1591 OFFCURVE",
"1432 1591 CURVE SMOOTH",
"1403 1591 OFFCURVE",
"1264 1587 OFFCURVE",
"1235 1585 CURVE",
"1221 1591 LINE",
"1004 1591 LINE SMOOTH",
"990 1591 OFFCURVE",
"989 1542 OFFCURVE",
"989 1528 CURVE SMOOTH",
"989 1520 OFFCURVE",
"987 1511 OFFCURVE",
"997 1507 CURVE SMOOTH",
"1036 1491 OFFCURVE",
"1081 1501 OFFCURVE",
"1122 1481 CURVE SMOOTH",
"1134 1475 OFFCURVE",
"1145 1452 OFFCURVE",
"1151 1444 CURVE SMOOTH",
"1165 1426 OFFCURVE",
"1174 1401 OFFCURVE",
"1174 1374 CURVE SMOOTH",
"1174 1372 OFFCURVE",
"1171 1362 OFFCURVE",
"1171 1360 CURVE SMOOTH",
"1167 1342 OFFCURVE",
"1132 1253 OFFCURVE",
"1122 1235 CURVE SMOOTH",
"1106 1200 OFFCURVE",
"1017 1043 OFFCURVE",
"997 1010 CURVE",
"985 1004 OFFCURVE",
"987 989 OFFCURVE",
"975 981 CURVE",
"891 836 LINE",
"889 828 OFFCURVE",
"882 821 OFFCURVE",
"874 821 CURVE SMOOTH",
"870 821 LINE",
"866 825 OFFCURVE",
"852 844 OFFCURVE",
"850 848 CURVE SMOOTH",
"842 856 LINE",
"729 1044 LINE",
"694 1064 OFFCURVE",
"703 1131 OFFCURVE",
"668 1151 CURVE",
"654 1178 OFFCURVE",
"587 1310 OFFCURVE",
"575 1339 CURVE SMOOTH",
"571 1347 OFFCURVE",
"563 1376 OFFCURVE",
"561 1382 CURVE",
"561 1407 LINE SMOOTH",
"561 1491 OFFCURVE",
"649 1497 OFFCURVE",
"717 1507 CURVE",
"723 1516 LINE",
"723 1579 LINE SMOOTH",
"723 1583 OFFCURVE",
"702 1591 OFFCURVE",
"702 1591 CURVE SMOOTH",
"141 1591 LINE",
"84 1585 LINE SMOOTH",
"78 1583 OFFCURVE",
"78 1567 OFFCURVE",
"78 1561 CURVE SMOOTH",
"78 1543 OFFCURVE",
"80 1517 OFFCURVE",
"98 1507 CURVE",
"110 1505 OFFCURVE",
"164 1491 OFFCURVE",
"176 1487 CURVE SMOOTH",
"217 1466 LINE SMOOTH",
"219 1466 OFFCURVE",
"223 1460 OFFCURVE",
"225 1458 CURVE SMOOTH",
"233 1448 OFFCURVE",
"258 1413 OFFCURVE",
"260 1409 CURVE SMOOTH",
"451 1087 LINE",
"461 1081 OFFCURVE",
"467 1057 OFFCURVE",
"471 1053 CURVE SMOOTH",
"524 967 OFFCURVE",
"584 881 OFFCURVE",
"633 793 CURVE SMOOTH",
"649 762 OFFCURVE",
"657 723 OFFCURVE",
"682 694 CURVE",
"684 671 OFFCURVE",
"694 564 OFFCURVE",
"694 541 CURVE",
"696 537 OFFCURVE",
"696 491 OFFCURVE",
"696 473 CURVE SMOOTH",
"696 416 OFFCURVE",
"694 364 OFFCURVE",
"688 309 CURVE SMOOTH",
"686 289 OFFCURVE",
"682 240 OFFCURVE",
"682 238 CURVE SMOOTH",
"674 220 OFFCURVE",
"639 160 OFFCURVE",
"633 154 CURVE SMOOTH",
"604 133 LINE",
"590 131 OFFCURVE",
"526 117 OFFCURVE",
"512 113 CURVE SMOOTH",
"494 107 OFFCURVE",
"477 101 OFFCURVE",
"477 78 CURVE SMOOTH",
"477 66 OFFCURVE",
"477 53 OFFCURVE",
"485 43 CURVE SMOOTH",
"489 35 OFFCURVE",
"504 20 OFFCURVE",
"506 20 CURVE SMOOTH",
"1130 20 LINE",
"1145 35 LINE",
"1145 57 LINE SMOOTH",
"1145 75 OFFCURVE",
"1148 101 OFFCURVE",
"1130 113 CURVE",
"1028 117 OFFCURVE",
"977 133 OFFCURVE",
"940 231 CURVE SMOOTH",
"938 237 OFFCURVE",
"934 256 OFFCURVE",
"934 260 CURVE SMOOTH",
"932 270 OFFCURVE",
"934 348 OFFCURVE",
"934 358 CURVE SMOOTH",
"934 366 OFFCURVE",
"928 434 OFFCURVE",
"926 442 CURVE SMOOTH",
"926 688 LINE",
"930 719 OFFCURVE",
"945 735 OFFCURVE",
"963 758 CURVE SMOOTH",
"971 768 OFFCURVE",
"965 772 OFFCURVE",
"975 778 CURVE",
"995 815 OFFCURVE",
"1093 981 OFFCURVE",
"1116 1018 CURVE SMOOTH",
"1143 1059 OFFCURVE",
"1173 1100 OFFCURVE",
"1200 1143 CURVE SMOOTH",
"1251 1229 OFFCURVE",
"1296 1327 OFFCURVE",
"1362 1403 CURVE SMOOTH",
"1372 1415 OFFCURVE",
"1405 1448 OFFCURVE",
"1411 1452 CURVE SMOOTH",
"1417 1456 OFFCURVE",
"1477 1485 OFFCURVE",
"1495 1493 CURVE SMOOTH",
"1497 1495 OFFCURVE",
"1520 1499 OFFCURVE",
"1522 1501 CURVE SMOOTH",
"1528 1503 OFFCURVE",
"1536 1507 OFFCURVE",
"1536 1507 CURVE",
"1536 1579 LINE SMOOTH",
"1536 1583 OFFCURVE",
"1516 1591 OFFCURVE",
"1516 1591 CURVE",
"1475 1593 LINE SMOOTH"
);
},
{
closed = 1;
nodes = (
"950 965 OFFCURVE",
"950 956 OFFCURVE",
"954 956 CURVE SMOOTH",
"958 956 OFFCURVE",
"958 965 OFFCURVE",
"954 965 CURVE SMOOTH"
);
}
);
width = 1613;
}
);
unicode = 0059;
},
{
glyphname = a;
lastChange = "2012-12-26 13:06:26 -0800";
layers = (
{
anchors = (
{
name = ogonek;
position = "{1004, 10}";
},
{
name = top;
position = "{592, 1059}";
}
);
layerId = "680DE9A7-CE01-463E-86B9-683CD586B94D";
name = "Bold Condensed";
paths = (
{
closed = 1;
nodes = (
"362 1059 OFFCURVE",
"167 964 OFFCURVE",
"167 812 CURVE SMOOTH",
"167 730 OFFCURVE",
"209 666 OFFCURVE",
"278 666 CURVE SMOOTH",
"333 666 OFFCURVE",
"381 708 OFFCURVE",
"381 755 CURVE SMOOTH",
"381 758 LINE SMOOTH",
"379 812 OFFCURVE",
"338 869 OFFCURVE",
"338 874 CURVE SMOOTH",
"338 945 OFFCURVE",
"418 986 OFFCURVE",
"526 986 CURVE SMOOTH",
"667 986 OFFCURVE",
"710 852 OFFCURVE",
"710 692 CURVE SMOOTH",
"710 629 LINE",
"473 539 LINE SMOOTH",
"273 463 OFFCURVE",
"154 383 OFFCURVE",
"154 228 CURVE SMOOTH",
"154 92 OFFCURVE",
"266 -18 OFFCURVE",
"406 -18 CURVE SMOOTH",
"547 -18 OFFCURVE",
"674 98 OFFCURVE",
"716 188 CURVE",
"730 108 OFFCURVE",
"770 -12 OFFCURVE",
"861 -12 CURVE SMOOTH",
"868 -12 LINE SMOOTH",
"961 -7 OFFCURVE",
"1004 82 OFFCURVE",
"1017 139 CURVE SMOOTH",
"1017 143 LINE SMOOTH",
"1017 157 OFFCURVE",
"1005 177 OFFCURVE",
"991 177 CURVE SMOOTH",
"986 177 OFFCURVE",
"981 175 OFFCURVE",
"976 170 CURVE SMOOTH",
"959 153 OFFCURVE",
"944 145 OFFCURVE",
"932 145 CURVE SMOOTH",
"899 145 OFFCURVE",
"884 198 OFFCURVE",
"884 250 CURVE SMOOTH",
"884 658 LINE SMOOTH",
"884 919 OFFCURVE",
"804 1059 OFFCURVE",
"540 1059 CURVE SMOOTH"
);
},
{
closed = 1;
nodes = (
"706 537 OFFCURVE",
"708 535 OFFCURVE",
"710 523 CURVE",
"710 272 LINE SMOOTH",
"710 248 OFFCURVE",
"703 243 OFFCURVE",
"699 238 CURVE SMOOTH",
"646 180 OFFCURVE",
"572 123 OFFCURVE",
"486 123 CURVE SMOOTH",
"430 123 OFFCURVE",
"351 163 OFFCURVE",
"351 256 CURVE SMOOTH",
"351 390 OFFCURVE",
"499 467 OFFCURVE",
"632 518 CURVE SMOOTH",
"632 518 OFFCURVE",
"682 537 OFFCURVE",
"700 537 CURVE SMOOTH"
);
}
);
width = 1079;
}
);
unicode = 0061;
},
{
glyphname = b;
lastChange = "2012-12-26 13:06:16 -0800";
layers = (
{
layerId = "680DE9A7-CE01-463E-86B9-683CD586B94D";
name = "Bold Condensed";
paths = (
{
closed = 1;
nodes = (
"567 1059 OFFCURVE",
"456 1013 OFFCURVE",
"353 902 CURVE",
"179 154 LINE",
"179 128 OFFCURVE",
"180 109 OFFCURVE",
"182 103 CURVE",
"297 39 OFFCURVE",
"405 -18 OFFCURVE",
"581 -18 CURVE SMOOTH",
"891 -18 OFFCURVE",
"1092 228 OFFCURVE",
"1092 568 CURVE SMOOTH",
"1092 866 OFFCURVE",
"926 1059 OFFCURVE",
"699 1059 CURVE SMOOTH"
);
},
{
closed = 1;
nodes = (
"333 1605 OFFCURVE",
"326 1603 OFFCURVE",
"318 1599 CURVE SMOOTH",
"303 1593 OFFCURVE",
"76 1505 OFFCURVE",
"24 1486 CURVE SMOOTH",
"11 1481 OFFCURVE",
"6 1473 OFFCURVE",
"6 1465 CURVE SMOOTH",
"6 1458 OFFCURVE",
"10 1451 OFFCURVE",
"17 1448 CURVE SMOOTH",
"179 1351 LINE",
"179 154 LINE",
"353 262 LINE",
"353 1572 LINE SMOOTH",
"353 1590 OFFCURVE",
"353 1605 OFFCURVE",
"339 1605 CURVE SMOOTH"
);
},
{
closed = 1;
nodes = (
"875 924 OFFCURVE",
"919 683 OFFCURVE",
"919 481 CURVE SMOOTH",
"919 273 OFFCURVE",
"798 82 OFFCURVE",
"605 82 CURVE SMOOTH",
"487 82 OFFCURVE",
"353 155 OFFCURVE",
"353 288 CURVE SMOOTH",
"353 800 LINE",
"401 880 OFFCURVE",
"552 924 OFFCURVE",
"619 924 CURVE SMOOTH"
);
}
);
width = 1193;
}
);
unicode = 0062;
},
{
glyphname = c;
lastChange = "2012-12-26 13:06:16 -0800";
layers = (
{
anchors = (
{
name = bottom;
position = "{502, 0}";
},
{
name = top;
position = "{502, 1059}";
}
);
layerId = "680DE9A7-CE01-463E-86B9-683CD586B94D";
name = "Bold Condensed";
paths = (
{
closed = 1;
nodes = (
"277 1059 OFFCURVE",
"82 830 OFFCURVE",
"82 536 CURVE SMOOTH",
"82 179 OFFCURVE",
"284 -18 OFFCURVE",
"545 -18 CURVE SMOOTH",
"722 -18 OFFCURVE",
"868 85 OFFCURVE",
"926 215 CURVE",
"926 219 OFFCURVE",
"927 222 OFFCURVE",
"927 225 CURVE SMOOTH",
"927 251 OFFCURVE",
"909 280 OFFCURVE",
"886 280 CURVE SMOOTH",
"848 280 OFFCURVE",
"783 146 OFFCURVE",
"604 146 CURVE SMOOTH",
"387 146 OFFCURVE",
"250 346 OFFCURVE",
"250 593 CURVE SMOOTH",
"250 792 OFFCURVE",
"328 977 OFFCURVE",
"530 977 CURVE SMOOTH",
"671 977 OFFCURVE",
"707 886 OFFCURVE",
"769 781 CURVE SMOOTH",
"781 761 OFFCURVE",
"800 751 OFFCURVE",
"824 751 CURVE SMOOTH",
"864 751 OFFCURVE",
"911 780 OFFCURVE",
"911 833 CURVE SMOOTH",
"911 990 OFFCURVE",
"699 1059 OFFCURVE",
"558 1059 CURVE SMOOTH"
);
}
);
width = 999;
}
);
unicode = 0063;
},
{
glyphname = d;
lastChange = "2012-12-26 13:06:26 -0800";
layers = (
{
anchors = (
{
name = center;
position = "{607, 530}";
}
);
layerId = "680DE9A7-CE01-463E-86B9-683CD586B94D";
name = "Bold Condensed";
paths = (
{
closed = 1;
nodes = (
"998 1605 OFFCURVE",
"991 1603 OFFCURVE",
"983 1599 CURVE SMOOTH",
"968 1593 OFFCURVE",
"741 1505 OFFCURVE",
"689 1486 CURVE SMOOTH",
"676 1481 OFFCURVE",
"671 1473 OFFCURVE",
"671 1465 CURVE SMOOTH",
"671 1458 OFFCURVE",
"675 1451 OFFCURVE",
"682 1448 CURVE SMOOTH",
"844 1351 LINE",
"844 989 LINE SMOOTH",
"844 985 OFFCURVE",
"839 980 OFFCURVE",
"827 987 CURVE SMOOTH",
"782 1013 OFFCURVE",
"692 1059 OFFCURVE",
"584 1059 CURVE SMOOTH",
"221 1059 OFFCURVE",
"81 740 OFFCURVE",
"81 519 CURVE SMOOTH",
"81 291 OFFCURVE",
"208 -18 OFFCURVE",
"541 -18 CURVE SMOOTH",
"682 -18 OFFCURVE",
"782 49 OFFCURVE",
"837 117 CURVE",
"839 117 OFFCURVE",
"842 116 OFFCURVE",
"843 116 CURVE",
"843 -11 LINE",
"843 -11 OFFCURVE",
"851 -21 OFFCURVE",
"855 -23 CURVE SMOOTH",
"855 -23 OFFCURVE",
"857 -25 OFFCURVE",
"859 -25 CURVE SMOOTH",
"884 -25 OFFCURVE",
"902 -9 OFFCURVE",
"927 -3 CURVE SMOOTH",
"1005 15 OFFCURVE",
"1088 19 OFFCURVE",
"1164 46 CURVE SMOOTH",
"1178 51 OFFCURVE",
"1179 72 OFFCURVE",
"1179 87 CURVE SMOOTH",
"1179 130 LINE SMOOTH",
"1178 135 OFFCURVE",
"1174 136 OFFCURVE",
"1170 136 CURVE SMOOTH",
"1164 136 LINE SMOOTH",
"1152 136 OFFCURVE",
"1139 130 OFFCURVE",
"1125 130 CURVE SMOOTH",
"1064 130 OFFCURVE",
"1020 168 OFFCURVE",
"1018 229 CURVE SMOOTH",
"1018 1574 LINE SMOOTH",
"1018 1590 OFFCURVE",
"1018 1605 OFFCURVE",
"1004 1605 CURVE SMOOTH"
);
},
{
closed = 1;
nodes = (
"729 965 OFFCURVE",
"844 872 OFFCURVE",
"844 781 CURVE SMOOTH",
"844 224 LINE",
"824 198 OFFCURVE",
"738 108 OFFCURVE",
"604 108 CURVE SMOOTH",
"403 108 OFFCURVE",
"262 294 OFFCURVE",
"262 553 CURVE SMOOTH",
"262 799 OFFCURVE",
"397 965 OFFCURVE",
"587 965 CURVE SMOOTH"
);
}
);
width = 1188;
}
);
unicode = 0064;
},
{
glyphname = e;
lastChange = "2012-12-26 13:06:26 -0800";
layers = (
{
anchors = (
{
name = bottom;
position = "{512, 0}";
},
{
name = ogonek;
position = "{886, 10}";
},
{
name = top;
position = "{512, 1059}";
}
);
layerId = "680DE9A7-CE01-463E-86B9-683CD586B94D";
name = "Bold Condensed";
paths = (
{
closed = 1;
nodes = (
"235 1059 OFFCURVE",
"82 797 OFFCURVE",
"82 538 CURVE SMOOTH",
"82 261 OFFCURVE",
"244 -23 OFFCURVE",
"548 -23 CURVE SMOOTH",
"745 -23 OFFCURVE",
"879 115 OFFCURVE",
"925 212 CURVE",
"929 222 OFFCURVE",
"931 231 OFFCURVE",
"931 239 CURVE SMOOTH",
"931 260 OFFCURVE",
"923 269 OFFCURVE",
"901 270 CURVE",
"897 270 LINE SMOOTH",
"859 270 OFFCURVE",
"793 140 OFFCURVE",
"602 140 CURVE SMOOTH",
"364 140 OFFCURVE",
"257 372 OFFCURVE",
"257 604 CURVE SMOOTH",
"257 639 LINE",
"777 639 LINE SMOOTH",
"827 639 OFFCURVE",
"908 649 OFFCURVE",
"916 657 CURVE SMOOTH",
"916 659 OFFCURVE",
"918 676 OFFCURVE",
"918 682 CURVE SMOOTH",
"918 688 OFFCURVE",
"916 711 OFFCURVE",
"916 715 CURVE SMOOTH",
"892 909 OFFCURVE",
"728 1059 OFFCURVE",
"526 1059 CURVE SMOOTH"
);
},
{
closed = 1;
nodes = (
"656 975 OFFCURVE",
"710 811 OFFCURVE",
"710 748 CURVE SMOOTH",
"710 731 OFFCURVE",
"705 721 OFFCURVE",
"694 721 CURVE SMOOTH",
"645 721 LINE SMOOTH",
"522 721 OFFCURVE",
"380 702 OFFCURVE",
"259 702 CURVE",
"270 827 OFFCURVE",
"365 975 OFFCURVE",
"506 975 CURVE SMOOTH"
);
}
);
width = 1016;
}
);
unicode = 0065;
},
{
glyphname = f;
lastChange = "2012-12-26 13:06:26 -0800";
layers = (
{
layerId = "680DE9A7-CE01-463E-86B9-683CD586B94D";
name = "Bold Condensed";
paths = (
{
closed = 1;
nodes = (
"403 1596 OFFCURVE",
"243 1334 OFFCURVE",
"243 1139 CURVE SMOOTH",
"243 1137 OFFCURVE",
"238 1073 OFFCURVE",
"223 1055 CURVE SMOOTH",
"190 1016 OFFCURVE",
"147 1012 OFFCURVE",
"90 1012 CURVE SMOOTH",
"73 1012 OFFCURVE",
"76 977 OFFCURVE",
"76 963 CURVE SMOOTH",
"76 949 OFFCURVE",
"76 932 OFFCURVE",
"90 922 CURVE",
"200 922 LINE SMOOTH",
"231 922 OFFCURVE",
"243 902 OFFCURVE",
"243 865 CURVE SMOOTH",
"243 262 LINE SMOOTH",
"243 166 OFFCURVE",
"230 134 OFFCURVE",
"99 70 CURVE SMOOTH",
"78 62 OFFCURVE",
"70 49 OFFCURVE",
"70 39 CURVE SMOOTH",
"70 18 OFFCURVE",
"83 0 OFFCURVE",
"99 0 CURVE SMOOTH",
"561 0 LINE SMOOTH",
"577 0 OFFCURVE",
"590 18 OFFCURVE",
"590 39 CURVE SMOOTH",
"590 49 OFFCURVE",
"582 62 OFFCURVE",
"561 70 CURVE SMOOTH",
"430 134 OFFCURVE",
"417 166 OFFCURVE",
"417 262 CURVE SMOOTH",
"417 922 LINE",
"602 922 LINE SMOOTH",
"622 922 OFFCURVE",
"631 949 OFFCURVE",
"631 976 CURVE SMOOTH",
"631 1005 OFFCURVE",
"621 1035 OFFCURVE",
"603 1035 CURVE SMOOTH",
"417 1035 LINE",
"417 1212 LINE SMOOTH",
"417 1354 OFFCURVE",
"460 1504 OFFCURVE",
"571 1504 CURVE SMOOTH",
"577 1504 OFFCURVE",
"596 1499 OFFCURVE",
"600 1497 CURVE SMOOTH",
"668 1460 OFFCURVE",
"720 1368 OFFCURVE",
"800 1368 CURVE SMOOTH",
"839 1368 OFFCURVE",
"881 1404 OFFCURVE",
"881 1437 CURVE SMOOTH",
"881 1453 OFFCURVE",
"882 1481 OFFCURVE",
"874 1497 CURVE SMOOTH",
"831 1579 OFFCURVE",
"748 1596 OFFCURVE",
"663 1596 CURVE SMOOTH"
);
}
);
width = 733;
}
);
unicode = 0066;
},
{
glyphname = g;
lastChange = "2012-12-26 13:06:26 -0800";
layers = (
{
anchors = (
{
name = top;
position = "{474, 1059}";
}
);
layerId = "680DE9A7-CE01-463E-86B9-683CD586B94D";
name = "Bold Condensed";
paths = (
{
closed = 1;
nodes = (
"192 1078 OFFCURVE",
"150 809 OFFCURVE",
"150 690 CURVE SMOOTH",
"150 462 OFFCURVE",
"330 383 OFFCURVE",
"330 383 CURVE",
"204 329 OFFCURVE",
"132 246 OFFCURVE",
"132 171 CURVE SMOOTH",
"132 122 OFFCURVE",
"160 37 OFFCURVE",
"284 -3 CURVE",
"154 -54 OFFCURVE",
"71 -137 OFFCURVE",
"71 -251 CURVE SMOOTH",
"71 -421 OFFCURVE",
"363 -464 OFFCURVE",
"493 -464 CURVE SMOOTH",
"799 -464 OFFCURVE",
"1052 -363 OFFCURVE",
"1052 -94 CURVE SMOOTH",
"1052 21 OFFCURVE",
"971 156 OFFCURVE",
"708 156 CURVE SMOOTH",
"457 156 LINE SMOOTH",
"386 156 OFFCURVE",
"324 176 OFFCURVE",
"324 233 CURVE SMOOTH",
"324 281 OFFCURVE",
"388 331 OFFCURVE",
"434 331 CURVE SMOOTH",
"469 331 OFFCURVE",
"493 321 OFFCURVE",
"536 321 CURVE SMOOTH",
"839 321 OFFCURVE",
"928 520 OFFCURVE",
"928 709 CURVE SMOOTH",
"928 795 OFFCURVE",
"897 873 OFFCURVE",
"897 874 CURVE SMOOTH",
"897 897 OFFCURVE",
"905 927 OFFCURVE",
"939 927 CURVE SMOOTH",
"1024 927 OFFCURVE",
"1049 833 OFFCURVE",
"1106 833 CURVE SMOOTH",
"1143 833 OFFCURVE",
"1188 860 OFFCURVE",
"1188 935 CURVE SMOOTH",
"1188 954 OFFCURVE",
"1168 1039 OFFCURVE",
"1051 1039 CURVE SMOOTH",
"998 1039 OFFCURVE",
"926 1007 OFFCURVE",
"858 941 CURVE",
"774 1038 OFFCURVE",
"668 1078 OFFCURVE",
"546 1078 CURVE SMOOTH"
);
},
{
closed = 1;
nodes = (
"744 -28 OFFCURVE",
"895 -49 OFFCURVE",
"895 -149 CURVE SMOOTH",
"895 -263 OFFCURVE",
"787 -337 OFFCURVE",
"548 -337 CURVE SMOOTH",
"316 -337 OFFCURVE",
"241 -275 OFFCURVE",
"241 -214 CURVE SMOOTH",
"241 -146 OFFCURVE",
"320 -28 OFFCURVE",
"387 -28 CURVE SMOOTH",
"737 -28 LINE SMOOTH"
);
},
{
closed = 1;
nodes = (
"696 971 OFFCURVE",
"741 832 OFFCURVE",
"745 706 CURVE SMOOTH",
"745 688 LINE SMOOTH",
"745 565 OFFCURVE",
"704 430 OFFCURVE",
"536 430 CURVE SMOOTH",
"474 430 OFFCURVE",
"333 468 OFFCURVE",
"333 708 CURVE SMOOTH",
"333 873 OFFCURVE",
"424 971 OFFCURVE",
"539 971 CURVE SMOOTH"
);
}
);
width = 1162;
}
);
unicode = 0067;
},
{
glyphname = h;
lastChange = "2012-12-26 13:06:16 -0800";
layers = (
{
anchors = (
{
name = bottom;
position = "{597, 0}";
},
{
name = center;
position = "{605, 530}";
},
{
name = top;
position = "{605, 1059}";
}
);
layerId = "680DE9A7-CE01-463E-86B9-683CD586B94D";
name = "Bold Condensed";
paths = (
{
closed = 1;
nodes = (
"373 1603 OFFCURVE",
"366 1601 OFFCURVE",
"358 1597 CURVE SMOOTH",
"343 1591 OFFCURVE",
"116 1503 OFFCURVE",
"64 1484 CURVE SMOOTH",
"51 1479 OFFCURVE",
"46 1471 OFFCURVE",
"46 1463 CURVE SMOOTH",
"46 1456 OFFCURVE",
"50 1449 OFFCURVE",
"57 1446 CURVE SMOOTH",
"219 1349 LINE",
"219 228 LINE SMOOTH",
"219 114 OFFCURVE",
"145 92 OFFCURVE",
"80 78 CURVE SMOOTH",
"61 74 OFFCURVE",
"49 69 OFFCURVE",
"49 29 CURVE SMOOTH",
"49 17 OFFCURVE",
"54 0 OFFCURVE",
"64 0 CURVE SMOOTH",
"548 0 LINE SMOOTH",
"559 0 OFFCURVE",
"573 22 OFFCURVE",
"573 43 CURVE SMOOTH",
"573 59 OFFCURVE",
"562 75 OFFCURVE",
"548 76 CURVE",
"394 99 OFFCURVE",
"393 139 OFFCURVE",
"393 228 CURVE SMOOTH",
"393 804 LINE",
"442 841 OFFCURVE",
"549 914 OFFCURVE",
"674 914 CURVE SMOOTH",
"778 914 OFFCURVE",
"838 836 OFFCURVE",
"838 709 CURVE SMOOTH",
"838 228 LINE SMOOTH",
"838 114 OFFCURVE",
"764 92 OFFCURVE",
"699 78 CURVE SMOOTH",
"680 74 OFFCURVE",
"668 69 OFFCURVE",
"668 29 CURVE SMOOTH",
"668 17 OFFCURVE",
"673 0 OFFCURVE",
"683 0 CURVE SMOOTH",
"1167 0 LINE SMOOTH",
"1178 0 OFFCURVE",
"1186 22 OFFCURVE",
"1186 43 CURVE SMOOTH",
"1186 59 OFFCURVE",
"1181 75 OFFCURVE",
"1167 76 CURVE",
"1013 99 OFFCURVE",
"1012 139 OFFCURVE",
"1012 228 CURVE SMOOTH",
"1012 719 LINE SMOOTH",
"1012 930 OFFCURVE",
"917 1059 OFFCURVE",
"740 1059 CURVE SMOOTH",
"551 1059 OFFCURVE",
"393 879 OFFCURVE",
"393 879 CURVE SMOOTH",
"393 1570 LINE SMOOTH",
"393 1588 OFFCURVE",
"393 1603 OFFCURVE",
"379 1603 CURVE SMOOTH"
);
}
);
width = 1210;
}
);
unicode = 0068;
},
{
glyphname = i;
lastChange = "2012-12-26 13:06:16 -0800";
layers = (
{
layerId = "680DE9A7-CE01-463E-86B9-683CD586B94D";
name = "Bold Condensed";
paths = (
{
closed = 1;
nodes = (
"373 1059 OFFCURVE",
"366 1057 OFFCURVE",
"358 1053 CURVE SMOOTH",
"343 1047 OFFCURVE",
"116 959 OFFCURVE",
"64 940 CURVE SMOOTH",
"51 935 OFFCURVE",
"46 927 OFFCURVE",
"46 919 CURVE SMOOTH",
"46 912 OFFCURVE",
"50 905 OFFCURVE",
"57 902 CURVE SMOOTH",
"219 805 LINE",
"219 262 LINE SMOOTH",
"219 166 OFFCURVE",
"206 134 OFFCURVE",
"75 70 CURVE SMOOTH",
"54 62 OFFCURVE",
"46 49 OFFCURVE",
"46 39 CURVE SMOOTH",
"46 18 OFFCURVE",
"59 0 OFFCURVE",
"75 0 CURVE SMOOTH",
"537 0 LINE SMOOTH",
"553 0 OFFCURVE",
"566 18 OFFCURVE",
"566 39 CURVE SMOOTH",
"566 49 OFFCURVE",
"558 62 OFFCURVE",
"537 70 CURVE SMOOTH",
"406 134 OFFCURVE",
"393 166 OFFCURVE",
"393 262 CURVE SMOOTH",
"393 1026 LINE SMOOTH",
"393 1044 OFFCURVE",
"393 1059 OFFCURVE",
"379 1059 CURVE SMOOTH"
);
},
{
closed = 1;
nodes = (
"201 1458 OFFCURVE",
"156 1405 OFFCURVE",
"156 1337 CURVE SMOOTH",
"156 1249 OFFCURVE",
"220 1206 OFFCURVE",
"281 1206 CURVE SMOOTH",
"342 1206 OFFCURVE",
"405 1249 OFFCURVE",
"405 1337 CURVE SMOOTH",
"405 1405 OFFCURVE",
"361 1458 OFFCURVE",
"281 1458 CURVE SMOOTH"
);
}
);
width = 645;
}
);
unicode = 0069;
},
{
glyphname = j;
lastChange = "2012-12-26 13:06:26 -0800";
layers = (
{
layerId = "680DE9A7-CE01-463E-86B9-683CD586B94D";
name = "Bold Condensed";
paths = (
{
closed = 1;
nodes = (
"586 1628 OFFCURVE",
"445 1536 OFFCURVE",
"285 1374 CURVE SMOOTH",
"281 1372 OFFCURVE",
"256 1341 OFFCURVE",
"250 1333 CURVE SMOOTH",
"246 1329 OFFCURVE",
"236 1315 OFFCURVE",
"236 1311 CURVE",
"234 1309 OFFCURVE",
"229 1292 OFFCURVE",
"227 1290 CURVE SMOOTH",
"225 1286 OFFCURVE",
"203 1259 OFFCURVE",
"201 1255 CURVE SMOOTH",
"197 1249 OFFCURVE",
"176 1214 OFFCURVE",
"172 1206 CURVE SMOOTH",
"170 1204 OFFCURVE",
"166 1188 OFFCURVE",
"166 1186 CURVE SMOOTH",
"137 1127 OFFCURVE",
"110 1073 OFFCURVE",
"94 1010 CURVE SMOOTH",
"94 981 LINE SMOOTH",
"92 958 OFFCURVE",
"84 945 OFFCURVE",
"80 920 CURVE SMOOTH",
"80 908 OFFCURVE",
"76 826 OFFCURVE",
"74 799 CURVE",
"74 764 LINE SMOOTH",
"74 760 OFFCURVE",
"80 715 OFFCURVE",
"80 709 CURVE SMOOTH",
"98 492 OFFCURVE",
"203 289 OFFCURVE",
"375 154 CURVE SMOOTH",
"385 146 OFFCURVE",
"464 96 OFFCURVE",
"487 84 CURVE SMOOTH",
"565 49 LINE SMOOTH",
"567 47 OFFCURVE",
"582 43 OFFCURVE",
"586 43 CURVE SMOOTH",
"619 35 OFFCURVE",
"703 14 OFFCURVE",
"705 14 CURVE SMOOTH",
"709 14 OFFCURVE",
"768 12 OFFCURVE",
"791 12 CURVE SMOOTH",
"986 12 OFFCURVE",
"1096 52 OFFCURVE",
"1260 154 CURVE SMOOTH",
"1270 162 OFFCURVE",
"1305 186 OFFCURVE",
"1309 188 CURVE SMOOTH",
"1428 297 OFFCURVE",
"1501 419 OFFCURVE",
"1540 575 CURVE SMOOTH",
"1540 590 LINE SMOOTH",
"1548 625 OFFCURVE",
"1567 682 OFFCURVE",
"1567 723 CURVE",
"1569 725 OFFCURVE",
"1569 790 OFFCURVE",
"1569 813 CURVE SMOOTH",
"1569 928 OFFCURVE",
"1555 1011 OFFCURVE",
"1518 1122 CURVE SMOOTH",
"1518 1126 OFFCURVE",
"1499 1167 OFFCURVE",
"1497 1171 CURVE",
"1497 1178 LINE",
"1442 1298 LINE",
"1438 1300 OFFCURVE",
"1423 1315 OFFCURVE",
"1421 1319 CURVE SMOOTH",
"1415 1325 OFFCURVE",
"1370 1389 OFFCURVE",
"1364 1397 CURVE SMOOTH",
"1309 1452 LINE SMOOTH",
"1307 1454 OFFCURVE",
"1288 1464 OFFCURVE",
"1286 1466 CURVE SMOOTH",
"1136 1583 OFFCURVE",
"1016 1628 OFFCURVE",
"815 1628 CURVE SMOOTH"
);
},
{
closed = 1;
nodes = (
"840 1544 OFFCURVE",
"904 1534 OFFCURVE",
"965 1501 CURVE SMOOTH",
"973 1497 OFFCURVE",
"1037 1456 OFFCURVE",
"1055 1444 CURVE SMOOTH",
"1063 1440 OFFCURVE",
"1081 1425 OFFCURVE",
"1083 1423 CURVE SMOOTH",
"1182 1305 LINE",
"1198 1264 OFFCURVE",
"1231 1235 OFFCURVE",
"1245 1192 CURVE SMOOTH",
"1298 1040 OFFCURVE",
"1323 885 OFFCURVE",
"1323 723 CURVE SMOOTH",
"1323 666 OFFCURVE",
"1310 610 OFFCURVE",
"1300 555 CURVE SMOOTH",
"1300 553 OFFCURVE",
"1302 534 OFFCURVE",
"1300 532 CURVE",
"1300 528 OFFCURVE",
"1282 483 OFFCURVE",
"1280 477 CURVE SMOOTH",
"1260 393 LINE SMOOTH",
"1256 383 OFFCURVE",
"1210 299 OFFCURVE",
"1196 274 CURVE SMOOTH",
"1188 258 OFFCURVE",
"1161 227 OFFCURVE",
"1147 217 CURVE SMOOTH",
"1127 201 OFFCURVE",
"1046 147 OFFCURVE",
"1034 139 CURVE SMOOTH",
"973 104 OFFCURVE",
"908 102 OFFCURVE",
"838 92 CURVE",
"831 92 LINE SMOOTH",
"823 92 OFFCURVE",
"762 98 OFFCURVE",
"754 98 CURVE SMOOTH",
"748 98 LINE SMOOTH",
"744 98 OFFCURVE",
"723 111 OFFCURVE",
"719 113 CURVE SMOOTH",
"717 113 OFFCURVE",
"694 111 OFFCURVE",
"690 113 CURVE SMOOTH",
"684 119 LINE",
"643 148 OFFCURVE",
"594 174 OFFCURVE",
"557 211 CURVE SMOOTH",
"389 379 OFFCURVE",
"326 623 OFFCURVE",
"326 856 CURVE SMOOTH",
"326 924 OFFCURVE",
"324 976 OFFCURVE",
"334 1044 CURVE SMOOTH",
"338 1075 OFFCURVE",
"379 1212 OFFCURVE",
"389 1241 CURVE SMOOTH",
"393 1251 OFFCURVE",
"449 1349 OFFCURVE",
"467 1382 CURVE SMOOTH",
"490 1421 OFFCURVE",
"532 1456 OFFCURVE",
"571 1481 CURVE SMOOTH",
"589 1491 OFFCURVE",
"654 1526 OFFCURVE",
"664 1530 CURVE SMOOTH",
"701 1544 OFFCURVE",
"733 1544 OFFCURVE",
"770 1544 CURVE SMOOTH"
);
},
{
closed = 1;
nodes = (
"547 1348 OFFCURVE",
"547 1339 OFFCURVE",
"551 1339 CURVE SMOOTH",
"555 1341 OFFCURVE",
"555 1346 OFFCURVE",
"551 1348 CURVE SMOOTH"
);
}
);
width = 1648;
}
);
unicode = 006A;
},
{
glyphname = k;
lastChange = "2012-12-26 13:06:26 -0800";
layers = (
{
anchors = (
{
name = bottom;
position = "{810, 0}";
}
);
layerId = "680DE9A7-CE01-463E-86B9-683CD586B94D";
name = "Bold Condensed";
paths = (
{
closed = 1;
nodes = (
"121 1599 LINE SMOOTH",
"107 1599 OFFCURVE",
"98 1583 OFFCURVE",
"98 1571 CURVE SMOOTH",
"84 1397 LINE SMOOTH",
"82 1366 OFFCURVE",
"78 1342 OFFCURVE",
"78 1311 CURVE SMOOTH",
"78 1270 LINE SMOOTH",
"78 1245 OFFCURVE",
"115 1247 OFFCURVE",
"129 1247 CURVE SMOOTH",
"176 1247 OFFCURVE",
"191 1308 OFFCURVE",
"211 1339 CURVE SMOOTH",
"268 1425 OFFCURVE",
"331 1505 OFFCURVE",
"442 1507 CURVE SMOOTH",
"452 1507 OFFCURVE",
"553 1509 OFFCURVE",
"588 1509 CURVE SMOOTH",
"615 1509 OFFCURVE",
"680 1507 OFFCURVE",
"682 1507 CURVE SMOOTH",
"688 1481 LINE",
"688 1339 LINE SMOOTH",
"688 1306 OFFCURVE",
"694 1037 OFFCURVE",
"694 1004 CURVE SMOOTH",
"696 932 OFFCURVE",
"696 598 OFFCURVE",
"694 526 CURVE",
"698 512 OFFCURVE",
"702 448 OFFCURVE",
"702 434 CURVE SMOOTH",
"702 420 OFFCURVE",
"690 297 OFFCURVE",
"688 281 CURVE",
"688 274 LINE",
"684 254 OFFCURVE",
"674 205 OFFCURVE",
"674 203 CURVE SMOOTH",
"647 133 OFFCURVE",
"558 113 OFFCURVE",
"492 119 CURVE",
"474 107 OFFCURVE",
"477 84 OFFCURVE",
"477 66 CURVE SMOOTH",
"477 43 LINE",
"485 35 LINE",
"698 37 OFFCURVE",
"907 29 OFFCURVE",
"1122 29 CURVE SMOOTH",
"1137 29 LINE SMOOTH",
"1141 29 OFFCURVE",
"1151 39 OFFCURVE",
"1151 43 CURVE SMOOTH",
"1151 98 LINE SMOOTH",
"1151 110 OFFCURVE",
"1122 119 OFFCURVE",
"1116 119 CURVE",
"1112 121 OFFCURVE",
"1083 125 OFFCURVE",
"1081 127 CURVE SMOOTH",
"1063 131 OFFCURVE",
"1014 145 OFFCURVE",
"1010 147 CURVE SMOOTH",
"969 188 LINE SMOOTH",
"963 196 OFFCURVE",
"948 215 OFFCURVE",
"948 217 CURVE SMOOTH",
"934 301 LINE",
"934 631 LINE SMOOTH",
"934 645 OFFCURVE",
"928 764 OFFCURVE",
"926 778 CURVE SMOOTH",
"926 821 LINE SMOOTH",
"928 844 OFFCURVE",
"934 1030 OFFCURVE",
"934 1053 CURVE SMOOTH",
"934 1501 LINE",
"948 1516 LINE",
"952 1516 OFFCURVE",
"1008 1518 OFFCURVE",
"1028 1518 CURVE SMOOTH",
"1057 1518 OFFCURVE",
"1143 1516 OFFCURVE",
"1151 1516 CURVE SMOOTH",
"1157 1516 OFFCURVE",
"1213 1505 OFFCURVE",
"1229 1501 CURVE SMOOTH",
"1249 1495 OFFCURVE",
"1297 1478 OFFCURVE",
"1313 1466 CURVE SMOOTH",
"1364 1425 OFFCURVE",
"1405 1354 OFFCURVE",
"1438 1305 CURVE SMOOTH",
"1458 1274 OFFCURVE",
"1464 1241 OFFCURVE",
"1509 1241 CURVE SMOOTH",
"1523 1241 OFFCURVE",
"1544 1248 OFFCURVE",
"1550 1262 CURVE SMOOTH",
"1550 1286 LINE SMOOTH",
"1550 1325 OFFCURVE",
"1546 1360 OFFCURVE",
"1536 1397 CURVE SMOOTH",
"1522 1452 OFFCURVE",
"1534 1520 OFFCURVE",
"1516 1579 CURVE SMOOTH",
"1514 1587 OFFCURVE",
"1491 1591 OFFCURVE",
"1487 1591 CURVE SMOOTH",
"1130 1591 LINE",
"1118 1593 OFFCURVE",
"1065 1597 OFFCURVE",
"1053 1599 CURVE"
);
},
{
closed = 1;
nodes = (
"545 1323 OFFCURVE",
"545 1315 OFFCURVE",
"547 1315 CURVE SMOOTH",
"551 1315 OFFCURVE",
"551 1323 OFFCURVE",
"547 1323 CURVE SMOOTH"
);
}
);
width = 1619;
}
);
unicode = 006B;
},
{
glyphname = l;
lastChange = "2012-12-26 13:06:16 -0800";
layers = (
{
anchors = (
{
name = bottom;
position = "{308, 0}";
},
{
name = top;
position = "{308, 0}";
},
{
name = topright;
position = "{595, 0}";
}
);
layerId = "680DE9A7-CE01-463E-86B9-683CD586B94D";
name = "Bold Condensed";
paths = (
{
closed = 1;
nodes = (
"373 1605 OFFCURVE",
"366 1603 OFFCURVE",
"358 1599 CURVE SMOOTH",
"343 1593 OFFCURVE",
"116 1505 OFFCURVE",
"64 1486 CURVE SMOOTH",
"51 1481 OFFCURVE",
"46 1473 OFFCURVE",
"46 1465 CURVE SMOOTH",
"46 1458 OFFCURVE",
"50 1451 OFFCURVE",
"57 1448 CURVE SMOOTH",
"219 1351 LINE",
"219 262 LINE SMOOTH",
"219 166 OFFCURVE",
"198 134 OFFCURVE",
"67 70 CURVE SMOOTH",
"46 62 OFFCURVE",
"38 49 OFFCURVE",
"38 39 CURVE SMOOTH",
"38 18 OFFCURVE",
"51 0 OFFCURVE",
"67 0 CURVE SMOOTH",
"546 0 LINE SMOOTH",
"562 0 OFFCURVE",
"575 18 OFFCURVE",
"575 39 CURVE SMOOTH",
"575 49 OFFCURVE",
"567 62 OFFCURVE",
"546 70 CURVE SMOOTH",
"415 134 OFFCURVE",
"393 166 OFFCURVE",
"393 262 CURVE SMOOTH",
"393 1572 LINE SMOOTH",
"393 1590 OFFCURVE",
"393 1605 OFFCURVE",
"379 1605 CURVE SMOOTH"
);
}
);
width = 615;
}
);
unicode = 006C;
},
{
glyphname = m;
lastChange = "2012-12-26 13:06:16 -0800";
layers = (
{
layerId = "680DE9A7-CE01-463E-86B9-683CD586B94D";
name = "Bold Condensed";
paths = (
{
closed = 1;
nodes = (
"1176 1059 OFFCURVE",
"1028 917 OFFCURVE",
"998 885 CURVE",
"959 996 OFFCURVE",
"875 1059 OFFCURVE",
"751 1059 CURVE SMOOTH",
"562 1059 OFFCURVE",
"412 879 OFFCURVE",
"412 879 CURVE SMOOTH",
"412 1026 LINE SMOOTH",
"412 1044 OFFCURVE",
"412 1059 OFFCURVE",
"398 1059 CURVE SMOOTH",
"392 1059 OFFCURVE",
"385 1057 OFFCURVE",
"377 1053 CURVE SMOOTH",
"362 1047 OFFCURVE",
"135 959 OFFCURVE",
"83 940 CURVE SMOOTH",
"70 935 OFFCURVE",
"65 927 OFFCURVE",
"65 919 CURVE SMOOTH",
"65 912 OFFCURVE",
"69 905 OFFCURVE",
"76 902 CURVE SMOOTH",
"238 805 LINE",
"238 262 LINE SMOOTH",
"238 166 OFFCURVE",
"225 134 OFFCURVE",
"94 70 CURVE SMOOTH",
"73 62 OFFCURVE",
"65 49 OFFCURVE",
"65 39 CURVE SMOOTH",
"65 18 OFFCURVE",
"78 0 OFFCURVE",
"94 0 CURVE SMOOTH",
"556 0 LINE SMOOTH",
"572 0 OFFCURVE",
"585 18 OFFCURVE",
"585 39 CURVE SMOOTH",
"585 49 OFFCURVE",
"577 62 OFFCURVE",
"556 70 CURVE SMOOTH",
"425 134 OFFCURVE",
"412 166 OFFCURVE",
"412 262 CURVE SMOOTH",
"412 804 LINE",
"461 841 OFFCURVE",
"560 914 OFFCURVE",
"685 914 CURVE SMOOTH",
"789 914 OFFCURVE",
"849 836 OFFCURVE",
"849 709 CURVE SMOOTH",
"849 262 LINE SMOOTH",
"849 166 OFFCURVE",
"836 134 OFFCURVE",
"705 70 CURVE SMOOTH",
"684 62 OFFCURVE",
"676 49 OFFCURVE",
"676 39 CURVE SMOOTH",
"676 18 OFFCURVE",
"689 0 OFFCURVE",
"705 0 CURVE SMOOTH",
"1167 0 LINE SMOOTH",
"1183 0 OFFCURVE",
"1196 18 OFFCURVE",
"1196 39 CURVE SMOOTH",
"1196 49 OFFCURVE",
"1188 62 OFFCURVE",
"1167 70 CURVE SMOOTH",
"1036 134 OFFCURVE",
"1023 166 OFFCURVE",
"1023 262 CURVE SMOOTH",
"1023 719 LINE SMOOTH",
"1023 752 OFFCURVE",
"1021 782 OFFCURVE",
"1016 811 CURVE",
"1065 849 OFFCURVE",
"1160 914 OFFCURVE",
"1278 914 CURVE SMOOTH",
"1382 914 OFFCURVE",
"1442 836 OFFCURVE",
"1442 709 CURVE SMOOTH",
"1442 262 LINE SMOOTH",
"1442 166 OFFCURVE",
"1429 134 OFFCURVE",
"1298 70 CURVE SMOOTH",
"1277 62 OFFCURVE",
"1269 49 OFFCURVE",
"1269 39 CURVE SMOOTH",
"1269 18 OFFCURVE",
"1282 0 OFFCURVE",
"1298 0 CURVE SMOOTH",
"1760 0 LINE SMOOTH",
"1776 0 OFFCURVE",
"1789 18 OFFCURVE",
"1789 39 CURVE SMOOTH",
"1789 49 OFFCURVE",
"1781 62 OFFCURVE",
"1760 70 CURVE SMOOTH",
"1629 134 OFFCURVE",
"1616 166 OFFCURVE",
"1616 262 CURVE SMOOTH",
"1616 719 LINE SMOOTH",
"1616 930 OFFCURVE",
"1521 1059 OFFCURVE",
"1344 1059 CURVE SMOOTH"
);
}
);
width = 1832;
}
);
unicode = 006D;
},
{
glyphname = n;
lastChange = "2013-03-01 06:59:28 -0800";
layers = (
{
anchors = (
{
name = bottom;
position = "{624, 0}";
},
{
name = top;
position = "{624, 0}";
}
);
layerId = "680DE9A7-CE01-463E-86B9-683CD586B94D";
name = "Bold Condensed";
paths = (
{
closed = 1;
nodes = (
"571 1059 OFFCURVE",
"412 864 OFFCURVE",
"412 864 CURVE",
"412 1033 LINE SMOOTH",
"412 1048 OFFCURVE",
"411 1059 OFFCURVE",
"399 1059 CURVE SMOOTH",
"393 1059 OFFCURVE",
"386 1057 OFFCURVE",
"378 1053 CURVE SMOOTH",
"363 1047 OFFCURVE",
"113 958 OFFCURVE",
"61 939 CURVE",
"61 905 LINE",
"238 798 LINE",
"238 269 LINE SMOOTH",
"238 158 OFFCURVE",
"206 101 OFFCURVE",
"65 46 CURVE SMOOTH",
"63 45 OFFCURVE",
"65 0 OFFCURVE",
"65 0 CURVE SMOOTH",
"576 0 LINE SMOOTH",
"575 0 OFFCURVE",
"575 43 OFFCURVE",
"576 43 CURVE",
"433 103 OFFCURVE",
"412 154 OFFCURVE",
"412 270 CURVE SMOOTH",
"412 804 LINE",
"461 841 OFFCURVE",
"569 914 OFFCURVE",
"694 914 CURVE SMOOTH",
"798 914 OFFCURVE",
"858 836 OFFCURVE",
"858 709 CURVE SMOOTH",
"858 269 LINE SMOOTH",
"858 158 OFFCURVE",
"826 101 OFFCURVE",
"685 46 CURVE SMOOTH",
"683 45 OFFCURVE",
"685 0 OFFCURVE",
"685 0 CURVE SMOOTH",
"1196 0 LINE SMOOTH",
"1195 0 OFFCURVE",
"1195 43 OFFCURVE",
"1196 43 CURVE",
"1053 103 OFFCURVE",
"1032 154 OFFCURVE",
"1032 270 CURVE SMOOTH",
"1032 719 LINE SMOOTH",
"1032 930 OFFCURVE",
"937 1059 OFFCURVE",
"760 1059 CURVE SMOOTH"
);
}
);
width = 1248;
}
);
unicode = 006E;
},
{
glyphname = o;
lastChange = "2012-12-26 13:06:16 -0800";
layers = (
{
anchors = (
{
name = top;
position = "{566, 1059}";
}
);
layerId = "680DE9A7-CE01-463E-86B9-683CD586B94D";
name = "Bold Condensed";
paths = (
{
closed = 1;
nodes = (
"273 1059 OFFCURVE",
"82 837 OFFCURVE",
"82 552 CURVE SMOOTH",
"82 237 OFFCURVE",
"264 -18 OFFCURVE",
"579 -18 CURVE SMOOTH",
"876 -18 OFFCURVE",
"1055 223 OFFCURVE",
"1055 519 CURVE SMOOTH",
"1055 822 OFFCURVE",
"852 1059 OFFCURVE",
"576 1059 CURVE SMOOTH"
);
},
{
closed = 1;
nodes = (
"737 969 OFFCURVE",
"845 790 OFFCURVE",
"845 494 CURVE SMOOTH",
"845 280 OFFCURVE",
"789 72 OFFCURVE",
"577 72 CURVE SMOOTH",
"375 72 OFFCURVE",
"294 314 OFFCURVE",
"294 538 CURVE SMOOTH",
"294 758 OFFCURVE",
"361 969 OFFCURVE",
"568 969 CURVE SMOOTH"
);
}
);
width = 1139;
}
);
unicode = 006F;
},
{
glyphname = p;
lastChange = "2012-12-26 13:06:16 -0800";
layers = (
{
anchors = (
{
name = bottom;
position = "{572, 0}";
},
{
name = top;
position = "{572, 1059}";
}
);
layerId = "680DE9A7-CE01-463E-86B9-683CD586B94D";
name = "Bold Condensed";
paths = (
{
closed = 1;
nodes = (
"590 1060 OFFCURVE",
"428 992 OFFCURVE",
"368 881 CURVE",
"368 1026 LINE SMOOTH",
"368 1044 OFFCURVE",
"368 1059 OFFCURVE",
"354 1059 CURVE SMOOTH",
"348 1059 OFFCURVE",
"341 1057 OFFCURVE",
"333 1053 CURVE SMOOTH",
"318 1047 OFFCURVE",
"91 959 OFFCURVE",
"39 940 CURVE SMOOTH",
"26 935 OFFCURVE",
"21 927 OFFCURVE",
"21 919 CURVE SMOOTH",
"21 912 OFFCURVE",
"25 905 OFFCURVE",
"32 902 CURVE SMOOTH",
"194 805 LINE",
"194 -115 LINE SMOOTH",
"194 -211 OFFCURVE",
"181 -243 OFFCURVE",
"50 -307 CURVE SMOOTH",
"29 -315 OFFCURVE",
"21 -328 OFFCURVE",
"21 -338 CURVE SMOOTH",
"21 -359 OFFCURVE",
"34 -377 OFFCURVE",
"50 -377 CURVE SMOOTH",
"512 -377 LINE SMOOTH",
"528 -377 OFFCURVE",
"541 -359 OFFCURVE",
"541 -338 CURVE SMOOTH",
"541 -328 OFFCURVE",
"533 -315 OFFCURVE",
"512 -307 CURVE SMOOTH",
"381 -243 OFFCURVE",
"368 -211 OFFCURVE",
"368 -115 CURVE SMOOTH",
"368 81 LINE",
"401 40 OFFCURVE",
"492 -15 OFFCURVE",
"625 -15 CURVE SMOOTH",
"836 -15 OFFCURVE",
"1085 145 OFFCURVE",
"1085 528 CURVE SMOOTH",
"1085 824 OFFCURVE",
"949 1060 OFFCURVE",
"687 1060 CURVE SMOOTH"
);
},
{
closed = 1;
nodes = (
"915 897 OFFCURVE",
"922 536 OFFCURVE",
"922 470 CURVE SMOOTH",
"922 287 OFFCURVE",
"839 76 OFFCURVE",
"634 76 CURVE SMOOTH",
"469 76 OFFCURVE",
"368 164 OFFCURVE",
"368 430 CURVE SMOOTH",
"368 786 LINE SMOOTH",
"368 828 OFFCURVE",
"508 897 OFFCURVE",
"603 897 CURVE SMOOTH"
);
}
);
width = 1174;
}
);
unicode = 0070;
},
{
glyphname = q;
lastChange = "2012-12-26 13:06:26 -0800";
layers = (
{
layerId = "680DE9A7-CE01-463E-86B9-683CD586B94D";
name = "Bold Condensed";
paths = (
{
closed = 1;
nodes = (
"299 1446 OFFCURVE",
"235 1425 OFFCURVE",
"178 1374 CURVE SMOOTH",
"166 1364 OFFCURVE",
"133 1331 OFFCURVE",
"129 1325 CURVE SMOOTH",
"100 1284 OFFCURVE",
"80 1227 OFFCURVE",
"80 1176 CURVE SMOOTH",
"80 1129 OFFCURVE",
"104 1051 OFFCURVE",
"135 1018 CURVE SMOOTH",
"162 989 OFFCURVE",
"196 949 OFFCURVE",
"233 926 CURVE",
"258 914 OFFCURVE",
"364 854 OFFCURVE",
"389 842 CURVE SMOOTH",
"389 840 OFFCURVE",
"393 836 OFFCURVE",
"395 836 CURVE SMOOTH",
"401 830 OFFCURVE",
"441 805 OFFCURVE",
"453 799 CURVE SMOOTH",
"455 799 OFFCURVE",
"463 795 OFFCURVE",
"465 793 CURVE SMOOTH",
"479 781 OFFCURVE",
"543 721 OFFCURVE",
"557 709 CURVE SMOOTH",
"584 682 OFFCURVE",
"586 643 OFFCURVE",
"586 608 CURVE SMOOTH",
"586 553 OFFCURVE",
"534 471 OFFCURVE",
"479 457 CURVE SMOOTH",
"477 455 OFFCURVE",
"461 457 OFFCURVE",
"459 457 CURVE SMOOTH",
"455 455 OFFCURVE",
"428 449 OFFCURVE",
"424 449 CURVE SMOOTH",
"367 449 LINE SMOOTH",
"357 453 OFFCURVE",
"311 471 OFFCURVE",
"305 477 CURVE SMOOTH",
"293 485 OFFCURVE",
"239 541 OFFCURVE",
"227 555 CURVE SMOOTH",
"219 563 OFFCURVE",
"197 606 OFFCURVE",
"193 616 CURVE SMOOTH",
"187 634 OFFCURVE",
"166 719 OFFCURVE",
"164 737 CURVE",
"160 747 OFFCURVE",
"133 750 OFFCURVE",
"129 750 CURVE SMOOTH",
"102 750 OFFCURVE",
"78 738 OFFCURVE",
"80 709 CURVE SMOOTH",
"94 492 LINE SMOOTH",
"94 476 OFFCURVE",
"125 455 OFFCURVE",
"135 449 CURVE SMOOTH",
"211 412 OFFCURVE",
"291 371 OFFCURVE",
"377 371 CURVE SMOOTH",
"471 371 OFFCURVE",
"585 401 OFFCURVE",
"655 469 CURVE SMOOTH",
"680 496 OFFCURVE",
"703 536 OFFCURVE",
"719 567 CURVE",
"717 569 OFFCURVE",
"717 573 OFFCURVE",
"719 575 CURVE",
"719 581 OFFCURVE",
"731 625 OFFCURVE",
"731 631 CURVE",
"733 633 OFFCURVE",
"733 668 OFFCURVE",
"733 680 CURVE SMOOTH",
"733 776 OFFCURVE",
"684 875 OFFCURVE",
"598 926 CURVE SMOOTH",
"340 1079 LINE",
"332 1089 OFFCURVE",
"309 1104 OFFCURVE",
"305 1108 CURVE SMOOTH",
"274 1135 OFFCURVE",
"240 1176 OFFCURVE",
"240 1217 CURVE SMOOTH",
"240 1315 OFFCURVE",
"312 1368 OFFCURVE",
"406 1368 CURVE SMOOTH",
"484 1368 OFFCURVE",
"532 1304 OFFCURVE",
"571 1249 CURVE SMOOTH",
"571 1247 OFFCURVE",
"578 1237 OFFCURVE",
"578 1235 CURVE SMOOTH",
"582 1225 OFFCURVE",
"610 1147 OFFCURVE",
"612 1137 CURVE SMOOTH",
"614 1133 OFFCURVE",
"619 1122 OFFCURVE",
"621 1122 CURVE SMOOTH",
"623 1120 OFFCURVE",
"643 1116 OFFCURVE",
"647 1116 CURVE SMOOTH",
"674 1116 OFFCURVE",
"682 1134 OFFCURVE",
"684 1157 CURVE SMOOTH",
"684 1169 OFFCURVE",
"682 1272 OFFCURVE",
"684 1284 CURVE SMOOTH",
"684 1288 OFFCURVE",
"690 1333 OFFCURVE",
"690 1339 CURVE SMOOTH",
"690 1370 OFFCURVE",
"606 1401 OFFCURVE",
"586 1409 CURVE SMOOTH",
"578 1413 OFFCURVE",
"549 1423 OFFCURVE",
"543 1423 CURVE SMOOTH",
"528 1423 LINE SMOOTH",
"524 1425 OFFCURVE",
"491 1438 OFFCURVE",
"487 1438 CURVE SMOOTH",
"448 1444 OFFCURVE",
"412 1446 OFFCURVE",
"373 1446 CURVE SMOOTH"
);
}
);
width = 813;
}
);
unicode = 0071;
},
{
glyphname = r;
lastChange = "2012-12-26 13:06:16 -0800";
layers = (
{
anchors = (
{
name = bottom;
position = "{475, 0}";
},
{
name = top;
position = "{475, 1059}";
}
);
layerId = "680DE9A7-CE01-463E-86B9-683CD586B94D";
name = "Bold Condensed";
paths = (
{
closed = 1;
nodes = (
"556 1060 OFFCURVE",
"471 924 OFFCURVE",
"412 790 CURVE",
"412 1026 LINE SMOOTH",
"412 1044 OFFCURVE",
"412 1059 OFFCURVE",
"398 1059 CURVE SMOOTH",
"392 1059 OFFCURVE",
"385 1057 OFFCURVE",
"377 1053 CURVE SMOOTH",
"362 1047 OFFCURVE",
"135 959 OFFCURVE",
"83 940 CURVE SMOOTH",
"70 935 OFFCURVE",
"65 927 OFFCURVE",
"65 919 CURVE SMOOTH",
"65 912 OFFCURVE",
"69 905 OFFCURVE",
"76 902 CURVE SMOOTH",
"238 805 LINE",
"238 262 LINE SMOOTH",
"238 166 OFFCURVE",
"225 134 OFFCURVE",
"94 70 CURVE SMOOTH",
"73 62 OFFCURVE",
"65 49 OFFCURVE",
"65 39 CURVE SMOOTH",
"65 18 OFFCURVE",
"78 0 OFFCURVE",
"94 0 CURVE SMOOTH",
"556 0 LINE SMOOTH",
"572 0 OFFCURVE",
"585 18 OFFCURVE",
"585 39 CURVE SMOOTH",
"585 49 OFFCURVE",
"577 62 OFFCURVE",
"556 70 CURVE SMOOTH",
"425 134 OFFCURVE",
"412 166 OFFCURVE",
"412 262 CURVE SMOOTH",
"412 694 LINE",
"451 788 OFFCURVE",
"531 878 OFFCURVE",
"601 878 CURVE SMOOTH",
"631 878 OFFCURVE",
"647 876 OFFCURVE",
"682 823 CURVE SMOOTH",
"695 804 OFFCURVE",
"714 795 OFFCURVE",
"733 795 CURVE SMOOTH",
"783 795 OFFCURVE",
"839 849 OFFCURVE",
"839 909 CURVE SMOOTH",
"839 1014 OFFCURVE",
"740 1060 OFFCURVE",
"679 1060 CURVE SMOOTH"
);
}
);
width = 841;
}
);
unicode = 0072;
},
{
glyphname = s;
lastChange = "2012-12-26 13:06:16 -0800";
layers = (
{
anchors = (
{
name = bottom;
position = "{407, 0}";
},
{
name = top;
position = "{407, 1059}";
}
);
layerId = "680DE9A7-CE01-463E-86B9-683CD586B94D";
name = "Bold Condensed";
paths = (
{
closed = 1;
nodes = (
"205 1048 OFFCURVE",
"80 925 OFFCURVE",
"80 788 CURVE SMOOTH",
"80 688 OFFCURVE",
"169 580 OFFCURVE",
"252 538 CURVE",
"437 421 LINE SMOOTH",
"519 370 OFFCURVE",
"586 317 OFFCURVE",
"586 220 CURVE SMOOTH",
"586 165 OFFCURVE",
"534 83 OFFCURVE",
"479 69 CURVE SMOOTH",
"478 68 OFFCURVE",
"476 68 OFFCURVE",
"473 68 CURVE SMOOTH",
"468 68 OFFCURVE",
"460 69 OFFCURVE",
"459 69 CURVE SMOOTH",
"455 67 OFFCURVE",
"428 61 OFFCURVE",
"424 61 CURVE SMOOTH",
"367 61 LINE SMOOTH",
"357 65 OFFCURVE",
"311 83 OFFCURVE",
"305 89 CURVE SMOOTH",
"293 97 OFFCURVE",
"239 153 OFFCURVE",
"227 167 CURVE SMOOTH",
"219 175 OFFCURVE",
"197 218 OFFCURVE",
"193 228 CURVE SMOOTH",
"187 246 OFFCURVE",
"166 331 OFFCURVE",
"164 349 CURVE",
"160 359 OFFCURVE",
"133 362 OFFCURVE",
"129 362 CURVE SMOOTH",
"102 362 OFFCURVE",
"78 350 OFFCURVE",
"80 321 CURVE SMOOTH",
"94 104 LINE SMOOTH",
"94 65 OFFCURVE",
"250 -17 OFFCURVE",
"377 -17 CURVE SMOOTH",
"720 -17 OFFCURVE",
"733 207 OFFCURVE",
"733 292 CURVE SMOOTH",
"733 388 OFFCURVE",
"684 487 OFFCURVE",
"598 538 CURVE SMOOTH",
"340 691 LINE SMOOTH",
"294 718 OFFCURVE",
"240 761 OFFCURVE",
"240 829 CURVE SMOOTH",
"240 927 OFFCURVE",
"312 983 OFFCURVE",
"406 980 CURVE SMOOTH",
"540 976 OFFCURVE",
"598 818 OFFCURVE",
"612 749 CURVE SMOOTH",
"614 745 OFFCURVE",
"619 734 OFFCURVE",
"621 734 CURVE SMOOTH",
"623 732 OFFCURVE",
"643 728 OFFCURVE",
"647 728 CURVE SMOOTH",
"674 728 OFFCURVE",
"682 746 OFFCURVE",
"684 769 CURVE SMOOTH",
"684 777 OFFCURVE",
"683 825 OFFCURVE",
"683 860 CURVE SMOOTH",
"683 878 OFFCURVE",
"683 892 OFFCURVE",
"684 896 CURVE SMOOTH",
"684 900 OFFCURVE",
"690 945 OFFCURVE",
"690 951 CURVE SMOOTH",
"690 1011 OFFCURVE",
"542 1068 OFFCURVE",
"373 1058 CURVE SMOOTH"
);
}
);
width = 813;
}
);
unicode = 0073;
},
{
glyphname = t;
lastChange = "2012-12-26 13:06:22 -0800";
layers = (
{
anchors = (
{
name = bottom;
position = "{323, 0}";
},
{
name = center;
position = "{323, 530}";
}
);
layerId = "680DE9A7-CE01-463E-86B9-683CD586B94D";
name = "Bold Condensed";
paths = (
{
closed = 1;
nodes = (
"338 1235 OFFCURVE",
"324 1228 OFFCURVE",
"305 1210 CURVE SMOOTH",
"154 1064 LINE SMOOTH",
"83 1003 OFFCURVE",
"52 988 OFFCURVE",
"52 957 CURVE SMOOTH",
"52 922 OFFCURVE",
"76 922 OFFCURVE",
"99 922 CURVE SMOOTH",
"186 922 LINE",
"186 314 LINE SMOOTH",
"186 117 OFFCURVE",
"197 -16 OFFCURVE",
"412 -16 CURVE SMOOTH",
"520 -16 OFFCURVE",
"616 34 OFFCURVE",
"616 90 CURVE SMOOTH",
"616 109 OFFCURVE",
"608 123 OFFCURVE",
"588 123 CURVE SMOOTH",
"586 123 LINE",
"553 117 OFFCURVE",
"525 114 OFFCURVE",
"502 114 CURVE SMOOTH",
"392 114 OFFCURVE",
"377 179 OFFCURVE",
"377 340 CURVE SMOOTH",
"377 922 LINE",
"483 922 LINE SMOOTH",
"561 922 OFFCURVE",
"586 926 OFFCURVE",
"586 965 CURVE SMOOTH",
"586 1021 OFFCURVE",
"558 1027 OFFCURVE",
"518 1027 CURVE SMOOTH",
"377 1026 LINE",
"377 1160 LINE SMOOTH",
"377 1197 OFFCURVE",
"373 1235 OFFCURVE",
"349 1235 CURVE SMOOTH"
);
}
);
width = 645;
}
);
unicode = 0074;
},
{
glyphname = u;
lastChange = "2012-12-26 13:06:26 -0800";
layers = (
{
anchors = (
{
name = ogonek;
position = "{1091, 10}";
},
{
name = top;
position = "{597, 1059}";
}
);
layerId = "680DE9A7-CE01-463E-86B9-683CD586B94D";
name = "Bold Condensed";
paths = (
{
closed = 1;
nodes = (
"951 1063 OFFCURVE",
"812 1044 OFFCURVE",
"686 1032 CURVE",
"672 1032 LINE SMOOTH",
"652 1032 OFFCURVE",
"645 1016 OFFCURVE",
"645 998 CURVE SMOOTH",
"645 973 OFFCURVE",
"657 944 OFFCURVE",
"670 944 CURVE SMOOTH",
"750 944 OFFCURVE",
"818 915 OFFCURVE",
"818 813 CURVE SMOOTH",
"818 254 LINE",
"759 152 OFFCURVE",
"625 141 OFFCURVE",
"568 141 CURVE SMOOTH",
"457 141 OFFCURVE",
"390 236 OFFCURVE",
"390 338 CURVE SMOOTH",
"390 1036 LINE",
"389 1053 OFFCURVE",
"377 1063 OFFCURVE",
"362 1063 CURVE SMOOTH",
"347 1063 OFFCURVE",
"201 1044 OFFCURVE",
"70 1032 CURVE SMOOTH",
"55 1032 LINE SMOOTH",
"35 1032 OFFCURVE",
"28 1016 OFFCURVE",
"28 998 CURVE SMOOTH",
"28 973 OFFCURVE",
"41 944 OFFCURVE",
"54 944 CURVE SMOOTH",
"134 944 OFFCURVE",
"201 916 OFFCURVE",
"201 813 CURVE SMOOTH",
"201 414 LINE SMOOTH",
"201 168 OFFCURVE",
"254 -6 OFFCURVE",
"492 -6 CURVE SMOOTH",
"636 -6 OFFCURVE",
"757 85 OFFCURVE",
"811 147 CURVE",
"811 2 LINE",
"821 2 OFFCURVE",
"809 -6 OFFCURVE",
"830 -6 CURVE SMOOTH",
"839 -6 OFFCURVE",
"855 -5 OFFCURVE",
"881 0 CURVE SMOOTH",
"1084 42 LINE",
"1137 51 OFFCURVE",
"1154 76 OFFCURVE",
"1154 100 CURVE SMOOTH",
"1154 121 OFFCURVE",
"1141 141 OFFCURVE",
"1131 141 CURVE SMOOTH",
"1076 141 LINE SMOOTH",
"996 141 OFFCURVE",
"994 156 OFFCURVE",
"994 204 CURVE SMOOTH",
"994 1036 LINE",
"993 1053 OFFCURVE",
"981 1063 OFFCURVE",
"966 1063 CURVE SMOOTH"
);
}
);
width = 1204;
}
);
unicode = 0075;
},
{
glyphname = v;
lastChange = "2012-12-26 13:06:26 -0800";
layers = (
{
layerId = "680DE9A7-CE01-463E-86B9-683CD586B94D";
name = "Bold Condensed";
paths = (
{
closed = 1;
nodes = (
"664 1452 LINE SMOOTH",
"648 1446 OFFCURVE",
"573 1417 OFFCURVE",
"559 1409 CURVE SMOOTH",
"555 1409 OFFCURVE",
"516 1384 OFFCURVE",
"502 1374 CURVE",
"496 1368 LINE SMOOTH",
"492 1366 OFFCURVE",
"477 1362 OFFCURVE",
"473 1360 CURVE SMOOTH",
"397 1298 LINE",
"397 1298 OFFCURVE",
"395 1296 OFFCURVE",
"393 1296 CURVE SMOOTH",
"389 1296 OFFCURVE",
"385 1299 OFFCURVE",
"383 1305 CURVE SMOOTH",
"383 1329 LINE SMOOTH",
"383 1362 OFFCURVE",
"391 1392 OFFCURVE",
"391 1425 CURVE SMOOTH",
"391 1450 OFFCURVE",
"390 1452 OFFCURVE",
"365 1452 CURVE SMOOTH",
"348 1452 LINE",
"342 1450 OFFCURVE",
"303 1425 OFFCURVE",
"299 1423 CURVE SMOOTH",
"227 1388 OFFCURVE",
"148 1368 OFFCURVE",
"74 1339 CURVE SMOOTH",
"72 1337 OFFCURVE",
"61 1333 OFFCURVE",
"59 1333 CURVE",
"59 1331 OFFCURVE",
"55 1321 OFFCURVE",
"53 1319 CURVE",
"53 1315 LINE SMOOTH",
"53 1274 OFFCURVE",
"182 1229 OFFCURVE",
"207 1192 CURVE",
"205 1051 OFFCURVE",
"215 911 OFFCURVE",
"215 770 CURVE SMOOTH",
"215 680 OFFCURVE",
"225 561 OFFCURVE",
"145 498 CURVE SMOOTH",
"122 482 OFFCURVE",
"67 481 OFFCURVE",
"59 469 CURVE SMOOTH",
"53 459 OFFCURVE",
"53 436 OFFCURVE",
"53 422 CURVE SMOOTH",
"53 408 LINE",
"55 404 OFFCURVE",
"64 393 OFFCURVE",
"68 393 CURVE SMOOTH",
"551 393 LINE SMOOTH",
"561 393 OFFCURVE",
"559 422 OFFCURVE",
"559 424 CURVE SMOOTH",
"559 438 OFFCURVE",
"561 471 OFFCURVE",
"545 477 CURVE",
"477 493 OFFCURVE",
"420 510 OFFCURVE",
"397 582 CURVE",
"395 613 OFFCURVE",
"391 749 OFFCURVE",
"389 778 CURVE SMOOTH",
"389 1200 LINE",
"414 1231 OFFCURVE",
"454 1260 OFFCURVE",
"487 1276 CURVE SMOOTH",
"499 1282 OFFCURVE",
"539 1298 OFFCURVE",
"545 1298 CURVE SMOOTH",
"684 1298 LINE SMOOTH",
"704 1298 OFFCURVE",
"740 1278 OFFCURVE",
"754 1262 CURVE SMOOTH",
"764 1252 OFFCURVE",
"793 1212 OFFCURVE",
"797 1206 CURVE SMOOTH",
"801 1200 OFFCURVE",
"809 1161 OFFCURVE",
"811 1151 CURVE SMOOTH",
"811 1067 LINE SMOOTH",
"811 1055 OFFCURVE",
"817 971 OFFCURVE",
"817 961 CURVE SMOOTH",
"817 955 OFFCURVE",
"819 852 OFFCURVE",
"819 813 CURVE SMOOTH",
"819 774 OFFCURVE",
"817 672 OFFCURVE",
"817 666 CURVE SMOOTH",
"817 621 OFFCURVE",
"817 547 OFFCURVE",
"776 512 CURVE SMOOTH",
"721 467 OFFCURVE",
"662 524 OFFCURVE",
"662 430 CURVE SMOOTH",
"662 424 OFFCURVE",
"664 408 OFFCURVE",
"664 408 CURVE",
"678 393 LINE",
"1155 393 LINE",
"1155 457 LINE SMOOTH",
"1155 459 OFFCURVE",
"1145 469 OFFCURVE",
"1141 469 CURVE SMOOTH",
"1137 471 OFFCURVE",
"1096 481 OFFCURVE",
"1092 483 CURVE SMOOTH",
"1059 497 OFFCURVE",
"1040 518 OFFCURVE",
"1022 547 CURVE SMOOTH",
"1020 549 OFFCURVE",
"1014 559 OFFCURVE",
"1014 561 CURVE SMOOTH",
"999 688 LINE",
"1001 741 OFFCURVE",
"1001 991 OFFCURVE",
"999 1044 CURVE SMOOTH",
"999 1064 OFFCURVE",
"995 1167 OFFCURVE",
"993 1192 CURVE SMOOTH",
"993 1198 OFFCURVE",
"987 1229 OFFCURVE",
"985 1235 CURVE SMOOTH",
"946 1382 OFFCURVE",
"842 1452 OFFCURVE",
"692 1452 CURVE SMOOTH"
);
},
{
closed = 1;
nodes = (
"801 25 OFFCURVE",
"801 18 OFFCURVE",
"803 18 CURVE SMOOTH",
"807 18 OFFCURVE",
"807 25 OFFCURVE",
"803 25 CURVE SMOOTH"
);
},
{
closed = 1;
nodes = (
"57 1610 OFFCURVE",
"57 1604 OFFCURVE",
"59 1604 CURVE SMOOTH",
"63 1604 OFFCURVE",
"63 1610 OFFCURVE",
"59 1610 CURVE SMOOTH"
);
},
{
closed = 1;
nodes = (
"98 1581 OFFCURVE",
"98 1575 OFFCURVE",
"102 1575 CURVE SMOOTH",
"106 1575 OFFCURVE",
"106 1581 OFFCURVE",
"102 1581 CURVE SMOOTH"
);
}
);
width = 1202;
}
);
unicode = 0076;
},
{
glyphname = w;
lastChange = "2012-12-26 13:06:16 -0800";
layers = (
{
anchors = (
{
name = top;
position = "{922, 1059}";
}
);
layerId = "680DE9A7-CE01-463E-86B9-683CD586B94D";
name = "Bold Condensed";
paths = (
{
closed = 1;
nodes = (
"729 1430 LINE SMOOTH",
"727 1430 OFFCURVE",
"690 1433 OFFCURVE",
"690 1421 CURVE SMOOTH",
"690 1343 LINE SMOOTH",
"690 1341 OFFCURVE",
"705 1335 OFFCURVE",
"711 1333 CURVE SMOOTH",
"717 1331 OFFCURVE",
"772 1317 OFFCURVE",
"778 1313 CURVE SMOOTH",
"784 1311 OFFCURVE",
"811 1282 OFFCURVE",
"817 1274 CURVE SMOOTH",
"821 1268 OFFCURVE",
"848 1212 OFFCURVE",
"856 1196 CURVE SMOOTH",
"862 1182 OFFCURVE",
"889 1106 OFFCURVE",
"895 1090 CURVE",
"887 1076 OFFCURVE",
"881 1056 OFFCURVE",
"885 1040 CURVE",
"827 877 LINE",
"817 866 LINE",
"807 837 OFFCURVE",
"751 709 OFFCURVE",
"739 682 CURVE SMOOTH",
"737 678 OFFCURVE",
"721 655 OFFCURVE",
"719 651 CURVE SMOOTH",
"709 635 OFFCURVE",
"701 573 OFFCURVE",
"674 573 CURVE SMOOTH",
"672 573 LINE",
"438 1245 LINE SMOOTH",
"436 1247 OFFCURVE",
"451 1276 OFFCURVE",
"457 1284 CURVE SMOOTH",
"461 1290 OFFCURVE",
"481 1311 OFFCURVE",
"485 1313 CURVE SMOOTH",
"491 1317 OFFCURVE",
"547 1339 OFFCURVE",
"555 1343 CURVE SMOOTH",
"565 1347 OFFCURVE",
"565 1352 OFFCURVE",
"565 1362 CURVE SMOOTH",
"565 1405 OFFCURVE",
"553 1430 OFFCURVE",
"506 1430 CURVE SMOOTH",
"127 1430 LINE",
"106 1411 LINE",
"106 1343 LINE",
"116 1337 OFFCURVE",
"166 1311 OFFCURVE",
"174 1305 CURVE SMOOTH",
"176 1303 OFFCURVE",
"191 1282 OFFCURVE",
"195 1274 CURVE SMOOTH",
"205 1256 OFFCURVE",
"231 1202 OFFCURVE",
"233 1196 CURVE SMOOTH",
"555 244 LINE SMOOTH",
"555 242 OFFCURVE",
"561 233 OFFCURVE",
"563 233 CURVE SMOOTH",
"573 231 OFFCURVE",
"606 223 OFFCURVE",
"612 223 CURVE SMOOTH",
"637 223 OFFCURVE",
"672 237 OFFCURVE",
"680 262 CURVE SMOOTH",
"924 895 LINE",
"944 915 LINE",
"991 843 OFFCURVE",
"983 744 OFFCURVE",
"1030 672 CURVE",
"1167 244 LINE SMOOTH",
"1173 221 OFFCURVE",
"1211 223 OFFCURVE",
"1225 223 CURVE SMOOTH",
"1270 223 OFFCURVE",
"1303 242 OFFCURVE",
"1303 293 CURVE",
"1468 760 LINE",
"1523 848 OFFCURVE",
"1534 955 OFFCURVE",
"1567 1051 CURVE SMOOTH",
"1575 1078 OFFCURVE",
"1622 1200 OFFCURVE",
"1634 1227 CURVE",
"1646 1245 OFFCURVE",
"1665 1268 OFFCURVE",
"1683 1284 CURVE SMOOTH",
"1720 1315 OFFCURVE",
"1761 1321 OFFCURVE",
"1761 1376 CURVE SMOOTH",
"1761 1409 OFFCURVE",
"1747 1421 OFFCURVE",
"1712 1421 CURVE SMOOTH",
"1391 1421 LINE SMOOTH",
"1379 1421 OFFCURVE",
"1380 1378 OFFCURVE",
"1380 1376 CURVE SMOOTH",
"1380 1300 OFFCURVE",
"1442 1333 OFFCURVE",
"1489 1294 CURVE",
"1493 1288 OFFCURVE",
"1507 1268 OFFCURVE",
"1507 1266 CURVE SMOOTH",
"1507 1157 LINE",
"1411 856 LINE SMOOTH",
"1409 854 OFFCURVE",
"1401 840 OFFCURVE",
"1401 838 CURVE SMOOTH",
"1397 826 OFFCURVE",
"1366 731 OFFCURVE",
"1362 721 CURVE SMOOTH",
"1354 701 OFFCURVE",
"1313 612 OFFCURVE",
"1303 594 CURVE",
"1301 586 OFFCURVE",
"1294 584 OFFCURVE",
"1288 584 CURVE SMOOTH",
"1284 584 LINE",
"1264 623 LINE",
"1079 1217 LINE",
"1079 1231 LINE SMOOTH",
"1079 1268 OFFCURVE",
"1114 1303 OFFCURVE",
"1147 1313 CURVE SMOOTH",
"1190 1327 OFFCURVE",
"1235 1321 OFFCURVE",
"1235 1382 CURVE SMOOTH",
"1235 1396 OFFCURVE",
"1233 1405 OFFCURVE",
"1225 1421 CURVE",
"1155 1421 OFFCURVE",
"828 1430 OFFCURVE",
"758 1430 CURVE SMOOTH"
);
}
);
width = 1843;
}
);
unicode = 0077;
},
{
glyphname = x;
lastChange = "2012-12-26 13:06:26 -0800";
layers = (
{
layerId = "680DE9A7-CE01-463E-86B9-683CD586B94D";
name = "Bold Condensed";
paths = (
{
closed = 1;
nodes = (
"520 1454 OFFCURVE",
"398 1419 OFFCURVE",
"371 1409 CURVE SMOOTH",
"355 1403 OFFCURVE",
"280 1364 OFFCURVE",
"266 1354 CURVE SMOOTH",
"264 1352 OFFCURVE",
"260 1348 OFFCURVE",
"258 1348 CURVE SMOOTH",
"256 1344 OFFCURVE",
"227 1321 OFFCURVE",
"223 1319 CURVE SMOOTH",
"221 1317 OFFCURVE",
"211 1298 OFFCURVE",
"209 1298 CURVE SMOOTH",
"207 1294 OFFCURVE",
"184 1272 OFFCURVE",
"182 1270 CURVE SMOOTH",
"110 1164 OFFCURVE",
"70 1053 OFFCURVE",
"70 926 CURVE SMOOTH",
"70 875 OFFCURVE",
"80 823 OFFCURVE",
"76 772 CURVE",
"82 752 OFFCURVE",
"107 663 OFFCURVE",
"113 645 CURVE SMOOTH",
"113 641 OFFCURVE",
"123 622 OFFCURVE",
"125 616 CURVE SMOOTH",
"170 548 OFFCURVE",
"223 477 OFFCURVE",
"295 434 CURVE",
"295 434 OFFCURVE",
"313 428 OFFCURVE",
"315 428 CURVE SMOOTH",
"325 424 OFFCURVE",
"369 399 OFFCURVE",
"379 393 CURVE",
"518 365 LINE",
"557 377 OFFCURVE",
"600 377 OFFCURVE",
"637 385 CURVE SMOOTH",
"746 412 OFFCURVE",
"817 500 OFFCURVE",
"883 582 CURVE SMOOTH",
"889 590 OFFCURVE",
"903 608 OFFCURVE",
"905 610 CURVE",
"905 645 LINE",
"903 647 OFFCURVE",
"883 664 OFFCURVE",
"877 666 CURVE SMOOTH",
"877 668 OFFCURVE",
"870 668 OFFCURVE",
"870 668 CURVE SMOOTH",
"856 668 OFFCURVE",
"854 661 OFFCURVE",
"842 651 CURVE",
"836 649 OFFCURVE",
"797 614 OFFCURVE",
"793 610 CURVE SMOOTH",
"779 602 OFFCURVE",
"714 567 OFFCURVE",
"700 561 CURVE",
"663 563 OFFCURVE",
"629 553 OFFCURVE",
"592 553 CURVE SMOOTH",
"451 553 OFFCURVE",
"315 655 OFFCURVE",
"266 786 CURVE SMOOTH",
"241 847 OFFCURVE",
"238 915 OFFCURVE",
"238 983 CURVE SMOOTH",
"238 1044 LINE SMOOTH",
"240 1067 OFFCURVE",
"256 1101 OFFCURVE",
"252 1128 CURVE",
"270 1198 OFFCURVE",
"301 1260 OFFCURVE",
"356 1305 CURVE",
"358 1303 OFFCURVE",
"363 1303 OFFCURVE",
"365 1305 CURVE SMOOTH",
"367 1307 OFFCURVE",
"371 1317 OFFCURVE",
"371 1319 CURVE SMOOTH",
"414 1344 OFFCURVE",
"467 1362 OFFCURVE",
"518 1362 CURVE SMOOTH",
"651 1362 OFFCURVE",
"702 1294 OFFCURVE",
"743 1171 CURVE",
"753 1155 OFFCURVE",
"777 1143 OFFCURVE",
"795 1143 CURVE SMOOTH",
"807 1143 LINE SMOOTH",
"881 1159 OFFCURVE",
"897 1182 OFFCURVE",
"897 1262 CURVE SMOOTH",
"897 1371 OFFCURVE",
"774 1436 OFFCURVE",
"680 1444 CURVE SMOOTH",
"547 1458 LINE"
);
}
);
width = 980;
}
);
unicode = 0078;
},
{
glyphname = y;
lastChange = "2012-12-26 13:06:26 -0800";
layers = (
{
anchors = (
{
name = top;
position = "{563, 1059}";
}
);
layerId = "680DE9A7-CE01-463E-86B9-683CD586B94D";
name = "Bold Condensed";
paths = (
{
closed = 1;
nodes = (
"725 1059 LINE SMOOTH",
"725 1059 OFFCURVE",
"719 1055 OFFCURVE",
"719 1053 CURVE SMOOTH",
"715 1047 OFFCURVE",
"705 1026 OFFCURVE",
"705 1024 CURVE SMOOTH",
"705 1020 OFFCURVE",
"709 991 OFFCURVE",
"711 983 CURVE SMOOTH",
"717 965 OFFCURVE",
"785 954 OFFCURVE",
"803 940 CURVE",
"838 905 LINE SMOOTH",
"844 897 OFFCURVE",
"844 893 OFFCURVE",
"844 885 CURVE SMOOTH",
"844 877 LINE",
"828 783 OFFCURVE",
"797 713 OFFCURVE",
"768 625 CURVE SMOOTH",
"766 621 OFFCURVE",
"756 579 OFFCURVE",
"754 575 CURVE SMOOTH",
"752 569 OFFCURVE",
"727 518 OFFCURVE",
"725 512 CURVE SMOOTH",
"705 461 OFFCURVE",
"697 414 OFFCURVE",
"670 365 CURVE SMOOTH",
"666 361 OFFCURVE",
"651 346 OFFCURVE",
"647 344 CURVE",
"645 350 OFFCURVE",
"635 367 OFFCURVE",
"627 373 CURVE",
"613 436 OFFCURVE",
"580 488 OFFCURVE",
"557 547 CURVE SMOOTH",
"547 574 OFFCURVE",
"469 782 OFFCURVE",
"459 807 CURVE SMOOTH",
"447 840 OFFCURVE",
"424 870 OFFCURVE",
"424 909 CURVE SMOOTH",
"424 956 OFFCURVE",
"481 961 OFFCURVE",
"514 969 CURVE SMOOTH",
"518 969 OFFCURVE",
"539 973 OFFCURVE",
"543 983 CURVE SMOOTH",
"549 999 OFFCURVE",
"551 1016 OFFCURVE",
"551 1032 CURVE SMOOTH",
"551 1036 OFFCURVE",
"549 1044 OFFCURVE",
"549 1044 CURVE SMOOTH",
"549 1050 OFFCURVE",
"539 1059 OFFCURVE",
"537 1059 CURVE SMOOTH",
"100 1059 LINE SMOOTH",
"84 1059 OFFCURVE",
"80 1018 OFFCURVE",
"80 1006 CURVE SMOOTH",
"80 943 OFFCURVE",
"127 979 OFFCURVE",
"164 954 CURVE SMOOTH",
"180 942 OFFCURVE",
"199 915 OFFCURVE",
"207 899 CURVE SMOOTH",
"326 625 LINE",
"330 621 OFFCURVE",
"344 596 OFFCURVE",
"346 590 CURVE SMOOTH",
"385 510 OFFCURVE",
"416 422 OFFCURVE",
"459 344 CURVE SMOOTH",
"459 342 OFFCURVE",
"471 326 OFFCURVE",
"473 324 CURVE SMOOTH",
"506 250 OFFCURVE",
"526 174 OFFCURVE",
"557 98 CURVE",
"557 70 LINE SMOOTH",
"557 66 OFFCURVE",
"514 -50 OFFCURVE",
"494 -70 CURVE",
"486 -86 OFFCURVE",
"489 -90 OFFCURVE",
"479 -104 CURVE SMOOTH",
"473 -112 OFFCURVE",
"430 -172 OFFCURVE",
"416 -188 CURVE SMOOTH",
"416 -190 OFFCURVE",
"410 -195 OFFCURVE",
"410 -197 CURVE",
"385 -197 LINE SMOOTH",
"354 -197 OFFCURVE",
"353 -190 OFFCURVE",
"326 -174 CURVE SMOOTH",
"248 -133 LINE",
"240 -125 OFFCURVE",
"218 -104 OFFCURVE",
"207 -104 CURVE SMOOTH",
"205 -104 OFFCURVE",
"174 -121 OFFCURVE",
"164 -125 CURVE",
"139 -141 OFFCURVE",
"121 -196 OFFCURVE",
"121 -225 CURVE SMOOTH",
"121 -229 OFFCURVE",
"121 -244 OFFCURVE",
"123 -246 CURVE SMOOTH",
"123 -248 OFFCURVE",
"133 -277 OFFCURVE",
"135 -287 CURVE SMOOTH",
"145 -314 OFFCURVE",
"175 -324 OFFCURVE",
"193 -344 CURVE",
"203 -348 OFFCURVE",
"258 -363 OFFCURVE",
"268 -365 CURVE",
"297 -365 LINE SMOOTH",
"379 -365 OFFCURVE",
"445 -311 OFFCURVE",
"500 -260 CURVE",
"539 -201 OFFCURVE",
"586 -129 OFFCURVE",
"598 -55 CURVE",
"942 850 LINE",
"953 873 OFFCURVE",
"992 947 OFFCURVE",
"1020 961 CURVE",
"1028 969 OFFCURVE",
"1083 972 OFFCURVE",
"1083 983 CURVE SMOOTH",
"1083 1044 LINE SMOOTH",
"1083 1050 OFFCURVE",
"1061 1059 OFFCURVE",
"1061 1059 CURVE SMOOTH"
);
}
);
width = 1126;
}
);
unicode = 0079;
},
{
glyphname = z;
lastChange = "2012-12-26 13:06:26 -0800";
layers = (
{
anchors = (
{
name = top;
position = "{617, 1059}";
}
);
layerId = "680DE9A7-CE01-463E-86B9-683CD586B94D";
name = "Bold Condensed";
paths = (
{
closed = 1;
nodes = (
"393 1471 OFFCURVE",
"348 1456 OFFCURVE",
"340 1452 CURVE SMOOTH",
"320 1444 OFFCURVE",
"282 1417 OFFCURVE",
"262 1423 CURVE",
"115 1368 LINE SMOOTH",
"95 1360 OFFCURVE",
"80 1338 OFFCURVE",
"80 1315 CURVE SMOOTH",
"80 1311 LINE",
"100 1290 LINE",
"227 1212 LINE",
"233 1206 LINE",
"233 1094 LINE",
"235 1080 OFFCURVE",
"242 968 OFFCURVE",
"242 954 CURVE SMOOTH",
"242 764 LINE SMOOTH",
"242 758 OFFCURVE",
"248 694 OFFCURVE",
"248 688 CURVE SMOOTH",
"248 682 OFFCURVE",
"250 586 OFFCURVE",
"250 547 CURVE SMOOTH",
"250 510 OFFCURVE",
"248 407 OFFCURVE",
"248 399 CURVE SMOOTH",
"248 370 OFFCURVE",
"244 240 OFFCURVE",
"242 211 CURVE SMOOTH",
"242 203 OFFCURVE",
"231 168 OFFCURVE",
"227 162 CURVE SMOOTH",
"225 158 OFFCURVE",
"201 133 OFFCURVE",
"193 127 CURVE SMOOTH",
"170 109 OFFCURVE",
"125 111 OFFCURVE",
"100 113 CURVE",
"80 105 OFFCURVE",
"80 73 OFFCURVE",
"80 55 CURVE SMOOTH",
"80 39 OFFCURVE",
"93 26 OFFCURVE",
"109 20 CURVE",
"158 22 OFFCURVE",
"393 27 OFFCURVE",
"444 29 CURVE",
"449 29 LINE SMOOTH",
"494 29 OFFCURVE",
"539 20 OFFCURVE",
"584 20 CURVE SMOOTH",
"609 20 OFFCURVE",
"614 30 OFFCURVE",
"614 55 CURVE SMOOTH",
"614 69 OFFCURVE",
"614 88 OFFCURVE",
"598 98 CURVE",
"586 98 OFFCURVE",
"526 109 OFFCURVE",
"514 113 CURVE SMOOTH",
"494 117 OFFCURVE",
"479 131 OFFCURVE",
"465 147 CURVE SMOOTH",
"424 196 OFFCURVE",
"430 252 OFFCURVE",
"430 315 CURVE SMOOTH",
"430 399 LINE",
"436 415 OFFCURVE",
"447 414 OFFCURVE",
"457 414 CURVE SMOOTH",
"473 414 LINE SMOOTH",
"483 412 OFFCURVE",
"568 393 OFFCURVE",
"578 393 CURVE SMOOTH",
"582 393 OFFCURVE",
"629 391 OFFCURVE",
"647 391 CURVE SMOOTH",
"858 391 OFFCURVE",
"1063 528 OFFCURVE",
"1118 737 CURVE SMOOTH",
"1126 766 OFFCURVE",
"1151 875 OFFCURVE",
"1153 891 CURVE SMOOTH",
"1153 924 LINE SMOOTH",
"1153 992 OFFCURVE",
"1145 1052 OFFCURVE",
"1133 1122 CURVE SMOOTH",
"1131 1128 OFFCURVE",
"1116 1174 OFFCURVE",
"1110 1186 CURVE SMOOTH",
"1102 1206 OFFCURVE",
"1073 1270 OFFCURVE",
"1069 1276 CURVE SMOOTH",
"1063 1286 OFFCURVE",
"1009 1350 OFFCURVE",
"991 1368 CURVE SMOOTH",
"987 1372 OFFCURVE",
"962 1391 OFFCURVE",
"956 1397 CURVE SMOOTH",
"884 1442 OFFCURVE",
"831 1466 OFFCURVE",
"743 1466 CURVE SMOOTH",
"663 1466 OFFCURVE",
"590 1430 OFFCURVE",
"522 1389 CURVE SMOOTH",
"497 1375 OFFCURVE",
"454 1317 OFFCURVE",
"434 1317 CURVE SMOOTH",
"432 1317 OFFCURVE",
"430 1319 OFFCURVE",
"430 1319 CURVE SMOOTH",
"428 1321 OFFCURVE",
"424 1337 OFFCURVE",
"424 1339 CURVE SMOOTH",
"424 1458 LINE SMOOTH",
"424 1464 OFFCURVE",
"403 1473 OFFCURVE",
"403 1473 CURVE"
);
},
{
closed = 1;
nodes = (
"805 1290 OFFCURVE",
"884 1212 OFFCURVE",
"950 1067 CURVE",
"948 1065 OFFCURVE",
"948 1061 OFFCURVE",
"950 1059 CURVE SMOOTH",
"968 996 OFFCURVE",
"985 938 OFFCURVE",
"985 872 CURVE SMOOTH",
"985 837 OFFCURVE",
"985 797 OFFCURVE",
"977 764 CURVE SMOOTH",
"977 758 OFFCURVE",
"958 708 OFFCURVE",
"956 700 CURVE SMOOTH",
"956 698 OFFCURVE",
"950 670 OFFCURVE",
"950 666 CURVE SMOOTH",
"936 639 LINE SMOOTH",
"928 625 OFFCURVE",
"893 577 OFFCURVE",
"887 567 CURVE SMOOTH",
"883 563 OFFCURVE",
"862 543 OFFCURVE",
"858 541 CURVE SMOOTH",
"856 539 OFFCURVE",
"833 528 OFFCURVE",
"829 526 CURVE SMOOTH",
"778 495 OFFCURVE",
"766 477 OFFCURVE",
"698 477 CURVE SMOOTH",
"662 477 LINE SMOOTH",
"650 479 OFFCURVE",
"590 494 OFFCURVE",
"578 498 CURVE SMOOTH",
"431 555 OFFCURVE",
"432 703 OFFCURVE",
"424 836 CURVE",
"426 838 OFFCURVE",
"430 852 OFFCURVE",
"430 856 CURVE SMOOTH",
"430 862 OFFCURVE",
"424 920 OFFCURVE",
"424 926 CURVE SMOOTH",
"424 930 OFFCURVE",
"422 1024 OFFCURVE",
"422 1059 CURVE SMOOTH",
"422 1079 OFFCURVE",
"424 1172 OFFCURVE",
"424 1192 CURVE SMOOTH",
"424 1196 OFFCURVE",
"436 1217 OFFCURVE",
"444 1221 CURVE SMOOTH",
"516 1266 OFFCURVE",
"559 1290 OFFCURVE",
"645 1290 CURVE SMOOTH"
);
}
);
width = 1234;
}
);
unicode = 007A;
},
{
glyphname = zero;
lastChange = "2012-12-26 13:06:26 -0800";
layers = (
{
layerId = "680DE9A7-CE01-463E-86B9-683CD586B94D";
name = "Bold Condensed";
paths = (
{
closed = 1;
nodes = (
"484 1073 OFFCURVE",
"428 1053 OFFCURVE",
"373 1030 CURVE SMOOTH",
"369 1030 OFFCURVE",
"360 1024 OFFCURVE",
"358 1024 CURVE SMOOTH",
"288 975 OFFCURVE",
"211 926 OFFCURVE",
"170 848 CURVE SMOOTH",
"162 836 OFFCURVE",
"133 778 OFFCURVE",
"127 764 CURVE SMOOTH",
"100 670 OFFCURVE",
"78 579 OFFCURVE",
"78 483 CURVE SMOOTH",
"78 469 LINE SMOOTH",
"84 434 OFFCURVE",
"102 315 OFFCURVE",
"106 301 CURVE SMOOTH",
"141 147 OFFCURVE",
"267 12 OFFCURVE",
"408 -49 CURVE",
"414 -49 LINE",
"420 -51 OFFCURVE",
"465 -61 OFFCURVE",
"471 -63 CURVE SMOOTH",
"516 -71 OFFCURVE",
"551 -72 OFFCURVE",
"596 -72 CURVE SMOOTH",
"668 -72 OFFCURVE",
"740 -51 OFFCURVE",
"801 -14 CURVE SMOOTH",
"946 76 OFFCURVE",
"1024 227 OFFCURVE",
"1053 393 CURVE",
"1055 508 LINE SMOOTH",
"1055 574 OFFCURVE",
"1058 643 OFFCURVE",
"1038 709 CURVE SMOOTH",
"1036 715 OFFCURVE",
"1014 758 OFFCURVE",
"1010 764 CURVE",
"1010 768 OFFCURVE",
"1004 782 OFFCURVE",
"1004 784 CURVE SMOOTH",
"913 911 LINE",
"884 923 OFFCURVE",
"873 949 OFFCURVE",
"850 969 CURVE",
"842 973 OFFCURVE",
"809 998 OFFCURVE",
"801 1004 CURVE SMOOTH",
"785 1012 OFFCURVE",
"721 1047 OFFCURVE",
"709 1053 CURVE SMOOTH",
"658 1076 OFFCURVE",
"598 1073 OFFCURVE",
"543 1073 CURVE SMOOTH"
);
},
{
closed = 1;
nodes = (
"473 164 OFFCURVE",
"473 158 OFFCURVE",
"477 158 CURVE SMOOTH",
"481 158 OFFCURVE",
"481 164 OFFCURVE",
"477 164 CURVE SMOOTH"
);
},
{
closed = 1;
nodes = (
"697 928 OFFCURVE",
"772 872 OFFCURVE",
"827 778 CURVE SMOOTH",
"835 766 OFFCURVE",
"871 700 OFFCURVE",
"877 688 CURVE SMOOTH",
"879 686 OFFCURVE",
"883 665 OFFCURVE",
"885 659 CURVE SMOOTH",
"893 612 OFFCURVE",
"899 567 OFFCURVE",
"899 520 CURVE SMOOTH",
"899 454 OFFCURVE",
"891 393 OFFCURVE",
"877 330 CURVE SMOOTH",
"877 326 OFFCURVE",
"872 311 OFFCURVE",
"870 309 CURVE SMOOTH",
"827 217 OFFCURVE",
"780 139 OFFCURVE",
"688 90 CURVE SMOOTH",
"678 86 OFFCURVE",
"643 70 OFFCURVE",
"639 70 CURVE SMOOTH",
"602 70 LINE SMOOTH",
"567 70 OFFCURVE",
"527 70 OFFCURVE",
"492 78 CURVE SMOOTH",
"488 78 OFFCURVE",
"463 88 OFFCURVE",
"457 90 CURVE SMOOTH",
"404 121 OFFCURVE",
"371 150 OFFCURVE",
"330 197 CURVE SMOOTH",
"254 287 OFFCURVE",
"238 389 OFFCURVE",
"238 504 CURVE SMOOTH",
"238 522 OFFCURVE",
"240 567 OFFCURVE",
"240 567 CURVE SMOOTH",
"242 581 OFFCURVE",
"266 669 OFFCURVE",
"274 694 CURVE SMOOTH",
"327 844 OFFCURVE",
"422 928 OFFCURVE",
"584 928 CURVE SMOOTH"
);
},
{
closed = 1;
nodes = (
"389 713 OFFCURVE",
"389 705 OFFCURVE",
"393 705 CURVE SMOOTH",
"397 705 OFFCURVE",
"397 713 OFFCURVE",
"393 713 CURVE SMOOTH"
);
}
);
width = 1140;
}
);
unicode = 0030;
},
{
glyphname = one;
lastChange = "2012-12-26 13:06:26 -0800";
layers = (
{
layerId = "680DE9A7-CE01-463E-86B9-683CD586B94D";
name = "Bold Condensed";
paths = (
{
closed = 1;
nodes = (
"659 1065 LINE SMOOTH",
"647 1065 OFFCURVE",
"551 1059 OFFCURVE",
"541 1059 CURVE SMOOTH",
"98 1059 LINE",
"86 1053 OFFCURVE",
"84 1034 OFFCURVE",
"84 1020 CURVE SMOOTH",
"84 1002 OFFCURVE",
"86 971 OFFCURVE",
"113 969 CURVE SMOOTH",
"217 954 LINE SMOOTH",
"219 952 OFFCURVE",
"250 923 OFFCURVE",
"260 911 CURVE SMOOTH",
"270 899 OFFCURVE",
"279 872 OFFCURVE",
"281 856 CURVE SMOOTH",
"283 840 OFFCURVE",
"287 786 OFFCURVE",
"287 778 CURVE SMOOTH",
"287 188 LINE SMOOTH",
"287 186 OFFCURVE",
"283 162 OFFCURVE",
"281 154 CURVE SMOOTH",
"261 82 OFFCURVE",
"230 55 OFFCURVE",
"154 49 CURVE SMOOTH",
"103 45 OFFCURVE",
"82 55 OFFCURVE",
"82 -6 CURVE SMOOTH",
"82 -31 OFFCURVE",
"96 -55 OFFCURVE",
"127 -55 CURVE SMOOTH",
"137 -55 OFFCURVE",
"193 -51 OFFCURVE",
"203 -49 CURVE",
"709 -49 LINE",
"709 35 LINE SMOOTH",
"709 70 OFFCURVE",
"518 10 OFFCURVE",
"504 168 CURVE SMOOTH",
"502 191 OFFCURVE",
"498 285 OFFCURVE",
"498 301 CURVE SMOOTH",
"498 856 LINE SMOOTH",
"498 926 OFFCURVE",
"565 969 OFFCURVE",
"631 975 CURVE SMOOTH",
"680 975 LINE SMOOTH",
"684 975 OFFCURVE",
"692 981 OFFCURVE",
"694 981 CURVE SMOOTH",
"702 993 OFFCURVE",
"702 1014 OFFCURVE",
"702 1028 CURVE SMOOTH",
"702 1059 OFFCURVE",
"699 1059 OFFCURVE",
"666 1065 CURVE"
);
}
);
width = 798;
}
);
unicode = 0031;
},
{
glyphname = two;
lastChange = "2012-12-26 13:06:26 -0800";
layers = (
{
layerId = "680DE9A7-CE01-463E-86B9-683CD586B94D";
name = "Bold Condensed";
paths = (
{
closed = 1;
nodes = (
"481 1094 LINE",
"450 1082 OFFCURVE",
"420 1083 OFFCURVE",
"389 1073 CURVE SMOOTH",
"328 1053 OFFCURVE",
"270 1014 OFFCURVE",
"221 975 CURVE SMOOTH",
"215 971 OFFCURVE",
"170 924 OFFCURVE",
"166 920 CURVE SMOOTH",
"150 906 OFFCURVE",
"129 902 OFFCURVE",
"129 877 CURVE SMOOTH",
"129 844 OFFCURVE",
"159 819 OFFCURVE",
"190 819 CURVE SMOOTH",
"192 819 OFFCURVE",
"199 821 OFFCURVE",
"201 821 CURVE SMOOTH",
"203 821 OFFCURVE",
"219 834 OFFCURVE",
"221 834 CURVE SMOOTH",
"250 850 OFFCURVE",
"334 895 OFFCURVE",
"340 897 CURVE SMOOTH",
"379 915 OFFCURVE",
"430 920 OFFCURVE",
"473 920 CURVE SMOOTH",
"536 920 OFFCURVE",
"586 901 OFFCURVE",
"635 862 CURVE SMOOTH",
"655 846 OFFCURVE",
"688 815 OFFCURVE",
"698 784 CURVE SMOOTH",
"708 755 OFFCURVE",
"707 748 OFFCURVE",
"707 713 CURVE SMOOTH",
"707 647 OFFCURVE",
"686 583 OFFCURVE",
"641 532 CURVE SMOOTH",
"621 507 OFFCURVE",
"517 396 OFFCURVE",
"494 371 CURVE",
"467 355 OFFCURVE",
"443 329 OFFCURVE",
"418 309 CURVE SMOOTH",
"395 291 OFFCURVE",
"315 225 OFFCURVE",
"305 217 CURVE SMOOTH",
"239 166 OFFCURVE",
"175 114 OFFCURVE",
"109 63 CURVE SMOOTH",
"80 35 LINE SMOOTH",
"70 23 OFFCURVE",
"72 8 OFFCURVE",
"72 -8 CURVE SMOOTH",
"72 -14 OFFCURVE",
"74 -27 OFFCURVE",
"74 -29 CURVE SMOOTH",
"88 -43 LINE SMOOTH",
"90 -45 OFFCURVE",
"305 -49 OFFCURVE",
"397 -49 CURVE SMOOTH",
"544 -49 OFFCURVE",
"899 -45 OFFCURVE",
"901 -43 CURVE SMOOTH",
"909 -35 LINE",
"917 -8 OFFCURVE",
"961 120 OFFCURVE",
"971 147 CURVE SMOOTH",
"977 161 OFFCURVE",
"1006 226 OFFCURVE",
"1014 238 CURVE",
"1014 256 LINE SMOOTH",
"1014 256 OFFCURVE",
"1018 281 OFFCURVE",
"1006 281 CURVE SMOOTH",
"936 281 LINE SMOOTH",
"936 281 OFFCURVE",
"932 274 OFFCURVE",
"930 272 CURVE SMOOTH",
"926 270 OFFCURVE",
"917 254 OFFCURVE",
"915 252 CURVE SMOOTH",
"913 246 OFFCURVE",
"891 201 OFFCURVE",
"887 197 CURVE SMOOTH",
"873 174 OFFCURVE",
"842 157 OFFCURVE",
"817 147 CURVE",
"794 143 OFFCURVE",
"687 135 OFFCURVE",
"664 133 CURVE SMOOTH",
"580 133 LINE SMOOTH",
"572 133 OFFCURVE",
"510 127 OFFCURVE",
"502 127 CURVE SMOOTH",
"490 127 OFFCURVE",
"409 131 OFFCURVE",
"389 133 CURVE SMOOTH",
"385 133 OFFCURVE",
"364 139 OFFCURVE",
"360 139 CURVE",
"360 147 LINE SMOOTH",
"360 157 OFFCURVE",
"463 221 OFFCURVE",
"467 223 CURVE SMOOTH",
"510 254 OFFCURVE",
"551 291 OFFCURVE",
"592 322 CURVE SMOOTH",
"596 326 OFFCURVE",
"610 334 OFFCURVE",
"614 336 CURVE SMOOTH",
"817 518 LINE SMOOTH",
"862 559 OFFCURVE",
"889 625 OFFCURVE",
"909 680 CURVE SMOOTH",
"915 700 OFFCURVE",
"915 725 OFFCURVE",
"915 748 CURVE SMOOTH",
"915 803 OFFCURVE",
"897 873 OFFCURVE",
"866 920 CURVE SMOOTH",
"792 1029 OFFCURVE",
"668 1096 OFFCURVE",
"537 1096 CURVE SMOOTH"
);
}
);
width = 1087;
}
);
unicode = 0032;
},
{
glyphname = three;
lastChange = "2012-12-26 13:06:26 -0800";
layers = (
{
layerId = "680DE9A7-CE01-463E-86B9-683CD586B94D";
name = "Bold Condensed";
paths = (
{
closed = 1;
nodes = (
"449 1094 LINE SMOOTH",
"439 1094 OFFCURVE",
"370 1083 OFFCURVE",
"350 1079 CURVE SMOOTH",
"346 1079 OFFCURVE",
"332 1075 OFFCURVE",
"330 1073 CURVE SMOOTH",
"223 1004 LINE",
"194 981 OFFCURVE",
"104 915 OFFCURVE",
"104 870 CURVE SMOOTH",
"104 858 OFFCURVE",
"123 827 OFFCURVE",
"133 821 CURVE SMOOTH",
"145 811 OFFCURVE",
"164 799 OFFCURVE",
"182 799 CURVE SMOOTH",
"192 799 OFFCURVE",
"195 801 OFFCURVE",
"203 813 CURVE SMOOTH",
"223 842 OFFCURVE",
"227 836 OFFCURVE",
"252 856 CURVE SMOOTH",
"256 858 OFFCURVE",
"277 881 OFFCURVE",
"281 883 CURVE SMOOTH",
"291 889 OFFCURVE",
"334 909 OFFCURVE",
"344 911 CURVE SMOOTH",
"346 913 OFFCURVE",
"381 911 OFFCURVE",
"385 911 CURVE SMOOTH",
"387 911 OFFCURVE",
"397 920 OFFCURVE",
"399 920 CURVE SMOOTH",
"436 920 LINE SMOOTH",
"561 920 OFFCURVE",
"639 830 OFFCURVE",
"639 709 CURVE SMOOTH",
"639 549 OFFCURVE",
"512 500 OFFCURVE",
"379 457 CURVE SMOOTH",
"344 445 OFFCURVE",
"322 436 OFFCURVE",
"281 428 CURVE SMOOTH",
"263 424 OFFCURVE",
"227 426 OFFCURVE",
"217 408 CURVE SMOOTH",
"213 402 OFFCURVE",
"203 366 OFFCURVE",
"203 358 CURVE SMOOTH",
"201 344 OFFCURVE",
"215 328 OFFCURVE",
"223 322 CURVE",
"340 314 OFFCURVE",
"498 330 OFFCURVE",
"596 252 CURVE",
"602 246 LINE SMOOTH",
"606 244 OFFCURVE",
"629 227 OFFCURVE",
"631 223 CURVE SMOOTH",
"633 223 OFFCURVE",
"637 217 OFFCURVE",
"637 217 CURVE",
"651 197 OFFCURVE",
"690 133 OFFCURVE",
"694 127 CURVE SMOOTH",
"712 90 OFFCURVE",
"715 49 OFFCURVE",
"715 10 CURVE SMOOTH",
"715 -86 OFFCURVE",
"678 -176 OFFCURVE",
"610 -246 CURVE",
"557 -271 OFFCURVE",
"501 -281 OFFCURVE",
"444 -281 CURVE SMOOTH",
"372 -281 OFFCURVE",
"299 -271 OFFCURVE",
"238 -240 CURVE SMOOTH",
"232 -236 OFFCURVE",
"207 -225 OFFCURVE",
"203 -225 CURVE SMOOTH",
"203 -225 OFFCURVE",
"188 -223 OFFCURVE",
"184 -223 CURVE SMOOTH",
"125 -223 OFFCURVE",
"84 -248 OFFCURVE",
"70 -309 CURVE",
"70 -322 LINE SMOOTH",
"70 -375 OFFCURVE",
"119 -414 OFFCURVE",
"168 -422 CURVE SMOOTH",
"252 -422 LINE SMOOTH",
"430 -422 OFFCURVE",
"566 -392 OFFCURVE",
"709 -281 CURVE SMOOTH",
"725 -269 OFFCURVE",
"778 -219 OFFCURVE",
"784 -211 CURVE SMOOTH",
"794 -201 OFFCURVE",
"848 -117 OFFCURVE",
"862 -92 CURVE SMOOTH",
"880 -57 OFFCURVE",
"901 -4 OFFCURVE",
"905 35 CURVE SMOOTH",
"905 182 LINE",
"878 266 OFFCURVE",
"848 332 OFFCURVE",
"778 385 CURVE SMOOTH",
"766 395 OFFCURVE",
"702 434 OFFCURVE",
"686 442 CURVE",
"678 438 OFFCURVE",
"623 467 OFFCURVE",
"623 479 CURVE SMOOTH",
"623 485 OFFCURVE",
"625 488 OFFCURVE",
"631 492 CURVE SMOOTH",
"637 494 OFFCURVE",
"682 516 OFFCURVE",
"686 518 CURVE SMOOTH",
"704 530 OFFCURVE",
"768 580 OFFCURVE",
"778 590 CURVE SMOOTH",
"784 596 OFFCURVE",
"809 629 OFFCURVE",
"813 639 CURVE SMOOTH",
"819 653 OFFCURVE",
"840 717 OFFCURVE",
"842 729 CURVE SMOOTH",
"842 770 LINE SMOOTH",
"842 885 OFFCURVE",
"805 940 OFFCURVE",
"721 1016 CURVE",
"692 1045 OFFCURVE",
"676 1059 OFFCURVE",
"637 1073 CURVE SMOOTH",
"590 1091 OFFCURVE",
"538 1094 OFFCURVE",
"487 1094 CURVE SMOOTH"
);
},
{
closed = 1;
nodes = (
"502 852 OFFCURVE",
"502 846 OFFCURVE",
"504 846 CURVE SMOOTH",
"508 846 OFFCURVE",
"508 852 OFFCURVE",
"504 852 CURVE SMOOTH"
);
}
);
width = 978;
}
);
unicode = 0033;
},
{
glyphname = four;
lastChange = "2012-12-26 13:06:26 -0800";
layers = (
{
layerId = "680DE9A7-CE01-463E-86B9-683CD586B94D";
name = "Bold Condensed";
paths = (
{
closed = 1;
nodes = (
"738 1110 OFFCURVE",
"700 1108 OFFCURVE",
"698 1108 CURVE SMOOTH",
"669 1106 OFFCURVE",
"671 1090 OFFCURVE",
"655 1065 CURVE SMOOTH",
"635 1034 OFFCURVE",
"612 1002 OFFCURVE",
"594 969 CURVE SMOOTH",
"553 903 OFFCURVE",
"455 745 OFFCURVE",
"453 743 CURVE SMOOTH",
"446 735 LINE",
"166 281 LINE",
"158 272 LINE SMOOTH",
"150 262 OFFCURVE",
"125 227 OFFCURVE",
"123 223 CURVE SMOOTH",
"119 217 OFFCURVE",
"86 153 OFFCURVE",
"82 147 CURVE SMOOTH",
"78 143 OFFCURVE",
"55 117 OFFCURVE",
"53 113 CURVE SMOOTH",
"39 84 OFFCURVE",
"39 68 OFFCURVE",
"39 41 CURVE SMOOTH",
"39 27 OFFCURVE",
"37 -35 OFFCURVE",
"53 -35 CURVE SMOOTH",
"580 -35 LINE SMOOTH",
"594 -35 OFFCURVE",
"600 -51 OFFCURVE",
"600 -63 CURVE SMOOTH",
"600 -393 LINE SMOOTH",
"600 -399 OFFCURVE",
"608 -410 OFFCURVE",
"614 -414 CURVE",
"670 -414 LINE SMOOTH",
"672 -414 OFFCURVE",
"682 -408 OFFCURVE",
"684 -408 CURVE SMOOTH",
"686 -408 OFFCURVE",
"696 -412 OFFCURVE",
"698 -414 CURVE",
"776 -414 LINE SMOOTH",
"782 -414 OFFCURVE",
"795 -391 OFFCURVE",
"797 -385 CURVE SMOOTH",
"799 -352 OFFCURVE",
"803 -195 OFFCURVE",
"803 -162 CURVE SMOOTH",
"803 -43 LINE",
"811 -35 LINE",
"1008 -35 LINE SMOOTH",
"1010 -35 OFFCURVE",
"1024 -31 OFFCURVE",
"1028 -29 CURVE SMOOTH",
"1030 -27 OFFCURVE",
"1034 -22 OFFCURVE",
"1034 -20 CURVE SMOOTH",
"1034 104 LINE SMOOTH",
"1034 114 OFFCURVE",
"1024 127 OFFCURVE",
"1014 127 CURVE SMOOTH",
"797 127 LINE",
"797 518 LINE",
"799 530 OFFCURVE",
"803 584 OFFCURVE",
"803 596 CURVE SMOOTH",
"803 614 OFFCURVE",
"797 754 OFFCURVE",
"797 772 CURVE SMOOTH",
"797 1094 LINE",
"782 1108 LINE",
"782 1108 OFFCURVE",
"758 1110 OFFCURVE",
"750 1110 CURVE SMOOTH"
);
},
{
closed = 1;
nodes = (
"561 -74 OFFCURVE",
"561 -80 OFFCURVE",
"565 -80 CURVE SMOOTH",
"569 -80 OFFCURVE",
"569 -74 OFFCURVE",
"565 -74 CURVE SMOOTH"
);
},
{
closed = 1;
nodes = (
"594 764 LINE",
"600 723 LINE",
"600 713 LINE SMOOTH",
"600 654 OFFCURVE",
"592 594 OFFCURVE",
"592 535 CURVE SMOOTH",
"592 496 OFFCURVE",
"600 461 OFFCURVE",
"600 424 CURVE SMOOTH",
"600 420 LINE SMOOTH",
"600 412 OFFCURVE",
"594 338 OFFCURVE",
"594 330 CURVE SMOOTH",
"594 324 OFFCURVE",
"600 278 OFFCURVE",
"600 272 CURVE SMOOTH",
"600 256 LINE SMOOTH",
"600 215 OFFCURVE",
"590 180 OFFCURVE",
"594 139 CURVE",
"580 127 LINE",
"476 129 OFFCURVE",
"372 119 OFFCURVE",
"268 119 CURVE SMOOTH",
"236 119 LINE SMOOTH",
"232 119 OFFCURVE",
"207 125 OFFCURVE",
"201 127 CURVE SMOOTH",
"191 129 OFFCURVE",
"186 129 OFFCURVE",
"186 137 CURVE SMOOTH",
"186 139 LINE",
"201 168 LINE SMOOTH",
"303 344 OFFCURVE",
"411 516 OFFCURVE",
"522 688 CURVE SMOOTH",
"538 713 OFFCURVE",
"580 772 OFFCURVE",
"580 772 CURVE"
);
}
);
width = 1097;
}
);
unicode = 0034;
},
{
glyphname = five;
lastChange = "2012-12-26 13:06:26 -0800";
layers = (
{
layerId = "680DE9A7-CE01-463E-86B9-683CD586B94D";
name = "Bold Condensed";
paths = (
{
closed = 1;
nodes = (
"795 1139 OFFCURVE",
"813 1089 OFFCURVE",
"774 1073 CURVE SMOOTH",
"747 1061 OFFCURVE",
"723 1059 OFFCURVE",
"694 1059 CURVE SMOOTH",
"624 1059 OFFCURVE",
"555 1081 OFFCURVE",
"483 1081 CURVE SMOOTH",
"454 1081 OFFCURVE",
"419 1084 OFFCURVE",
"403 1053 CURVE SMOOTH",
"326 905 LINE",
"326 897 LINE",
"236 735 LINE SMOOTH",
"234 733 OFFCURVE",
"229 719 OFFCURVE",
"227 715 CURVE SMOOTH",
"217 692 OFFCURVE",
"162 590 OFFCURVE",
"152 567 CURVE",
"172 547 LINE",
"369 477 LINE SMOOTH",
"371 475 OFFCURVE",
"385 465 OFFCURVE",
"389 463 CURVE SMOOTH",
"391 461 OFFCURVE",
"408 457 OFFCURVE",
"410 457 CURVE SMOOTH",
"467 428 OFFCURVE",
"512 412 OFFCURVE",
"557 371 CURVE",
"571 361 OFFCURVE",
"631 307 OFFCURVE",
"641 295 CURVE SMOOTH",
"643 293 OFFCURVE",
"653 278 OFFCURVE",
"655 272 CURVE SMOOTH",
"667 249 OFFCURVE",
"703 176 OFFCURVE",
"705 168 CURVE SMOOTH",
"713 145 OFFCURVE",
"713 105 OFFCURVE",
"713 80 CURVE SMOOTH",
"713 47 OFFCURVE",
"713 27 OFFCURVE",
"705 -8 CURVE SMOOTH",
"693 -63 OFFCURVE",
"627 -166 OFFCURVE",
"586 -197 CURVE SMOOTH",
"574 -205 OFFCURVE",
"534 -229 OFFCURVE",
"530 -231 CURVE SMOOTH",
"487 -245 OFFCURVE",
"440 -246 OFFCURVE",
"395 -246 CURVE SMOOTH",
"354 -246 OFFCURVE",
"332 -248 OFFCURVE",
"291 -240 CURVE SMOOTH",
"289 -238 OFFCURVE",
"278 -231 OFFCURVE",
"276 -231 CURVE SMOOTH",
"264 -229 OFFCURVE",
"209 -219 OFFCURVE",
"201 -217 CURVE SMOOTH",
"176 -217 LINE SMOOTH",
"117 -217 OFFCURVE",
"74 -283 OFFCURVE",
"74 -338 CURVE SMOOTH",
"74 -350 LINE",
"101 -401 OFFCURVE",
"176 -395 OFFCURVE",
"213 -422 CURVE",
"260 -416 OFFCURVE",
"303 -412 OFFCURVE",
"348 -408 CURVE SMOOTH",
"354 -406 OFFCURVE",
"383 -401 OFFCURVE",
"389 -399 CURVE SMOOTH",
"450 -385 OFFCURVE",
"522 -346 OFFCURVE",
"571 -309 CURVE SMOOTH",
"598 -289 OFFCURVE",
"693 -209 OFFCURVE",
"705 -197 CURVE SMOOTH",
"711 -191 OFFCURVE",
"756 -127 OFFCURVE",
"762 -119 CURVE SMOOTH",
"797 -72 OFFCURVE",
"834 8 OFFCURVE",
"852 63 CURVE SMOOTH",
"852 84 LINE SMOOTH",
"858 127 OFFCURVE",
"866 166 OFFCURVE",
"866 209 CURVE SMOOTH",
"866 268 OFFCURVE",
"856 322 OFFCURVE",
"831 379 CURVE SMOOTH",
"829 385 OFFCURVE",
"799 428 OFFCURVE",
"797 434 CURVE SMOOTH",
"795 436 OFFCURVE",
"790 447 OFFCURVE",
"788 449 CURVE SMOOTH",
"778 463 OFFCURVE",
"719 527 OFFCURVE",
"705 541 CURVE SMOOTH",
"641 582 LINE",
"641 582 OFFCURVE",
"635 588 OFFCURVE",
"635 590 CURVE SMOOTH",
"481 680 LINE",
"475 680 OFFCURVE",
"457 686 OFFCURVE",
"453 688 CURVE SMOOTH",
"441 692 OFFCURVE",
"381 723 OFFCURVE",
"369 729 CURVE SMOOTH",
"367 743 LINE SMOOTH",
"367 757 OFFCURVE",
"415 881 OFFCURVE",
"438 883 CURVE",
"454 881 OFFCURVE",
"535 870 OFFCURVE",
"551 870 CURVE",
"576 866 OFFCURVE",
"586 874 OFFCURVE",
"606 862 CURVE",
"633 862 OFFCURVE",
"755 868 OFFCURVE",
"782 870 CURVE SMOOTH",
"800 870 OFFCURVE",
"815 871 OFFCURVE",
"823 883 CURVE SMOOTH",
"827 887 OFFCURVE",
"850 922 OFFCURVE",
"852 926 CURVE SMOOTH",
"854 928 OFFCURVE",
"872 944 OFFCURVE",
"872 946 CURVE SMOOTH",
"874 950 OFFCURVE",
"885 991 OFFCURVE",
"887 995 CURVE SMOOTH",
"901 1030 OFFCURVE",
"915 1048 OFFCURVE",
"915 1085 CURVE SMOOTH",
"915 1102 LINE SMOOTH",
"911 1108 OFFCURVE",
"887 1133 OFFCURVE",
"881 1137 CURVE SMOOTH",
"879 1137 OFFCURVE",
"862 1139 OFFCURVE",
"856 1139 CURVE SMOOTH"
);
},
{
closed = 1;
nodes = (
"393 453 OFFCURVE",
"393 444 OFFCURVE",
"397 444 CURVE SMOOTH",
"399 444 OFFCURVE",
"399 453 OFFCURVE",
"397 453 CURVE SMOOTH"
);
}
);
width = 995;
}
);
unicode = 0035;
},
{
glyphname = six;
lastChange = "2012-12-26 13:06:26 -0800";
layers = (
{
layerId = "680DE9A7-CE01-463E-86B9-683CD586B94D";
name = "Bold Condensed";
paths = (
{
closed = 1;
nodes = (
"834 1507 OFFCURVE",
"801 1497 OFFCURVE",
"791 1493 CURVE SMOOTH",
"787 1493 OFFCURVE",
"752 1475 OFFCURVE",
"748 1473 CURVE SMOOTH",
"664 1444 LINE SMOOTH",
"658 1440 OFFCURVE",
"651 1431 OFFCURVE",
"649 1423 CURVE",
"412 1270 LINE SMOOTH",
"406 1266 OFFCURVE",
"342 1206 OFFCURVE",
"319 1186 CURVE",
"274 1139 OFFCURVE",
"238 1085 OFFCURVE",
"201 1030 CURVE SMOOTH",
"195 1022 OFFCURVE",
"188 1010 OFFCURVE",
"180 1004 CURVE",
"166 977 OFFCURVE",
"112 848 OFFCURVE",
"102 821 CURVE SMOOTH",
"102 817 OFFCURVE",
"88 744 OFFCURVE",
"82 715 CURVE SMOOTH",
"68 643 OFFCURVE",
"66 578 OFFCURVE",
"66 504 CURVE SMOOTH",
"66 481 OFFCURVE",
"68 422 OFFCURVE",
"68 420 CURVE SMOOTH",
"72 391 OFFCURVE",
"105 260 OFFCURVE",
"117 231 CURVE SMOOTH",
"127 206 OFFCURVE",
"185 104 OFFCURVE",
"201 84 CURVE",
"270 29 LINE",
"279 20 LINE SMOOTH",
"293 12 OFFCURVE",
"367 -23 OFFCURVE",
"383 -29 CURVE SMOOTH",
"406 -35 OFFCURVE",
"507 -55 OFFCURVE",
"530 -55 CURVE",
"544 -43 OFFCURVE",
"555 -51 OFFCURVE",
"573 -49 CURVE SMOOTH",
"587 -47 OFFCURVE",
"662 -33 OFFCURVE",
"678 -29 CURVE SMOOTH",
"680 -29 OFFCURVE",
"690 -22 OFFCURVE",
"692 -20 CURVE SMOOTH",
"694 -20 OFFCURVE",
"717 -14 OFFCURVE",
"719 -14 CURVE SMOOTH",
"746 -2 OFFCURVE",
"819 37 OFFCURVE",
"825 41 CURVE SMOOTH",
"841 53 OFFCURVE",
"905 117 OFFCURVE",
"915 133 CURVE SMOOTH",
"917 137 OFFCURVE",
"922 152 OFFCURVE",
"924 154 CURVE SMOOTH",
"928 164 OFFCURVE",
"969 248 OFFCURVE",
"973 260 CURVE SMOOTH",
"973 262 OFFCURVE",
"979 291 OFFCURVE",
"979 295 CURVE SMOOTH",
"995 352 OFFCURVE",
"1001 385 OFFCURVE",
"1001 446 CURVE SMOOTH",
"1001 503 OFFCURVE",
"998 576 OFFCURVE",
"973 631 CURVE SMOOTH",
"967 645 OFFCURVE",
"921 733 OFFCURVE",
"909 758 CURVE SMOOTH",
"907 762 OFFCURVE",
"897 776 OFFCURVE",
"895 778 CURVE SMOOTH",
"883 792 OFFCURVE",
"833 842 OFFCURVE",
"825 848 CURVE SMOOTH",
"823 850 OFFCURVE",
"801 860 OFFCURVE",
"797 862 CURVE SMOOTH",
"795 864 OFFCURVE",
"778 877 OFFCURVE",
"776 877 CURVE SMOOTH",
"751 887 OFFCURVE",
"672 911 OFFCURVE",
"664 911 CURVE SMOOTH",
"662 911 OFFCURVE",
"620 913 OFFCURVE",
"606 913 CURVE SMOOTH",
"571 913 OFFCURVE",
"535 917 OFFCURVE",
"502 905 CURVE SMOOTH",
"479 895 OFFCURVE",
"371 852 OFFCURVE",
"348 842 CURVE",
"344 842 LINE SMOOTH",
"336 842 OFFCURVE",
"334 852 OFFCURVE",
"334 858 CURVE SMOOTH",
"334 885 OFFCURVE",
"344 891 OFFCURVE",
"354 911 CURVE SMOOTH",
"358 917 OFFCURVE",
"387 975 OFFCURVE",
"391 981 CURVE SMOOTH",
"395 991 OFFCURVE",
"420 1026 OFFCURVE",
"426 1030 CURVE SMOOTH",
"614 1235 LINE SMOOTH",
"618 1239 OFFCURVE",
"684 1289 OFFCURVE",
"707 1305 CURVE SMOOTH",
"709 1307 OFFCURVE",
"731 1317 OFFCURVE",
"733 1319 CURVE SMOOTH",
"737 1321 OFFCURVE",
"760 1337 OFFCURVE",
"762 1339 CURVE SMOOTH",
"930 1432 LINE",
"930 1452 LINE SMOOTH",
"930 1454 OFFCURVE",
"886 1489 OFFCURVE",
"866 1501 CURVE SMOOTH",
"862 1503 OFFCURVE",
"844 1507 OFFCURVE",
"840 1507 CURVE SMOOTH"
);
},
{
closed = 1;
nodes = (
"324 369 OFFCURVE",
"324 360 OFFCURVE",
"328 360 CURVE SMOOTH",
"330 360 OFFCURVE",
"330 369 OFFCURVE",
"328 369 CURVE SMOOTH"
);
},
{
closed = 1;
nodes = (
"522 766 OFFCURVE",
"543 764 OFFCURVE",
"545 764 CURVE SMOOTH",
"561 762 OFFCURVE",
"625 741 OFFCURVE",
"635 735 CURVE SMOOTH",
"645 731 OFFCURVE",
"684 702 OFFCURVE",
"692 694 CURVE SMOOTH",
"698 688 OFFCURVE",
"727 643 OFFCURVE",
"733 631 CURVE SMOOTH",
"737 627 OFFCURVE",
"754 579 OFFCURVE",
"756 575 CURVE SMOOTH",
"756 573 OFFCURVE",
"762 563 OFFCURVE",
"762 561 CURVE SMOOTH",
"762 561 OFFCURVE",
"768 555 OFFCURVE",
"768 553 CURVE SMOOTH",
"770 551 OFFCURVE",
"768 528 OFFCURVE",
"768 526 CURVE SMOOTH",
"770 518 OFFCURVE",
"782 463 OFFCURVE",
"782 457 CURVE SMOOTH",
"782 453 OFFCURVE",
"784 407 OFFCURVE",
"784 389 CURVE SMOOTH",
"784 309 OFFCURVE",
"772 242 OFFCURVE",
"741 168 CURVE SMOOTH",
"731 148 OFFCURVE",
"721 143 OFFCURVE",
"707 127 CURVE SMOOTH",
"705 125 OFFCURVE",
"694 106 OFFCURVE",
"692 104 CURVE SMOOTH",
"688 100 OFFCURVE",
"668 86 OFFCURVE",
"664 84 CURVE SMOOTH",
"648 76 OFFCURVE",
"594 51 OFFCURVE",
"586 49 CURVE",
"559 49 LINE SMOOTH",
"498 49 OFFCURVE",
"434 51 OFFCURVE",
"397 104 CURVE SMOOTH",
"356 165 OFFCURVE",
"325 221 OFFCURVE",
"305 295 CURVE SMOOTH",
"301 311 OFFCURVE",
"293 365 OFFCURVE",
"293 371 CURVE SMOOTH",
"293 680 LINE SMOOTH",
"293 711 OFFCURVE",
"392 746 OFFCURVE",
"412 750 CURVE SMOOTH",
"424 754 OFFCURVE",
"473 764 OFFCURVE",
"481 764 CURVE SMOOTH",
"483 764 OFFCURVE",
"506 766 OFFCURVE",
"514 766 CURVE SMOOTH"
);
},
{
closed = 1;
nodes = (
"512 649 OFFCURVE",
"512 641 OFFCURVE",
"516 641 CURVE SMOOTH",
"520 641 OFFCURVE",
"520 649 OFFCURVE",
"516 649 CURVE SMOOTH"
);
},
{
closed = 1;
nodes = (
"590 664 OFFCURVE",
"590 655 OFFCURVE",
"594 655 CURVE SMOOTH",
"598 655 OFFCURVE",
"598 664 OFFCURVE",
"594 664 CURVE SMOOTH"
);
},
{
closed = 1;
nodes = (
"801 1329 OFFCURVE",
"801 1321 OFFCURVE",
"805 1321 CURVE SMOOTH",
"807 1321 OFFCURVE",
"807 1329 OFFCURVE",
"805 1329 CURVE SMOOTH"
);
}
);
width = 1073;
}
);
unicode = 0036;
},
{
glyphname = seven;
lastChange = "2012-12-26 13:06:26 -0800";
layers = (
{
layerId = "680DE9A7-CE01-463E-86B9-683CD586B94D";
name = "Bold Condensed";
paths = (
{
closed = 1;
nodes = (
"246 1059 LINE SMOOTH",
"236 1059 OFFCURVE",
"186 1053 OFFCURVE",
"176 1053 CURVE SMOOTH",
"141 1047 OFFCURVE",
"133 992 OFFCURVE",
"133 969 CURVE",
"63 723 LINE",
"63 715 LINE SMOOTH",
"63 692 OFFCURVE",
"99 694 OFFCURVE",
"113 694 CURVE SMOOTH",
"127 694 OFFCURVE",
"154 691 OFFCURVE",
"162 709 CURVE SMOOTH",
"189 764 OFFCURVE",
"194 820 OFFCURVE",
"260 834 CURVE SMOOTH",
"272 838 OFFCURVE",
"332 852 OFFCURVE",
"344 856 CURVE",
"752 856 LINE SMOOTH",
"772 856 OFFCURVE",
"780 841 OFFCURVE",
"780 823 CURVE SMOOTH",
"780 821 OFFCURVE",
"778 813 OFFCURVE",
"778 813 CURVE",
"702 651 LINE",
"690 579 OFFCURVE",
"643 497 OFFCURVE",
"618 434 CURVE SMOOTH",
"579 336 OFFCURVE",
"545 231 OFFCURVE",
"506 133 CURVE SMOOTH",
"504 127 OFFCURVE",
"479 82 OFFCURVE",
"477 78 CURVE SMOOTH",
"475 72 OFFCURVE",
"465 33 OFFCURVE",
"463 29 CURVE SMOOTH",
"461 23 OFFCURVE",
"438 -23 OFFCURVE",
"436 -29 CURVE SMOOTH",
"424 -56 OFFCURVE",
"375 -188 OFFCURVE",
"365 -217 CURVE",
"345 -240 OFFCURVE",
"354 -239 OFFCURVE",
"344 -266 CURVE SMOOTH",
"342 -272 OFFCURVE",
"317 -324 OFFCURVE",
"315 -330 CURVE SMOOTH",
"301 -379 LINE",
"307 -397 OFFCURVE",
"326 -414 OFFCURVE",
"344 -414 CURVE SMOOTH",
"430 -414 OFFCURVE",
"428 -340 OFFCURVE",
"457 -274 CURVE SMOOTH",
"459 -270 OFFCURVE",
"475 -242 OFFCURVE",
"477 -240 CURVE SMOOTH",
"495 -199 OFFCURVE",
"503 -150 OFFCURVE",
"526 -113 CURVE SMOOTH",
"528 -111 OFFCURVE",
"539 -94 OFFCURVE",
"541 -92 CURVE SMOOTH",
"575 0 LINE SMOOTH",
"577 4 OFFCURVE",
"582 25 OFFCURVE",
"582 29 CURVE SMOOTH",
"752 434 LINE",
"752 449 LINE",
"989 1030 LINE",
"989 1038 LINE SMOOTH",
"989 1044 OFFCURVE",
"989 1049 OFFCURVE",
"983 1053 CURVE",
"793 1049 OFFCURVE",
"606 1059 OFFCURVE",
"418 1059 CURVE SMOOTH"
);
}
);
width = 1038;
}
);
unicode = 0037;
},
{
glyphname = eight;
lastChange = "2012-12-26 13:06:26 -0800";
layers = (
{
layerId = "680DE9A7-CE01-463E-86B9-683CD586B94D";
name = "Bold Condensed";
paths = (
{
closed = 1;
nodes = (
"430 1501 LINE",
"428 1499 OFFCURVE",
"414 1495 OFFCURVE",
"410 1493 CURVE SMOOTH",
"408 1493 OFFCURVE",
"397 1487 OFFCURVE",
"395 1487 CURVE SMOOTH",
"311 1466 LINE SMOOTH",
"297 1460 OFFCURVE",
"243 1431 OFFCURVE",
"233 1423 CURVE SMOOTH",
"223 1415 OFFCURVE",
"170 1362 OFFCURVE",
"158 1346 CURVE SMOOTH",
"103 1283 OFFCURVE",
"86 1208 OFFCURVE",
"86 1126 CURVE SMOOTH",
"86 1102 LINE",
"90 1084 OFFCURVE",
"109 1009 OFFCURVE",
"115 995 CURVE SMOOTH",
"162 870 OFFCURVE",
"267 803 OFFCURVE",
"367 723 CURVE SMOOTH",
"375 717 OFFCURVE",
"375 717 OFFCURVE",
"375 709 CURVE SMOOTH",
"375 697 OFFCURVE",
"372 696 OFFCURVE",
"360 688 CURVE",
"350 678 OFFCURVE",
"258 612 OFFCURVE",
"248 602 CURVE SMOOTH",
"230 586 OFFCURVE",
"151 503 OFFCURVE",
"135 483 CURVE",
"127 469 OFFCURVE",
"94 401 OFFCURVE",
"86 385 CURVE",
"80 367 OFFCURVE",
"80 335 OFFCURVE",
"80 315 CURVE SMOOTH",
"80 274 OFFCURVE",
"77 219 OFFCURVE",
"100 182 CURVE SMOOTH",
"114 162 OFFCURVE",
"154 102 OFFCURVE",
"158 98 CURVE SMOOTH",
"238 -4 OFFCURVE",
"389 -49 OFFCURVE",
"514 -49 CURVE SMOOTH",
"704 -49 OFFCURVE",
"847 53 OFFCURVE",
"915 231 CURVE",
"913 231 OFFCURVE",
"913 238 OFFCURVE",
"915 238 CURVE",
"915 242 OFFCURVE",
"922 264 OFFCURVE",
"922 266 CURVE SMOOTH",
"922 326 LINE SMOOTH",
"922 476 OFFCURVE",
"836 600 OFFCURVE",
"725 694 CURVE SMOOTH",
"641 758 LINE SMOOTH",
"637 760 OFFCURVE",
"623 776 OFFCURVE",
"621 778 CURVE",
"621 782 LINE SMOOTH",
"621 805 OFFCURVE",
"648 811 OFFCURVE",
"662 821 CURVE SMOOTH",
"709 852 OFFCURVE",
"753 901 OFFCURVE",
"788 940 CURVE SMOOTH",
"790 942 OFFCURVE",
"801 959 OFFCURVE",
"803 961 CURVE SMOOTH",
"823 981 LINE SMOOTH",
"833 995 OFFCURVE",
"862 1045 OFFCURVE",
"866 1053 CURVE SMOOTH",
"868 1061 OFFCURVE",
"889 1128 OFFCURVE",
"893 1151 CURVE",
"893 1171 LINE SMOOTH",
"893 1173 OFFCURVE",
"887 1184 OFFCURVE",
"887 1186 CURVE SMOOTH",
"877 1227 OFFCURVE",
"872 1266 OFFCURVE",
"852 1305 CURVE SMOOTH",
"844 1317 OFFCURVE",
"819 1356 OFFCURVE",
"817 1360 CURVE SMOOTH",
"805 1372 OFFCURVE",
"735 1432 OFFCURVE",
"719 1444 CURVE SMOOTH",
"653 1491 OFFCURVE",
"563 1501 OFFCURVE",
"487 1501 CURVE SMOOTH"
);
},
{
closed = 1;
nodes = (
"490 639 OFFCURVE",
"514 602 OFFCURVE",
"537 582 CURVE SMOOTH",
"600 523 OFFCURVE",
"662 469 OFFCURVE",
"711 393 CURVE SMOOTH",
"738 350 OFFCURVE",
"739 309 OFFCURVE",
"739 260 CURVE SMOOTH",
"739 164 OFFCURVE",
"692 72 OFFCURVE",
"592 49 CURVE",
"528 49 LINE SMOOTH",
"495 49 OFFCURVE",
"463 45 OFFCURVE",
"430 55 CURVE SMOOTH",
"332 90 OFFCURVE",
"276 195 OFFCURVE",
"276 295 CURVE SMOOTH",
"276 358 OFFCURVE",
"293 412 OFFCURVE",
"311 469 CURVE SMOOTH",
"313 473 OFFCURVE",
"317 496 OFFCURVE",
"317 498 CURVE SMOOTH",
"327 518 OFFCURVE",
"348 527 OFFCURVE",
"354 547 CURVE",
"444 639 LINE",
"457 639 LINE SMOOTH"
);
},
{
closed = 1;
nodes = (
"584 1409 OFFCURVE",
"635 1364 OFFCURVE",
"676 1290 CURVE SMOOTH",
"694 1257 OFFCURVE",
"719 1215 OFFCURVE",
"719 1176 CURVE SMOOTH",
"719 1084 OFFCURVE",
"692 1033 OFFCURVE",
"647 961 CURVE SMOOTH",
"633 938 OFFCURVE",
"571 842 OFFCURVE",
"551 842 CURVE SMOOTH",
"518 842 OFFCURVE",
"496 879 OFFCURVE",
"473 897 CURVE SMOOTH",
"471 899 OFFCURVE",
"461 903 OFFCURVE",
"459 905 CURVE SMOOTH",
"422 932 OFFCURVE",
"383 971 OFFCURVE",
"354 1004 CURVE SMOOTH",
"305 1057 OFFCURVE",
"268 1114 OFFCURVE",
"268 1188 CURVE SMOOTH",
"268 1208 OFFCURVE",
"268 1244 OFFCURVE",
"276 1262 CURVE SMOOTH",
"315 1346 OFFCURVE",
"400 1409 OFFCURVE",
"494 1409 CURVE SMOOTH"
);
}
);
width = 1013;
}
);
unicode = 0038;
},
{
glyphname = nine;
lastChange = "2012-12-26 13:06:26 -0800";
layers = (
{
layerId = "680DE9A7-CE01-463E-86B9-683CD586B94D";
name = "Bold Condensed";
paths = (
{
closed = 1;
nodes = (
"463 1110 OFFCURVE",
"367 1110 OFFCURVE",
"295 1053 CURVE SMOOTH",
"277 1037 OFFCURVE",
"217 987 OFFCURVE",
"209 981 CURVE",
"209 981 OFFCURVE",
"199 963 OFFCURVE",
"197 961 CURVE SMOOTH",
"193 957 OFFCURVE",
"178 942 OFFCURVE",
"174 940 CURVE",
"111 836 OFFCURVE",
"68 737 OFFCURVE",
"68 614 CURVE SMOOTH",
"68 606 OFFCURVE",
"70 569 OFFCURVE",
"70 561 CURVE",
"72 559 OFFCURVE",
"76 549 OFFCURVE",
"76 547 CURVE SMOOTH",
"78 539 OFFCURVE",
"88 471 OFFCURVE",
"90 463 CURVE SMOOTH",
"98 432 OFFCURVE",
"109 398 OFFCURVE",
"125 371 CURVE SMOOTH",
"184 283 OFFCURVE",
"254 195 OFFCURVE",
"365 168 CURVE SMOOTH",
"406 158 OFFCURVE",
"449 154 OFFCURVE",
"492 154 CURVE SMOOTH",
"504 154 LINE",
"529 158 OFFCURVE",
"602 172 OFFCURVE",
"610 176 CURVE SMOOTH",
"618 178 OFFCURVE",
"680 213 OFFCURVE",
"686 217 CURVE SMOOTH",
"692 219 OFFCURVE",
"717 229 OFFCURVE",
"721 231 CURVE",
"731 229 OFFCURVE",
"729 215 OFFCURVE",
"729 209 CURVE SMOOTH",
"729 180 OFFCURVE",
"716 152 OFFCURVE",
"700 127 CURVE SMOOTH",
"686 104 OFFCURVE",
"618 0 OFFCURVE",
"602 -20 CURVE SMOOTH",
"600 -24 OFFCURVE",
"584 -39 OFFCURVE",
"582 -43 CURVE SMOOTH",
"580 -43 OFFCURVE",
"575 -55 OFFCURVE",
"575 -55 CURVE",
"548 -84 OFFCURVE",
"512 -124 OFFCURVE",
"477 -147 CURVE SMOOTH",
"469 -151 OFFCURVE",
"414 -186 OFFCURVE",
"406 -190 CURVE SMOOTH",
"404 -190 OFFCURVE",
"381 -209 OFFCURVE",
"379 -211 CURVE SMOOTH",
"359 -221 OFFCURVE",
"295 -256 OFFCURVE",
"287 -260 CURVE SMOOTH",
"154 -301 LINE SMOOTH",
"136 -309 OFFCURVE",
"119 -314 OFFCURVE",
"119 -334 CURVE SMOOTH",
"119 -357 OFFCURVE",
"161 -399 OFFCURVE",
"186 -399 CURVE SMOOTH",
"188 -399 LINE SMOOTH",
"190 -399 OFFCURVE",
"207 -393 OFFCURVE",
"209 -393 CURVE SMOOTH",
"252 -393 LINE SMOOTH",
"256 -393 OFFCURVE",
"291 -381 OFFCURVE",
"295 -379 CURVE SMOOTH",
"301 -377 OFFCURVE",
"350 -367 OFFCURVE",
"356 -365 CURVE SMOOTH",
"360 -365 OFFCURVE",
"375 -358 OFFCURVE",
"379 -358 CURVE SMOOTH",
"404 -346 OFFCURVE",
"488 -307 OFFCURVE",
"498 -301 CURVE SMOOTH",
"549 -274 OFFCURVE",
"594 -234 OFFCURVE",
"645 -203 CURVE",
"784 -63 LINE SMOOTH",
"788 -59 OFFCURVE",
"817 -24 OFFCURVE",
"819 -20 CURVE",
"823 -18 OFFCURVE",
"846 4 OFFCURVE",
"848 6 CURVE SMOOTH",
"959 143 OFFCURVE",
"995 356 OFFCURVE",
"995 526 CURVE SMOOTH",
"995 684 OFFCURVE",
"971 779 OFFCURVE",
"891 920 CURVE SMOOTH",
"877 932 LINE SMOOTH",
"873 936 OFFCURVE",
"852 965 OFFCURVE",
"848 969 CURVE SMOOTH",
"758 1059 OFFCURVE",
"682 1110 OFFCURVE",
"551 1110 CURVE SMOOTH"
);
},
{
closed = 1;
nodes = (
"402 -31 OFFCURVE",
"399 -35 OFFCURVE",
"399 -39 CURVE SMOOTH",
"399 -43 OFFCURVE",
"402 -47 OFFCURVE",
"406 -49 CURVE",
"406 -29 LINE"
);
},
{
closed = 1;
nodes = (
"387 -12 OFFCURVE",
"387 -31 OFFCURVE",
"393 -29 CURVE SMOOTH",
"397 -27 OFFCURVE",
"397 -16 OFFCURVE",
"393 -14 CURVE SMOOTH"
);
},
{
closed = 1;
nodes = (
"555 1018 OFFCURVE",
"591 1005 OFFCURVE",
"616 995 CURVE SMOOTH",
"618 995 OFFCURVE",
"639 981 OFFCURVE",
"645 975 CURVE SMOOTH",
"661 961 OFFCURVE",
"700 922 OFFCURVE",
"700 920 CURVE SMOOTH",
"758 778 LINE SMOOTH",
"762 768 OFFCURVE",
"780 624 OFFCURVE",
"784 575 CURVE SMOOTH",
"784 573 OFFCURVE",
"786 524 OFFCURVE",
"786 508 CURVE SMOOTH",
"786 488 OFFCURVE",
"784 432 OFFCURVE",
"784 428 CURVE SMOOTH",
"784 424 OFFCURVE",
"780 399 OFFCURVE",
"778 393 CURVE SMOOTH",
"774 379 OFFCURVE",
"772 358 OFFCURVE",
"758 350 CURVE SMOOTH",
"744 344 OFFCURVE",
"680 313 OFFCURVE",
"666 309 CURVE SMOOTH",
"633 295 OFFCURVE",
"600 295 OFFCURVE",
"567 287 CURVE",
"561 287 LINE",
"553 289 OFFCURVE",
"497 307 OFFCURVE",
"489 309 CURVE SMOOTH",
"487 309 OFFCURVE",
"471 307 OFFCURVE",
"469 309 CURVE SMOOTH",
"444 315 OFFCURVE",
"426 326 OFFCURVE",
"406 344 CURVE SMOOTH",
"379 369 OFFCURVE",
"334 410 OFFCURVE",
"322 449 CURVE SMOOTH",
"302 525 OFFCURVE",
"281 606 OFFCURVE",
"281 684 CURVE SMOOTH",
"281 688 LINE",
"287 729 OFFCURVE",
"289 774 OFFCURVE",
"301 813 CURVE SMOOTH",
"303 819 OFFCURVE",
"328 864 OFFCURVE",
"330 870 CURVE",
"330 877 LINE",
"363 955 OFFCURVE",
"434 1018 OFFCURVE",
"522 1018 CURVE SMOOTH"
);
}
);
width = 1069;
}
);
unicode = 0039;
},
{
glyphname = comma;
lastChange = "2012-12-26 13:06:26 -0800";
layers = (
{
layerId = "680DE9A7-CE01-463E-86B9-683CD586B94D";
name = "Bold Condensed";
paths = (
{
closed = 1;
nodes = (
"162 752 OFFCURVE",
"121 737 OFFCURVE",
"88 659 CURVE",
"86 616 LINE SMOOTH",
"86 567 OFFCURVE",
"96 537 OFFCURVE",
"137 506 CURVE SMOOTH",
"143 500 OFFCURVE",
"164 487 OFFCURVE",
"164 487 CURVE",
"270 487 LINE SMOOTH",
"272 487 OFFCURVE",
"293 475 OFFCURVE",
"299 469 CURVE SMOOTH",
"326 444 OFFCURVE",
"334 408 OFFCURVE",
"334 373 CURVE SMOOTH",
"334 303 OFFCURVE",
"319 245 OFFCURVE",
"276 188 CURVE SMOOTH",
"256 168 LINE SMOOTH",
"252 166 OFFCURVE",
"198 141 OFFCURVE",
"178 133 CURVE SMOOTH",
"176 131 OFFCURVE",
"162 127 OFFCURVE",
"158 127 CURVE SMOOTH",
"119 117 OFFCURVE",
"78 118 OFFCURVE",
"39 104 CURVE",
"21 100 OFFCURVE",
"25 65 OFFCURVE",
"25 51 CURVE SMOOTH",
"25 35 OFFCURVE",
"23 26 OFFCURVE",
"39 14 CURVE",
"68 14 LINE SMOOTH",
"160 14 OFFCURVE",
"221 29 OFFCURVE",
"299 84 CURVE",
"344 119 OFFCURVE",
"389 160 OFFCURVE",
"418 211 CURVE SMOOTH",
"428 231 OFFCURVE",
"459 291 OFFCURVE",
"459 295 CURVE SMOOTH",
"461 299 OFFCURVE",
"475 387 OFFCURVE",
"481 420 CURVE SMOOTH",
"481 428 LINE SMOOTH",
"481 489 OFFCURVE",
"467 537 OFFCURVE",
"444 596 CURVE SMOOTH",
"428 643 OFFCURVE",
"402 668 OFFCURVE",
"369 709 CURVE SMOOTH",
"340 744 OFFCURVE",
"287 752 OFFCURVE",
"246 752 CURVE SMOOTH"
);
}
);
width = 507;
}
);
unicode = 002C;
},
{
glyphname = quoteleft;
lastChange = "2012-12-26 13:06:16 -0800";
layers = (
{
layerId = "680DE9A7-CE01-463E-86B9-683CD586B94D";
name = "Bold Condensed";
paths = (
{
closed = 1;
nodes = (
"289 1593 OFFCURVE",
"281 1593 OFFCURVE",
"281 1591 CURVE",
"279 1591 OFFCURVE",
"260 1579 OFFCURVE",
"258 1579 CURVE SMOOTH",
"254 1575 OFFCURVE",
"207 1554 OFFCURVE",
"203 1550 CURVE SMOOTH",
"189 1538 OFFCURVE",
"118 1474 OFFCURVE",
"104 1458 CURVE SMOOTH",
"53 1403 OFFCURVE",
"30 1327 OFFCURVE",
"20 1255 CURVE SMOOTH",
"20 1253 OFFCURVE",
"18 1224 OFFCURVE",
"18 1214 CURVE SMOOTH",
"18 1081 OFFCURVE",
"96 946 OFFCURVE",
"246 946 CURVE SMOOTH",
"287 946 LINE",
"289 948 OFFCURVE",
"299 952 OFFCURVE",
"301 954 CURVE SMOOTH",
"311 962 OFFCURVE",
"346 998 OFFCURVE",
"350 1004 CURVE SMOOTH",
"366 1024 OFFCURVE",
"365 1034 OFFCURVE",
"365 1061 CURVE SMOOTH",
"365 1106 OFFCURVE",
"350 1155 OFFCURVE",
"301 1171 CURVE SMOOTH",
"289 1175 OFFCURVE",
"186 1202 OFFCURVE",
"174 1206 CURVE SMOOTH",
"149 1214 OFFCURVE",
"143 1237 OFFCURVE",
"139 1262 CURVE SMOOTH",
"139 1294 LINE SMOOTH",
"139 1323 OFFCURVE",
"137 1374 OFFCURVE",
"160 1397 CURVE",
"166 1399 OFFCURVE",
"199 1428 OFFCURVE",
"203 1432 CURVE SMOOTH",
"223 1452 LINE SMOOTH",
"243 1468 OFFCURVE",
"330 1507 OFFCURVE",
"330 1536 CURVE SMOOTH",
"330 1552 OFFCURVE",
"311 1593 OFFCURVE",
"291 1593 CURVE SMOOTH"
);
}
);
width = 393;
}
);
unicode = 2018;
},
{
glyphname = _111;
lastChange = "2012-12-26 13:06:26 -0800";
layers = (
{
layerId = "680DE9A7-CE01-463E-86B9-683CD586B94D";
name = "Bold Condensed";
paths = (
{
closed = 1;
nodes = (
"1477 1706 LINE SMOOTH",
"1473 1706 OFFCURVE",
"1444 1702 OFFCURVE",
"1444 1692 CURVE SMOOTH",
"1444 1638 LINE SMOOTH",
"1444 1636 OFFCURVE",
"1536 1601 OFFCURVE",
"1556 1585 CURVE SMOOTH",
"1576 1571 OFFCURVE",
"1645 1511 OFFCURVE",
"1655 1503 CURVE SMOOTH",
"1659 1499 OFFCURVE",
"1681 1472 OFFCURVE",
"1683 1466 CURVE SMOOTH",
"1685 1413 OFFCURVE",
"1686 1171 OFFCURVE",
"1686 1120 CURVE SMOOTH",
"1686 1028 OFFCURVE",
"1685 786 OFFCURVE",
"1683 774 CURVE",
"1683 758 OFFCURVE",
"1677 624 OFFCURVE",
"1677 608 CURVE SMOOTH",
"1677 586 LINE SMOOTH",
"1675 574 OFFCURVE",
"1671 537 OFFCURVE",
"1669 535 CURVE SMOOTH",
"1653 490 OFFCURVE",
"1632 442 OFFCURVE",
"1587 422 CURVE",
"1481 397 LINE SMOOTH",
"1456 391 OFFCURVE",
"1458 371 OFFCURVE",
"1458 348 CURVE SMOOTH",
"1458 330 LINE",
"1475 324 LINE",
"1985 324 LINE SMOOTH",
"1987 324 OFFCURVE",
"1993 334 OFFCURVE",
"1993 338 CURVE SMOOTH",
"1993 383 LINE",
"1991 387 OFFCURVE",
"1974 404 OFFCURVE",
"1970 406 CURVE SMOOTH",
"1966 408 OFFCURVE",
"1929 412 OFFCURVE",
"1925 414 CURVE SMOOTH",
"1913 418 OFFCURVE",
"1853 445 OFFCURVE",
"1841 451 CURVE",
"1814 488 OFFCURVE",
"1798 535 OFFCURVE",
"1790 580 CURVE",
"1782 789 OFFCURVE",
"1780 999 OFFCURVE",
"1774 1210 CURVE SMOOTH",
"1774 1346 LINE",
"1782 1360 LINE",
"1800 1358 OFFCURVE",
"1802 1343 OFFCURVE",
"1812 1331 CURVE",
"1816 1323 OFFCURVE",
"1843 1292 OFFCURVE",
"1849 1286 CURVE SMOOTH",
"1851 1282 OFFCURVE",
"1870 1266 OFFCURVE",
"1872 1264 CURVE SMOOTH",
"1876 1258 OFFCURVE",
"1905 1214 OFFCURVE",
"1911 1210 CURVE",
"1915 1202 OFFCURVE",
"1964 1149 OFFCURVE",
"1970 1143 CURVE SMOOTH",
"1972 1139 OFFCURVE",
"1991 1108 OFFCURVE",
"1993 1104 CURVE SMOOTH",
"2040 1038 OFFCURVE",
"2099 975 OFFCURVE",
"2150 909 CURVE SMOOTH",
"2168 884 OFFCURVE",
"2185 854 OFFCURVE",
"2210 834 CURVE",
"2646 301 LINE SMOOTH",
"2650 295 OFFCURVE",
"2663 285 OFFCURVE",
"2669 285 CURVE SMOOTH",
"2744 293 LINE SMOOTH",
"2750 293 OFFCURVE",
"2753 316 OFFCURVE",
"2753 324 CURVE SMOOTH",
"2753 330 LINE",
"2749 367 OFFCURVE",
"2726 528 OFFCURVE",
"2722 563 CURVE",
"2722 1241 LINE",
"2724 1241 OFFCURVE",
"2730 1245 OFFCURVE",
"2730 1247 CURVE SMOOTH",
"2730 1249 OFFCURVE",
"2722 1262 OFFCURVE",
"2722 1264 CURVE SMOOTH",
"2722 1276 LINE SMOOTH",
"2722 1339 OFFCURVE",
"2722 1405 OFFCURVE",
"2736 1466 CURVE SMOOTH",
"2740 1478 OFFCURVE",
"2751 1516 OFFCURVE",
"2753 1518 CURVE SMOOTH",
"2753 1520 OFFCURVE",
"2779 1553 OFFCURVE",
"2789 1563 CURVE SMOOTH",
"2801 1577 OFFCURVE",
"2810 1587 OFFCURVE",
"2826 1593 CURVE SMOOTH",
"2838 1597 OFFCURVE",
"2898 1614 OFFCURVE",
"2910 1616 CURVE",
"2924 1622 OFFCURVE",
"2925 1628 OFFCURVE",
"2925 1640 CURVE SMOOTH",
"2925 1656 OFFCURVE",
"2922 1667 OFFCURVE",
"2916 1683 CURVE",
"2766 1691 OFFCURVE",
"2616 1694 OFFCURVE",
"2466 1698 CURVE SMOOTH",
"2464 1698 OFFCURVE",
"2449 1700 OFFCURVE",
"2445 1700 CURVE SMOOTH",
"2437 1700 OFFCURVE",
"2419 1700 OFFCURVE",
"2413 1692 CURVE SMOOTH",
"2413 1690 OFFCURVE",
"2408 1663 OFFCURVE",
"2406 1653 CURVE",
"2406 1647 LINE",
"2408 1643 OFFCURVE",
"2425 1626 OFFCURVE",
"2429 1624 CURVE SMOOTH",
"2443 1620 OFFCURVE",
"2511 1599 OFFCURVE",
"2525 1593 CURVE SMOOTH",
"2527 1593 OFFCURVE",
"2554 1571 OFFCURVE",
"2564 1563 CURVE SMOOTH",
"2617 1518 OFFCURVE",
"2619 1434 OFFCURVE",
"2623 1368 CURVE SMOOTH",
"2625 1352 OFFCURVE",
"2630 1278 OFFCURVE",
"2632 1264 CURVE",
"2632 662 LINE SMOOTH",
"2632 656 OFFCURVE",
"2623 653 OFFCURVE",
"2619 653 CURVE SMOOTH",
"2615 653 LINE",
"2615 655 OFFCURVE",
"2603 674 OFFCURVE",
"2601 676 CURVE SMOOTH",
"2466 842 LINE SMOOTH",
"2443 871 OFFCURVE",
"2369 965 OFFCURVE",
"2361 977 CURVE SMOOTH",
"2357 981 OFFCURVE",
"2347 1002 OFFCURVE",
"2345 1008 CURVE",
"2259 1102 OFFCURVE",
"2165 1217 OFFCURVE",
"2083 1315 CURVE SMOOTH",
"2009 1403 OFFCURVE",
"1942 1501 OFFCURVE",
"1864 1585 CURVE SMOOTH",
"1860 1591 OFFCURVE",
"1816 1632 OFFCURVE",
"1812 1638 CURVE SMOOTH",
"1810 1640 OFFCURVE",
"1806 1653 OFFCURVE",
"1804 1653 CURVE SMOOTH",
"1798 1661 OFFCURVE",
"1767 1692 OFFCURVE",
"1759 1698 CURVE",
"1571 1698 LINE",
"1563 1700 OFFCURVE",
"1491 1706 OFFCURVE",
"1481 1706 CURVE SMOOTH"
);
},
{
closed = 1;
nodes = (
"602 1737 LINE SMOOTH",
"594 1737 OFFCURVE",
"594 1726 OFFCURVE",
"594 1720 CURVE SMOOTH",
"594 1697 OFFCURVE",
"618 1682 OFFCURVE",
"618 1657 CURVE SMOOTH",
"618 1655 OFFCURVE",
"618 1647 OFFCURVE",
"616 1647 CURVE SMOOTH",
"565 1495 LINE",
"565 1489 LINE",
"553 1452 OFFCURVE",
"541 1432 OFFCURVE",
"535 1399 CURVE",
"346 864 LINE SMOOTH",
"346 858 OFFCURVE",
"340 831 OFFCURVE",
"340 827 CURVE SMOOTH",
"330 794 OFFCURVE",
"293 684 OFFCURVE",
"287 670 CURVE SMOOTH",
"277 643 OFFCURVE",
"223 523 OFFCURVE",
"211 496 CURVE",
"199 488 OFFCURVE",
"209 487 OFFCURVE",
"197 473 CURVE SMOOTH",
"166 438 OFFCURVE",
"133 404 OFFCURVE",
"84 406 CURVE",
"72 396 OFFCURVE",
"76 370 OFFCURVE",
"76 360 CURVE SMOOTH",
"76 338 LINE",
"84 330 LINE",
"229 334 OFFCURVE",
"348 324 OFFCURVE",
"489 324 CURVE SMOOTH",
"495 324 OFFCURVE",
"512 324 OFFCURVE",
"512 330 CURVE SMOOTH",
"512 397 LINE SMOOTH",
"512 401 OFFCURVE",
"502 412 OFFCURVE",
"498 414 CURVE SMOOTH",
"492 416 OFFCURVE",
"448 426 OFFCURVE",
"444 428 CURVE SMOOTH",
"395 451 OFFCURVE",
"377 504 OFFCURVE",
"377 551 CURVE SMOOTH",
"377 598 OFFCURVE",
"379 647 OFFCURVE",
"391 692 CURVE SMOOTH",
"399 721 OFFCURVE",
"443 858 OFFCURVE",
"453 887 CURVE",
"471 885 OFFCURVE",
"568 881 OFFCURVE",
"588 879 CURVE",
"864 879 LINE",
"870 875 OFFCURVE",
"885 848 OFFCURVE",
"887 842 CURVE SMOOTH",
"893 830 OFFCURVE",
"922 733 OFFCURVE",
"926 721 CURVE SMOOTH",
"926 721 OFFCURVE",
"932 709 OFFCURVE",
"932 707 CURVE SMOOTH",
"985 557 LINE SMOOTH",
"987 551 OFFCURVE",
"987 524 OFFCURVE",
"987 518 CURVE SMOOTH",
"987 469 OFFCURVE",
"962 422 OFFCURVE",
"909 414 CURVE SMOOTH",
"901 412 OFFCURVE",
"858 408 OFFCURVE",
"850 406 CURVE",
"838 398 OFFCURVE",
"836 383 OFFCURVE",
"836 369 CURVE SMOOTH",
"836 352 LINE SMOOTH",
"836 344 OFFCURVE",
"842 324 OFFCURVE",
"842 324 CURVE",
"1368 324 LINE",
"1368 383 LINE SMOOTH",
"1368 385 OFFCURVE",
"1358 397 OFFCURVE",
"1354 397 CURVE",
"1352 399 OFFCURVE",
"1325 406 OFFCURVE",
"1317 406 CURVE SMOOTH",
"1300 406 LINE SMOOTH",
"1271 422 OFFCURVE",
"1229 465 OFFCURVE",
"1219 496 CURVE SMOOTH",
"1083 909 LINE",
"1069 940 LINE",
"858 1579 LINE",
"854 1583 OFFCURVE",
"844 1604 OFFCURVE",
"842 1608 CURVE SMOOTH",
"840 1618 OFFCURVE",
"815 1704 OFFCURVE",
"813 1714 CURVE SMOOTH",
"811 1718 OFFCURVE",
"807 1729 OFFCURVE",
"805 1729 CURVE SMOOTH",
"801 1731 OFFCURVE",
"780 1737 OFFCURVE",
"774 1737 CURVE SMOOTH"
);
},
{
closed = 1;
nodes = (
"676 1511 OFFCURVE",
"694 1450 OFFCURVE",
"692 1444 CURVE",
"698 1426 OFFCURVE",
"723 1347 OFFCURVE",
"729 1331 CURVE SMOOTH",
"768 1222 OFFCURVE",
"797 1110 OFFCURVE",
"836 999 CURVE",
"836 985 LINE",
"504 985 LINE SMOOTH",
"502 985 OFFCURVE",
"485 989 OFFCURVE",
"481 991 CURVE",
"481 999 LINE",
"485 1011 OFFCURVE",
"508 1076 OFFCURVE",
"512 1090 CURVE SMOOTH",
"512 1092 OFFCURVE",
"518 1102 OFFCURVE",
"520 1104 CURVE SMOOTH",
"625 1427 LINE",
"639 1450 OFFCURVE",
"646 1511 OFFCURVE",
"666 1511 CURVE SMOOTH"
);
},
{
closed = 1;
nodes = (
"2070 1251 OFFCURVE",
"2070 1243 OFFCURVE",
"2068 1243 CURVE SMOOTH",
"2064 1243 OFFCURVE",
"2064 1251 OFFCURVE",
"2068 1251 CURVE SMOOTH"
);
},
{
closed = 1;
nodes = (
"2935 1063 OFFCURVE",
"2935 1057 OFFCURVE",
"2939 1057 CURVE SMOOTH",
"2943 1057 OFFCURVE",
"2943 1063 OFFCURVE",
"2939 1063 CURVE SMOOTH"
);
},
{
closed = 1;
nodes = (
"3000 1706 LINE",
"2986 1696 OFFCURVE",
"2984 1681 OFFCURVE",
"2984 1665 CURVE SMOOTH",
"2984 1645 OFFCURVE",
"2983 1622 OFFCURVE",
"3006 1616 CURVE SMOOTH",
"3045 1606 OFFCURVE",
"3096 1604 OFFCURVE",
"3119 1563 CURVE SMOOTH",
"3277 1286 LINE",
"3285 1278 LINE",
"3502 901 LINE SMOOTH",
"3504 899 OFFCURVE",
"3510 832 OFFCURVE",
"3510 805 CURVE SMOOTH",
"3510 692 LINE SMOOTH",
"3510 657 OFFCURVE",
"3504 553 OFFCURVE",
"3502 541 CURVE SMOOTH",
"3500 512 OFFCURVE",
"3485 476 OFFCURVE",
"3465 451 CURVE SMOOTH",
"3457 441 OFFCURVE",
"3438 418 OFFCURVE",
"3420 414 CURVE SMOOTH",
"3406 410 OFFCURVE",
"3338 393 OFFCURVE",
"3322 391 CURVE",
"3316 377 OFFCURVE",
"3316 372 OFFCURVE",
"3316 360 CURVE SMOOTH",
"3316 350 OFFCURVE",
"3322 307 OFFCURVE",
"3338 307 CURVE SMOOTH",
"3901 307 LINE",
"3901 383 LINE",
"3887 391 LINE SMOOTH",
"3881 393 OFFCURVE",
"3867 397 OFFCURVE",
"3865 397 CURVE SMOOTH",
"3861 399 OFFCURVE",
"3836 397 OFFCURVE",
"3834 397 CURVE SMOOTH",
"3824 399 OFFCURVE",
"3787 412 OFFCURVE",
"3781 414 CURVE SMOOTH",
"3756 424 OFFCURVE",
"3731 487 OFFCURVE",
"3729 512 CURVE SMOOTH",
"3727 528 OFFCURVE",
"3721 609 OFFCURVE",
"3721 625 CURVE SMOOTH",
"3721 739 LINE SMOOTH",
"3721 821 OFFCURVE",
"3711 895 OFFCURVE",
"3758 963 CURVE SMOOTH",
"3762 969 OFFCURVE",
"3799 1016 OFFCURVE",
"3803 1022 CURVE SMOOTH",
"3832 1067 OFFCURVE",
"3958 1278 OFFCURVE",
"3983 1323 CURVE",
"3992 1331 LINE",
"4119 1526 LINE",
"4146 1563 OFFCURVE",
"4200 1579 OFFCURVE",
"4239 1593 CURVE",
"4245 1599 OFFCURVE",
"4256 1649 OFFCURVE",
"4256 1657 CURVE SMOOTH",
"4256 1671 OFFCURVE",
"4249 1692 OFFCURVE",
"4231 1692 CURVE SMOOTH",
"3797 1692 LINE SMOOTH",
"3783 1692 OFFCURVE",
"3781 1644 OFFCURVE",
"3781 1634 CURVE SMOOTH",
"3781 1628 OFFCURVE",
"3777 1612 OFFCURVE",
"3789 1608 CURVE SMOOTH",
"3820 1600 OFFCURVE",
"3874 1604 OFFCURVE",
"3901 1579 CURVE SMOOTH",
"3903 1577 OFFCURVE",
"3924 1544 OFFCURVE",
"3932 1534 CURVE SMOOTH",
"3940 1520 OFFCURVE",
"3940 1517 OFFCURVE",
"3940 1501 CURVE SMOOTH",
"3940 1499 OFFCURVE",
"3940 1489 OFFCURVE",
"3938 1489 CURVE SMOOTH",
"3901 1382 LINE",
"3707 1053 LINE SMOOTH",
"3699 1041 OFFCURVE",
"3692 1020 OFFCURVE",
"3676 1020 CURVE SMOOTH",
"3674 1020 OFFCURVE",
"3668 1022 OFFCURVE",
"3668 1022 CURVE",
"3623 1090 LINE",
"3420 1466 LINE",
"3416 1484 OFFCURVE",
"3406 1504 OFFCURVE",
"3406 1522 CURVE SMOOTH",
"3406 1600 OFFCURVE",
"3488 1606 OFFCURVE",
"3549 1616 CURVE",
"3557 1626 OFFCURVE",
"3557 1641 OFFCURVE",
"3557 1653 CURVE SMOOTH",
"3557 1671 OFFCURVE",
"3558 1696 OFFCURVE",
"3533 1698 CURVE",
"3209 1698 LINE",
"3197 1700 OFFCURVE",
"3094 1706 OFFCURVE",
"3082 1706 CURVE SMOOTH"
);
},
{
closed = 1;
nodes = (
"4303 739 OFFCURVE",
"4303 733 OFFCURVE",
"4307 733 CURVE SMOOTH",
"4311 733 OFFCURVE",
"4311 739 OFFCURVE",
"4307 739 CURVE SMOOTH"
);
},
{
closed = 1;
nodes = (
"3684 1602 LINE",
"3684 1593 LINE",
"3690 1593 LINE",
"3690 1602 LINE"
);
},
{
closed = 1;
nodes = (
"4213 1333 OFFCURVE",
"4213 1327 OFFCURVE",
"4217 1327 CURVE SMOOTH",
"4221 1327 OFFCURVE",
"4221 1333 OFFCURVE",
"4217 1333 CURVE SMOOTH"
);
}
);
width = 4388;
}
);
},
{
glyphname = _112;
lastChange = "2012-12-26 13:06:26 -0800";
layers = (
{
layerId = "680DE9A7-CE01-463E-86B9-683CD586B94D";
name = "Bold Condensed";
paths = (
{
closed = 1;
nodes = (
"406 1706 LINE SMOOTH",
"394 1704 OFFCURVE",
"323 1689 OFFCURVE",
"309 1683 CURVE SMOOTH",
"221 1652 OFFCURVE",
"131 1536 OFFCURVE",
"98 1458 CURVE SMOOTH",
"96 1454 OFFCURVE",
"90 1431 OFFCURVE",
"90 1427 CURVE SMOOTH",
"90 1350 LINE SMOOTH",
"90 1289 OFFCURVE",
"94 1235 OFFCURVE",
"127 1180 CURVE SMOOTH",
"201 1057 OFFCURVE",
"350 967 OFFCURVE",
"473 901 CURVE SMOOTH",
"475 901 OFFCURVE",
"479 895 OFFCURVE",
"481 895 CURVE SMOOTH",
"491 887 OFFCURVE",
"549 850 OFFCURVE",
"563 842 CURVE SMOOTH",
"590 826 OFFCURVE",
"621 813 OFFCURVE",
"639 788 CURVE SMOOTH",
"655 768 OFFCURVE",
"703 704 OFFCURVE",
"707 698 CURVE SMOOTH",
"727 667 OFFCURVE",
"729 631 OFFCURVE",
"729 594 CURVE SMOOTH",
"729 502 OFFCURVE",
"682 404 OFFCURVE",
"586 375 CURVE SMOOTH",
"578 373 OFFCURVE",
"518 362 OFFCURVE",
"504 360 CURVE SMOOTH",
"477 360 LINE SMOOTH",
"327 360 OFFCURVE",
"246 500 OFFCURVE",
"195 625 CURVE SMOOTH",
"183 656 OFFCURVE",
"187 692 OFFCURVE",
"158 715 CURVE",
"131 715 LINE SMOOTH",
"125 715 OFFCURVE",
"96 717 OFFCURVE",
"90 707 CURVE SMOOTH",
"88 703 OFFCURVE",
"82 682 OFFCURVE",
"82 676 CURVE SMOOTH",
"82 670 OFFCURVE",
"90 616 OFFCURVE",
"90 608 CURVE SMOOTH",
"90 467 LINE SMOOTH",
"90 461 OFFCURVE",
"96 426 OFFCURVE",
"98 422 CURVE SMOOTH",
"98 414 LINE",
"100 404 OFFCURVE",
"104 377 OFFCURVE",
"104 375 CURVE SMOOTH",
"110 363 OFFCURVE",
"142 348 OFFCURVE",
"150 346 CURVE SMOOTH",
"187 334 OFFCURVE",
"312 297 OFFCURVE",
"332 293 CURVE SMOOTH",
"344 291 OFFCURVE",
"418 281 OFFCURVE",
"436 279 CURVE SMOOTH",
"438 279 OFFCURVE",
"469 276 OFFCURVE",
"479 276 CURVE SMOOTH",
"731 276 OFFCURVE",
"909 412 OFFCURVE",
"909 676 CURVE SMOOTH",
"909 795 OFFCURVE",
"852 885 OFFCURVE",
"766 963 CURVE SMOOTH",
"750 977 OFFCURVE",
"676 1036 OFFCURVE",
"662 1044 CURVE SMOOTH",
"637 1060 OFFCURVE",
"439 1172 OFFCURVE",
"414 1188 CURVE SMOOTH",
"408 1192 OFFCURVE",
"344 1239 OFFCURVE",
"324 1255 CURVE SMOOTH",
"312 1265 OFFCURVE",
"301 1280 OFFCURVE",
"293 1292 CURVE SMOOTH",
"285 1308 OFFCURVE",
"264 1352 OFFCURVE",
"264 1354 CURVE SMOOTH",
"264 1473 LINE SMOOTH",
"264 1475 OFFCURVE",
"279 1506 OFFCURVE",
"287 1518 CURVE SMOOTH",
"312 1565 OFFCURVE",
"367 1614 OFFCURVE",
"422 1624 CURVE SMOOTH",
"541 1624 LINE SMOOTH",
"553 1622 OFFCURVE",
"600 1606 OFFCURVE",
"608 1602 CURVE SMOOTH",
"614 1598 OFFCURVE",
"662 1550 OFFCURVE",
"676 1534 CURVE SMOOTH",
"678 1532 OFFCURVE",
"690 1515 OFFCURVE",
"692 1511 CURVE SMOOTH",
"698 1497 OFFCURVE",
"731 1433 OFFCURVE",
"737 1421 CURVE SMOOTH",
"753 1386 OFFCURVE",
"746 1315 OFFCURVE",
"801 1315 CURVE SMOOTH",
"811 1315 LINE",
"819 1317 OFFCURVE",
"834 1321 OFFCURVE",
"834 1323 CURVE SMOOTH",
"834 1602 LINE",
"827 1616 LINE SMOOTH",
"825 1618 OFFCURVE",
"784 1639 OFFCURVE",
"766 1647 CURVE SMOOTH",
"754 1651 OFFCURVE",
"686 1677 OFFCURVE",
"670 1683 CURVE SMOOTH",
"604 1706 OFFCURVE",
"545 1706 OFFCURVE",
"477 1706 CURVE SMOOTH"
);
}
);
width = 991;
}
);
},
{
glyphname = _113;
lastChange = "2012-12-26 13:06:26 -0800";
layers = (
{
layerId = "680DE9A7-CE01-463E-86B9-683CD586B94D";
name = "Bold Condensed";
paths = (
{
closed = 1;
nodes = (
"106 1692 LINE",
"94 1682 OFFCURVE",
"98 1657 OFFCURVE",
"98 1647 CURVE SMOOTH",
"98 1616 LINE",
"129 1596 OFFCURVE",
"164 1607 OFFCURVE",
"197 1593 CURVE SMOOTH",
"240 1573 OFFCURVE",
"285 1522 OFFCURVE",
"287 1473 CURVE SMOOTH",
"287 1465 OFFCURVE",
"279 1399 OFFCURVE",
"279 1391 CURVE SMOOTH",
"279 1381 OFFCURVE",
"287 1296 OFFCURVE",
"287 1286 CURVE SMOOTH",
"287 1090 LINE SMOOTH",
"287 1059 OFFCURVE",
"279 799 OFFCURVE",
"279 766 CURVE SMOOTH",
"279 631 LINE SMOOTH",
"279 615 OFFCURVE",
"268 516 OFFCURVE",
"264 489 CURVE SMOOTH",
"258 444 OFFCURVE",
"217 397 OFFCURVE",
"174 391 CURVE SMOOTH",
"166 389 OFFCURVE",
"112 391 OFFCURVE",
"106 391 CURVE SMOOTH",
"81 389 OFFCURVE",
"82 362 OFFCURVE",
"82 346 CURVE SMOOTH",
"82 342 OFFCURVE",
"78 317 OFFCURVE",
"90 315 CURVE",
"151 315 OFFCURVE",
"437 309 OFFCURVE",
"498 307 CURVE SMOOTH",
"502 307 LINE SMOOTH",
"522 307 OFFCURVE",
"542 315 OFFCURVE",
"565 315 CURVE SMOOTH",
"583 315 OFFCURVE",
"600 317 OFFCURVE",
"616 307 CURVE",
"665 309 OFFCURVE",
"891 309 OFFCURVE",
"940 307 CURVE SMOOTH",
"952 307 OFFCURVE",
"1043 301 OFFCURVE",
"1053 301 CURVE SMOOTH",
"1067 301 OFFCURVE",
"1131 305 OFFCURVE",
"1143 307 CURVE SMOOTH",
"1145 309 OFFCURVE",
"1149 322 OFFCURVE",
"1151 324 CURVE SMOOTH",
"1157 344 OFFCURVE",
"1184 444 OFFCURVE",
"1188 467 CURVE SMOOTH",
"1188 481 LINE SMOOTH",
"1200 530 OFFCURVE",
"1219 576 OFFCURVE",
"1219 625 CURVE SMOOTH",
"1219 648 OFFCURVE",
"1196 647 OFFCURVE",
"1180 647 CURVE SMOOTH",
"1157 647 OFFCURVE",
"1157 649 OFFCURVE",
"1143 631 CURVE SMOOTH",
"1135 621 OFFCURVE",
"1075 536 OFFCURVE",
"1067 526 CURVE SMOOTH",
"1055 512 OFFCURVE",
"997 459 OFFCURVE",
"985 451 CURVE SMOOTH",
"979 447 OFFCURVE",
"912 416 OFFCURVE",
"887 406 CURVE SMOOTH",
"852 392 OFFCURVE",
"807 391 OFFCURVE",
"768 391 CURVE SMOOTH",
"745 391 LINE SMOOTH",
"731 391 OFFCURVE",
"622 397 OFFCURVE",
"610 397 CURVE SMOOTH",
"594 399 OFFCURVE",
"577 396 OFFCURVE",
"565 406 CURVE SMOOTH",
"508 451 OFFCURVE",
"489 508 OFFCURVE",
"489 580 CURVE SMOOTH",
"489 924 LINE SMOOTH",
"489 934 OFFCURVE",
"494 971 OFFCURVE",
"498 977 CURVE",
"498 981 OFFCURVE",
"508 991 OFFCURVE",
"512 991 CURVE SMOOTH",
"662 989 LINE",
"684 989 LINE",
"813 985 LINE SMOOTH",
"817 985 OFFCURVE",
"854 969 OFFCURVE",
"864 963 CURVE SMOOTH",
"917 930 OFFCURVE",
"920 862 OFFCURVE",
"940 811 CURVE SMOOTH",
"942 809 OFFCURVE",
"946 792 OFFCURVE",
"948 788 CURVE",
"975 788 LINE SMOOTH",
"979 788 OFFCURVE",
"1022 787 OFFCURVE",
"1022 805 CURVE SMOOTH",
"1022 1157 LINE",
"1026 1163 OFFCURVE",
"1030 1190 OFFCURVE",
"1030 1194 CURVE SMOOTH",
"1030 1202 OFFCURVE",
"1026 1239 OFFCURVE",
"1022 1247 CURVE",
"1020 1259 OFFCURVE",
"997 1255 OFFCURVE",
"993 1255 CURVE SMOOTH",
"971 1255 LINE",
"955 1253 OFFCURVE",
"938 1127 OFFCURVE",
"872 1098 CURVE SMOOTH",
"858 1090 OFFCURVE",
"805 1075 OFFCURVE",
"797 1075 CURVE SMOOTH",
"535 1075 LINE SMOOTH",
"531 1075 OFFCURVE",
"504 1079 OFFCURVE",
"498 1081 CURVE SMOOTH",
"496 1083 OFFCURVE",
"489 1088 OFFCURVE",
"489 1090 CURVE SMOOTH",
"489 1188 LINE SMOOTH",
"489 1194 OFFCURVE",
"498 1249 OFFCURVE",
"498 1255 CURVE SMOOTH",
"498 1548 LINE",
"504 1602 LINE",
"842 1602 LINE SMOOTH",
"963 1602 OFFCURVE",
"989 1511 OFFCURVE",
"1038 1421 CURVE SMOOTH",
"1054 1390 OFFCURVE",
"1065 1389 OFFCURVE",
"1100 1389 CURVE SMOOTH",
"1104 1389 OFFCURVE",
"1120 1391 OFFCURVE",
"1120 1391 CURVE",
"1128 1399 LINE",
"1128 1653 LINE SMOOTH",
"1128 1663 OFFCURVE",
"1112 1679 OFFCURVE",
"1106 1683 CURVE",
"848 1679 OFFCURVE",
"590 1692 OFFCURVE",
"332 1692 CURVE SMOOTH"
);
},
{
closed = 1;
nodes = (
"508 846 OFFCURVE",
"508 838 OFFCURVE",
"512 838 CURVE SMOOTH",
"516 838 OFFCURVE",
"516 846 OFFCURVE",
"512 846 CURVE SMOOTH"
);
},
{
closed = 1;
nodes = (
"418 1124 OFFCURVE",
"418 1116 OFFCURVE",
"414 1116 CURVE SMOOTH",
"410 1116 OFFCURVE",
"410 1124 OFFCURVE",
"414 1124 CURVE SMOOTH"
);
},
{
closed = 1;
nodes = (
"428 1108 OFFCURVE",
"422 1108 OFFCURVE",
"422 1112 CURVE SMOOTH",
"420 1116 OFFCURVE",
"430 1116 OFFCURVE",
"430 1112 CURVE SMOOTH"
);
},
{
closed = 1;
nodes = (
"252 1350 OFFCURVE",
"252 1341 OFFCURVE",
"256 1341 CURVE SMOOTH",
"260 1341 OFFCURVE",
"260 1350 OFFCURVE",
"256 1350 CURVE SMOOTH"
);
}
);
width = 1304;
}
);
},
{
glyphname = _114;
lastChange = "2012-12-26 13:06:26 -0800";
layers = (
{
layerId = "680DE9A7-CE01-463E-86B9-683CD586B94D";
name = "Bold Condensed";
paths = (
{
closed = 1;
nodes = (
"90 1692 LINE",
"90 1616 LINE SMOOTH",
"90 1593 OFFCURVE",
"192 1596 OFFCURVE",
"217 1571 CURVE SMOOTH",
"248 1540 OFFCURVE",
"270 1495 OFFCURVE",
"270 1450 CURVE SMOOTH",
"270 541 LINE SMOOTH",
"270 475 OFFCURVE",
"218 407 OFFCURVE",
"150 397 CURVE",
"136 397 OFFCURVE",
"98 391 OFFCURVE",
"96 391 CURVE SMOOTH",
"94 391 OFFCURVE",
"90 385 OFFCURVE",
"90 383 CURVE SMOOTH",
"88 375 OFFCURVE",
"82 344 OFFCURVE",
"82 338 CURVE SMOOTH",
"82 315 OFFCURVE",
"86 301 OFFCURVE",
"113 301 CURVE SMOOTH",
"668 301 LINE",
"668 391 LINE",
"586 406 LINE SMOOTH",
"582 408 OFFCURVE",
"575 416 OFFCURVE",
"575 420 CURVE",
"542 420 OFFCURVE",
"524 440 OFFCURVE",
"504 467 CURVE SMOOTH",
"502 467 OFFCURVE",
"496 479 OFFCURVE",
"496 481 CURVE SMOOTH",
"494 491 OFFCURVE",
"487 535 OFFCURVE",
"487 541 CURVE SMOOTH",
"487 940 LINE SMOOTH",
"487 948 OFFCURVE",
"510 954 OFFCURVE",
"518 954 CURVE SMOOTH",
"586 954 OFFCURVE",
"649 917 OFFCURVE",
"690 864 CURVE SMOOTH",
"1059 391 LINE",
"1141 307 LINE",
"1413 301 LINE SMOOTH",
"1438 299 OFFCURVE",
"1442 318 OFFCURVE",
"1442 338 CURVE SMOOTH",
"1442 399 OFFCURVE",
"1393 399 OFFCURVE",
"1346 428 CURVE SMOOTH",
"1338 434 OFFCURVE",
"1300 459 OFFCURVE",
"1292 467 CURVE SMOOTH",
"1261 492 OFFCURVE",
"1242 520 OFFCURVE",
"1217 549 CURVE SMOOTH",
"1118 670 LINE",
"1104 684 LINE SMOOTH",
"1102 688 OFFCURVE",
"1083 719 OFFCURVE",
"1081 721 CURVE SMOOTH",
"1077 725 OFFCURVE",
"1046 756 OFFCURVE",
"1044 760 CURVE SMOOTH",
"1034 770 OFFCURVE",
"962 862 OFFCURVE",
"954 872 CURVE SMOOTH",
"940 886 OFFCURVE",
"872 957 OFFCURVE",
"856 969 CURVE",
"999 1030 LINE",
"1003 1040 OFFCURVE",
"1020 1040 OFFCURVE",
"1028 1044 CURVE SMOOTH",
"1036 1048 OFFCURVE",
"1067 1069 OFFCURVE",
"1073 1075 CURVE SMOOTH",
"1147 1132 OFFCURVE",
"1180 1237 OFFCURVE",
"1180 1327 CURVE SMOOTH",
"1180 1474 OFFCURVE",
"1050 1610 OFFCURVE",
"915 1653 CURVE",
"860 1673 OFFCURVE",
"790 1692 OFFCURVE",
"729 1692 CURVE SMOOTH"
);
},
{
closed = 1;
nodes = (
"649 1602 OFFCURVE",
"750 1594 OFFCURVE",
"834 1526 CURVE SMOOTH",
"906 1469 OFFCURVE",
"938 1392 OFFCURVE",
"938 1300 CURVE SMOOTH",
"938 1275 OFFCURVE",
"925 1230 OFFCURVE",
"915 1210 CURVE SMOOTH",
"911 1200 OFFCURVE",
"891 1157 OFFCURVE",
"887 1149 CURVE SMOOTH",
"885 1149 OFFCURVE",
"874 1139 OFFCURVE",
"870 1135 CURVE SMOOTH",
"768 1045 OFFCURVE",
"647 1044 OFFCURVE",
"514 1044 CURVE SMOOTH",
"504 1044 OFFCURVE",
"493 1053 OFFCURVE",
"487 1059 CURVE",
"487 1286 LINE SMOOTH",
"487 1298 OFFCURVE",
"496 1407 OFFCURVE",
"496 1421 CURVE SMOOTH",
"496 1431 OFFCURVE",
"489 1528 OFFCURVE",
"487 1540 CURVE SMOOTH",
"487 1561 LINE SMOOTH",
"487 1577 OFFCURVE",
"488 1586 OFFCURVE",
"496 1602 CURVE",
"545 1602 LINE SMOOTH"
);
}
);
width = 1511;
}
);
},
{
glyphname = _115;
lastChange = "2012-12-26 13:06:26 -0800";
layers = (
{
layerId = "680DE9A7-CE01-463E-86B9-683CD586B94D";
name = "Bold Condensed";
paths = (
{
closed = 1;
nodes = (
"187 1700 OFFCURVE",
"125 1700 OFFCURVE",
"113 1698 CURVE",
"97 1698 OFFCURVE",
"84 1671 OFFCURVE",
"82 1661 CURVE SMOOTH",
"82 1657 OFFCURVE",
"88 1636 OFFCURVE",
"90 1630 CURVE SMOOTH",
"104 1601 OFFCURVE",
"155 1610 OFFCURVE",
"180 1602 CURVE SMOOTH",
"211 1590 OFFCURVE",
"238 1575 OFFCURVE",
"256 1548 CURVE SMOOTH",
"297 1491 OFFCURVE",
"287 1414 OFFCURVE",
"287 1346 CURVE SMOOTH",
"287 1321 OFFCURVE",
"285 1245 OFFCURVE",
"285 1241 CURVE SMOOTH",
"285 1221 OFFCURVE",
"279 1064 OFFCURVE",
"279 1044 CURVE SMOOTH",
"279 788 LINE SMOOTH",
"279 782 OFFCURVE",
"270 729 OFFCURVE",
"270 721 CURVE SMOOTH",
"270 526 LINE",
"264 444 OFFCURVE",
"156 390 OFFCURVE",
"82 406 CURVE",
"82 404 OFFCURVE",
"76 393 OFFCURVE",
"76 391 CURVE SMOOTH",
"74 381 OFFCURVE",
"68 350 OFFCURVE",
"68 346 CURVE SMOOTH",
"68 340 OFFCURVE",
"78 328 OFFCURVE",
"82 324 CURVE",
"266 316 OFFCURVE",
"449 315 OFFCURVE",
"631 307 CURVE SMOOTH",
"653 307 LINE SMOOTH",
"688 307 OFFCURVE",
"684 340 OFFCURVE",
"684 371 CURVE SMOOTH",
"684 383 LINE",
"682 387 OFFCURVE",
"666 404 OFFCURVE",
"662 406 CURVE SMOOTH",
"660 408 OFFCURVE",
"641 406 OFFCURVE",
"639 406 CURVE SMOOTH",
"586 416 OFFCURVE",
"504 438 OFFCURVE",
"496 504 CURVE SMOOTH",
"496 510 OFFCURVE",
"489 574 OFFCURVE",
"489 594 CURVE SMOOTH",
"489 616 LINE SMOOTH",
"489 632 OFFCURVE",
"496 766 OFFCURVE",
"496 782 CURVE SMOOTH",
"496 1067 LINE SMOOTH",
"496 1096 OFFCURVE",
"504 1325 OFFCURVE",
"504 1354 CURVE SMOOTH",
"504 1473 LINE",
"516 1479 OFFCURVE",
"516 1505 OFFCURVE",
"518 1511 CURVE SMOOTH",
"538 1564 OFFCURVE",
"582 1600 OFFCURVE",
"639 1608 CURVE SMOOTH",
"659 1612 OFFCURVE",
"688 1595 OFFCURVE",
"698 1624 CURVE",
"698 1634 LINE SMOOTH",
"698 1646 OFFCURVE",
"694 1692 OFFCURVE",
"676 1692 CURVE SMOOTH",
"346 1692 LINE",
"297 1702 OFFCURVE",
"248 1700 OFFCURVE",
"199 1700 CURVE SMOOTH"
);
},
{
closed = 1;
nodes = (
"522 1468 OFFCURVE",
"522 1462 OFFCURVE",
"526 1462 CURVE SMOOTH",
"530 1462 OFFCURVE",
"530 1468 OFFCURVE",
"526 1468 CURVE SMOOTH"
);
}
);
width = 770;
}
);
},
{
glyphname = _116;
lastChange = "2012-12-26 13:06:26 -0800";
layers = (
{
layerId = "680DE9A7-CE01-463E-86B9-683CD586B94D";
name = "Bold Condensed";
paths = (
{
closed = 1;
nodes = (
"119 1702 OFFCURVE",
"100 1692 OFFCURVE",
"100 1669 CURVE SMOOTH",
"100 1661 OFFCURVE",
"107 1630 OFFCURVE",
"109 1624 CURVE",
"125 1610 OFFCURVE",
"150 1614 OFFCURVE",
"168 1608 CURVE SMOOTH",
"213 1598 OFFCURVE",
"256 1577 OFFCURVE",
"274 1534 CURVE SMOOTH",
"278 1522 OFFCURVE",
"289 1485 OFFCURVE",
"289 1481 CURVE SMOOTH",
"289 856 LINE",
"275 739 OFFCURVE",
"288 621 OFFCURVE",
"274 504 CURVE SMOOTH",
"266 447 OFFCURVE",
"205 412 OFFCURVE",
"154 406 CURVE SMOOTH",
"152 406 OFFCURVE",
"127 408 OFFCURVE",
"123 406 CURVE SMOOTH",
"117 404 OFFCURVE",
"96 393 OFFCURVE",
"94 391 CURVE SMOOTH",
"90 387 OFFCURVE",
"86 360 OFFCURVE",
"86 352 CURVE SMOOTH",
"86 348 OFFCURVE",
"98 328 OFFCURVE",
"100 324 CURVE",
"129 322 OFFCURVE",
"254 315 OFFCURVE",
"281 315 CURVE SMOOTH",
"590 315 LINE",
"598 313 OFFCURVE",
"641 307 OFFCURVE",
"649 307 CURVE SMOOTH",
"653 307 OFFCURVE",
"664 313 OFFCURVE",
"666 315 CURVE",
"1153 315 LINE SMOOTH",
"1167 315 OFFCURVE",
"1174 346 OFFCURVE",
"1176 352 CURVE SMOOTH",
"1190 411 OFFCURVE",
"1198 467 OFFCURVE",
"1212 526 CURVE SMOOTH",
"1222 565 OFFCURVE",
"1237 598 OFFCURVE",
"1237 639 CURVE SMOOTH",
"1237 651 OFFCURVE",
"1226 662 OFFCURVE",
"1214 662 CURVE SMOOTH",
"1183 662 OFFCURVE",
"1165 658 OFFCURVE",
"1145 631 CURVE SMOOTH",
"1141 625 OFFCURVE",
"1106 569 OFFCURVE",
"1100 563 CURVE SMOOTH",
"1088 549 OFFCURVE",
"1026 485 OFFCURVE",
"1010 473 CURVE SMOOTH",
"1008 473 OFFCURVE",
"997 467 OFFCURVE",
"995 467 CURVE SMOOTH",
"993 465 OFFCURVE",
"975 453 OFFCURVE",
"973 451 CURVE SMOOTH",
"891 414 OFFCURVE",
"844 406 OFFCURVE",
"756 406 CURVE SMOOTH",
"672 406 LINE",
"643 422 OFFCURVE",
"613 408 OFFCURVE",
"582 422 CURVE SMOOTH",
"512 453 OFFCURVE",
"516 519 OFFCURVE",
"500 580 CURVE",
"500 946 LINE SMOOTH",
"500 952 OFFCURVE",
"504 985 OFFCURVE",
"508 991 CURVE SMOOTH",
"508 993 OFFCURVE",
"512 999 OFFCURVE",
"514 999 CURVE SMOOTH",
"590 999 LINE SMOOTH",
"594 999 OFFCURVE",
"631 991 OFFCURVE",
"635 991 CURVE SMOOTH",
"639 991 OFFCURVE",
"662 997 OFFCURVE",
"666 999 CURVE",
"823 991 LINE SMOOTH",
"829 991 OFFCURVE",
"860 981 OFFCURVE",
"868 977 CURVE SMOOTH",
"927 944 OFFCURVE",
"926 797 OFFCURVE",
"975 797 CURVE SMOOTH",
"987 797 LINE",
"1001 799 OFFCURVE",
"1032 803 OFFCURVE",
"1032 805 CURVE SMOOTH",
"1040 819 LINE",
"1040 1255 LINE SMOOTH",
"1040 1257 OFFCURVE",
"1030 1270 OFFCURVE",
"1026 1270 CURVE SMOOTH",
"1026 1270 OFFCURVE",
"1012 1272 OFFCURVE",
"1008 1272 CURVE SMOOTH",
"996 1272 OFFCURVE",
"971 1269 OFFCURVE",
"965 1255 CURVE SMOOTH",
"963 1249 OFFCURVE",
"946 1194 OFFCURVE",
"942 1188 CURVE SMOOTH",
"936 1172 OFFCURVE",
"923 1149 OFFCURVE",
"913 1135 CURVE SMOOTH",
"901 1121 OFFCURVE",
"870 1110 OFFCURVE",
"860 1104 CURVE",
"837 1096 OFFCURVE",
"824 1090 OFFCURVE",
"801 1090 CURVE SMOOTH",
"774 1090 OFFCURVE",
"654 1083 OFFCURVE",
"627 1081 CURVE",
"623 1083 OFFCURVE",
"602 1090 OFFCURVE",
"598 1090 CURVE SMOOTH",
"582 1090 OFFCURVE",
"514 1087 OFFCURVE",
"500 1087 CURVE",
"500 1126 LINE SMOOTH",
"500 1153 OFFCURVE",
"514 1364 OFFCURVE",
"514 1391 CURVE SMOOTH",
"516 1424 OFFCURVE",
"512 1577 OFFCURVE",
"512 1610 CURVE",
"567 1610 OFFCURVE",
"623 1616 OFFCURVE",
"680 1616 CURVE SMOOTH",
"733 1616 LINE SMOOTH",
"743 1616 OFFCURVE",
"828 1610 OFFCURVE",
"838 1608 CURVE SMOOTH",
"971 1600 OFFCURVE",
"1012 1524 OFFCURVE",
"1063 1413 CURVE",
"1077 1405 OFFCURVE",
"1094 1397 OFFCURVE",
"1108 1397 CURVE SMOOTH",
"1118 1397 OFFCURVE",
"1145 1401 OFFCURVE",
"1145 1413 CURVE SMOOTH",
"1145 1669 LINE SMOOTH",
"1145 1675 OFFCURVE",
"1136 1688 OFFCURVE",
"1130 1692 CURVE",
"800 1708 OFFCURVE",
"469 1694 OFFCURVE",
"139 1706 CURVE"
);
},
{
closed = 1;
nodes = (
"217 1575 OFFCURVE",
"217 1567 OFFCURVE",
"221 1567 CURVE SMOOTH",
"225 1567 OFFCURVE",
"225 1575 OFFCURVE",
"221 1575 CURVE SMOOTH"
);
},
{
closed = 1;
nodes = (
"1225 711 OFFCURVE",
"1225 702 OFFCURVE",
"1229 702 CURVE SMOOTH",
"1233 702 OFFCURVE",
"1233 711 OFFCURVE",
"1229 711 CURVE SMOOTH"
);
}
);
width = 1331;
}
);
},
{
glyphname = _117;
lastChange = "2012-12-26 13:06:16 -0800";
layers = (
{
layerId = "680DE9A7-CE01-463E-86B9-683CD586B94D";
name = "Bold Condensed";
paths = (
{
closed = 1;
nodes = (
"506 1708 OFFCURVE",
"471 1706 OFFCURVE",
"469 1706 CURVE SMOOTH",
"446 1704 OFFCURVE",
"340 1687 OFFCURVE",
"317 1683 CURVE",
"180 1611 OFFCURVE",
"92 1495 OFFCURVE",
"92 1339 CURVE SMOOTH",
"92 1300 LINE",
"96 1282 OFFCURVE",
"123 1198 OFFCURVE",
"131 1180 CURVE SMOOTH",
"133 1174 OFFCURVE",
"160 1136 OFFCURVE",
"168 1126 CURVE SMOOTH",
"180 1112 OFFCURVE",
"240 1054 OFFCURVE",
"250 1044 CURVE SMOOTH",
"254 1042 OFFCURVE",
"279 1032 OFFCURVE",
"281 1030 CURVE SMOOTH",
"291 1024 OFFCURVE",
"363 969 OFFCURVE",
"371 963 CURVE SMOOTH",
"400 945 OFFCURVE",
"530 864 OFFCURVE",
"559 850 CURVE",
"567 836 OFFCURVE",
"600 821 OFFCURVE",
"612 811 CURVE SMOOTH",
"659 770 OFFCURVE",
"709 716 OFFCURVE",
"725 653 CURVE SMOOTH",
"725 598 LINE SMOOTH",
"725 453 OFFCURVE",
"632 360 OFFCURVE",
"485 360 CURVE SMOOTH",
"460 360 OFFCURVE",
"441 361 OFFCURVE",
"416 369 CURVE SMOOTH",
"404 373 OFFCURVE",
"366 389 OFFCURVE",
"362 391 CURVE SMOOTH",
"266 489 LINE SMOOTH",
"264 493 OFFCURVE",
"254 514 OFFCURVE",
"250 518 CURVE SMOOTH",
"248 522 OFFCURVE",
"223 559 OFFCURVE",
"221 563 CURVE SMOOTH",
"217 571 OFFCURVE",
"196 629 OFFCURVE",
"190 647 CURVE SMOOTH",
"190 649 OFFCURVE",
"184 680 OFFCURVE",
"182 684 CURVE SMOOTH",
"180 692 OFFCURVE",
"170 715 OFFCURVE",
"168 715 CURVE SMOOTH",
"100 715 LINE SMOOTH",
"98 715 OFFCURVE",
"94 709 OFFCURVE",
"92 707 CURVE SMOOTH",
"90 703 OFFCURVE",
"86 686 OFFCURVE",
"86 684 CURVE SMOOTH",
"86 678 OFFCURVE",
"92 631 OFFCURVE",
"92 625 CURVE SMOOTH",
"94 609 OFFCURVE",
"92 475 OFFCURVE",
"92 459 CURVE",
"94 447 OFFCURVE",
"98 395 OFFCURVE",
"100 383 CURVE SMOOTH",
"104 363 OFFCURVE",
"131 352 OFFCURVE",
"145 346 CURVE SMOOTH",
"176 336 OFFCURVE",
"317 293 OFFCURVE",
"348 285 CURVE SMOOTH",
"385 277 OFFCURVE",
"450 276 OFFCURVE",
"487 276 CURVE SMOOTH",
"542 276 OFFCURVE",
"580 277 OFFCURVE",
"635 293 CURVE SMOOTH",
"821 352 OFFCURVE",
"913 475 OFFCURVE",
"913 674 CURVE SMOOTH",
"913 830 OFFCURVE",
"799 956 OFFCURVE",
"672 1036 CURVE SMOOTH",
"635 1061 OFFCURVE",
"455 1168 OFFCURVE",
"416 1188 CURVE SMOOTH",
"404 1196 OFFCURVE",
"352 1239 OFFCURVE",
"340 1247 CURVE SMOOTH",
"285 1296 OFFCURVE",
"272 1343 OFFCURVE",
"272 1413 CURVE SMOOTH",
"272 1462 OFFCURVE",
"274 1491 OFFCURVE",
"303 1534 CURVE SMOOTH",
"346 1595 OFFCURVE",
"403 1624 OFFCURVE",
"479 1624 CURVE SMOOTH",
"614 1624 OFFCURVE",
"662 1583 OFFCURVE",
"725 1466 CURVE SMOOTH",
"743 1429 OFFCURVE",
"752 1309 OFFCURVE",
"807 1309 CURVE SMOOTH",
"852 1309 OFFCURVE",
"852 1341 OFFCURVE",
"852 1378 CURVE SMOOTH",
"852 1415 OFFCURVE",
"844 1452 OFFCURVE",
"844 1489 CURVE SMOOTH",
"844 1511 LINE SMOOTH",
"846 1513 OFFCURVE",
"852 1532 OFFCURVE",
"852 1534 CURVE SMOOTH",
"852 1534 OFFCURVE",
"846 1546 OFFCURVE",
"844 1548 CURVE SMOOTH",
"842 1564 OFFCURVE",
"852 1604 OFFCURVE",
"829 1616 CURVE SMOOTH",
"731 1663 OFFCURVE",
"629 1708 OFFCURVE",
"518 1708 CURVE SMOOTH"
);
},
{
closed = 1;
nodes = (
"141 1544 OFFCURVE",
"141 1536 OFFCURVE",
"145 1536 CURVE SMOOTH",
"149 1536 OFFCURVE",
"149 1544 OFFCURVE",
"145 1544 CURVE SMOOTH"
);
}
);
width = 995;
}
);
},
{
glyphname = _118;
lastChange = "2012-12-26 13:06:26 -0800";
layers = (
{
layerId = "680DE9A7-CE01-463E-86B9-683CD586B94D";
name = "Bold Condensed";
paths = (
{
closed = 1;
nodes = (
"523 1714 OFFCURVE",
"359 1618 OFFCURVE",
"236 1481 CURVE SMOOTH",
"232 1475 OFFCURVE",
"203 1425 OFFCURVE",
"199 1421 CURVE SMOOTH",
"182 1405 LINE SMOOTH",
"180 1401 OFFCURVE",
"170 1386 OFFCURVE",
"168 1382 CURVE SMOOTH",
"100 1247 OFFCURVE",
"55 1113 OFFCURVE",
"55 961 CURVE SMOOTH",
"55 946 LINE SMOOTH",
"55 944 OFFCURVE",
"63 913 OFFCURVE",
"63 909 CURVE SMOOTH",
"63 872 LINE SMOOTH",
"65 860 OFFCURVE",
"76 807 OFFCURVE",
"78 797 CURVE SMOOTH",
"86 772 OFFCURVE",
"111 692 OFFCURVE",
"115 684 CURVE SMOOTH",
"129 657 OFFCURVE",
"197 543 OFFCURVE",
"213 518 CURVE",
"221 510 OFFCURVE",
"258 473 OFFCURVE",
"266 467 CURVE SMOOTH",
"289 444 OFFCURVE",
"319 413 OFFCURVE",
"348 397 CURVE SMOOTH",
"506 315 LINE SMOOTH",
"518 311 OFFCURVE",
"570 295 OFFCURVE",
"582 293 CURVE",
"680 291 LINE SMOOTH",
"705 291 OFFCURVE",
"772 293 OFFCURVE",
"776 293 CURVE SMOOTH",
"801 295 OFFCURVE",
"911 322 OFFCURVE",
"934 330 CURVE SMOOTH",
"938 332 OFFCURVE",
"948 338 OFFCURVE",
"950 338 CURVE SMOOTH",
"952 340 OFFCURVE",
"971 344 OFFCURVE",
"973 346 CURVE SMOOTH",
"1094 414 LINE",
"1094 414 OFFCURVE",
"1100 420 OFFCURVE",
"1100 422 CURVE SMOOTH",
"1106 426 OFFCURVE",
"1155 461 OFFCURVE",
"1161 467 CURVE SMOOTH",
"1165 469 OFFCURVE",
"1194 506 OFFCURVE",
"1198 512 CURVE SMOOTH",
"1288 614 OFFCURVE",
"1344 744 OFFCURVE",
"1364 879 CURVE",
"1364 1098 LINE SMOOTH",
"1362 1116 OFFCURVE",
"1345 1201 OFFCURVE",
"1341 1217 CURVE",
"1329 1235 OFFCURVE",
"1325 1260 OFFCURVE",
"1319 1278 CURVE SMOOTH",
"1307 1307 OFFCURVE",
"1263 1403 OFFCURVE",
"1257 1413 CURVE SMOOTH",
"1255 1417 OFFCURVE",
"1231 1454 OFFCURVE",
"1221 1466 CURVE SMOOTH",
"1219 1466 OFFCURVE",
"1206 1479 OFFCURVE",
"1206 1481 CURVE SMOOTH",
"1118 1583 OFFCURVE",
"1010 1655 OFFCURVE",
"883 1698 CURVE SMOOTH",
"842 1712 OFFCURVE",
"750 1714 OFFCURVE",
"711 1714 CURVE SMOOTH"
);
},
{
closed = 1;
nodes = (
"690 41 OFFCURVE",
"690 35 OFFCURVE",
"694 35 CURVE SMOOTH",
"698 35 OFFCURVE",
"698 41 OFFCURVE",
"694 41 CURVE SMOOTH"
);
},
{
closed = 1;
nodes = (
"729 1632 OFFCURVE",
"766 1632 OFFCURVE",
"807 1616 CURVE SMOOTH",
"813 1614 OFFCURVE",
"862 1581 OFFCURVE",
"866 1579 CURVE SMOOTH",
"981 1509 OFFCURVE",
"1065 1399 OFFCURVE",
"1100 1270 CURVE SMOOTH",
"1110 1233 OFFCURVE",
"1141 1059 OFFCURVE",
"1145 1022 CURVE SMOOTH",
"1147 1018 OFFCURVE",
"1147 962 OFFCURVE",
"1147 944 CURVE SMOOTH",
"1147 932 OFFCURVE",
"1147 876 OFFCURVE",
"1145 864 CURVE SMOOTH",
"1143 860 OFFCURVE",
"1139 840 OFFCURVE",
"1139 834 CURVE SMOOTH",
"1125 756 OFFCURVE",
"1114 674 OFFCURVE",
"1077 602 CURVE SMOOTH",
"999 444 OFFCURVE",
"885 375 OFFCURVE",
"709 375 CURVE SMOOTH",
"566 375 OFFCURVE",
"477 456 OFFCURVE",
"401 571 CURVE SMOOTH",
"307 710 OFFCURVE",
"279 874 OFFCURVE",
"279 1040 CURVE SMOOTH",
"279 1302 OFFCURVE",
"375 1632 OFFCURVE",
"686 1632 CURVE SMOOTH"
);
}
);
width = 1431;
}
);
},
{
glyphname = _119;
lastChange = "2012-12-26 13:06:26 -0800";
layers = (
{
layerId = "680DE9A7-CE01-463E-86B9-683CD586B94D";
name = "Bold Condensed";
paths = (
{
closed = 1;
nodes = (
"199 1692 LINE",
"183 1690 OFFCURVE",
"108 1685 OFFCURVE",
"94 1683 CURVE",
"84 1673 OFFCURVE",
"86 1659 OFFCURVE",
"86 1645 CURVE SMOOTH",
"86 1584 OFFCURVE",
"156 1614 OFFCURVE",
"199 1585 CURVE SMOOTH",
"242 1556 OFFCURVE",
"275 1534 OFFCURVE",
"281 1481 CURVE",
"285 1465 OFFCURVE",
"289 1405 OFFCURVE",
"289 1399 CURVE SMOOTH",
"289 631 LINE SMOOTH",
"289 541 OFFCURVE",
"290 430 OFFCURVE",
"184 397 CURVE SMOOTH",
"178 397 OFFCURVE",
"129 391 OFFCURVE",
"123 391 CURVE SMOOTH",
"90 385 OFFCURVE",
"92 363 OFFCURVE",
"86 330 CURVE",
"86 324 LINE",
"100 307 LINE",
"131 309 OFFCURVE",
"266 309 OFFCURVE",
"297 307 CURVE SMOOTH",
"328 307 OFFCURVE",
"573 301 OFFCURVE",
"604 301 CURVE SMOOTH",
"618 301 OFFCURVE",
"682 305 OFFCURVE",
"694 307 CURVE",
"694 375 LINE SMOOTH",
"694 377 OFFCURVE",
"690 381 OFFCURVE",
"688 383 CURVE SMOOTH",
"665 397 OFFCURVE",
"652 391 OFFCURVE",
"621 397 CURVE SMOOTH",
"521 420 OFFCURVE",
"502 486 OFFCURVE",
"500 580 CURVE SMOOTH",
"492 963 LINE",
"492 971 LINE SMOOTH",
"492 983 OFFCURVE",
"492 983 OFFCURVE",
"500 999 CURVE",
"688 999 LINE SMOOTH",
"741 997 OFFCURVE",
"825 1001 OFFCURVE",
"868 954 CURVE SMOOTH",
"884 934 OFFCURVE",
"918 899 OFFCURVE",
"928 872 CURVE SMOOTH",
"946 827 OFFCURVE",
"934 774 OFFCURVE",
"991 774 CURVE SMOOTH",
"1003 774 OFFCURVE",
"1036 777 OFFCURVE",
"1032 797 CURVE",
"1032 1036 LINE",
"1034 1050 OFFCURVE",
"1040 1159 OFFCURVE",
"1040 1171 CURVE SMOOTH",
"1040 1181 OFFCURVE",
"1036 1241 OFFCURVE",
"1032 1255 CURVE SMOOTH",
"1032 1259 OFFCURVE",
"1026 1270 OFFCURVE",
"1026 1270 CURVE SMOOTH",
"958 1270 LINE SMOOTH",
"956 1270 OFFCURVE",
"950 1266 OFFCURVE",
"950 1264 CURVE SMOOTH",
"948 1258 OFFCURVE",
"938 1214 OFFCURVE",
"936 1210 CURVE SMOOTH",
"911 1144 OFFCURVE",
"842 1081 OFFCURVE",
"770 1081 CURVE SMOOTH",
"500 1081 LINE SMOOTH",
"500 1081 OFFCURVE",
"494 1108 OFFCURVE",
"492 1120 CURVE",
"492 1135 LINE",
"494 1145 OFFCURVE",
"498 1186 OFFCURVE",
"500 1194 CURVE",
"500 1602 LINE",
"897 1602 LINE",
"995 1571 LINE SMOOTH",
"999 1569 OFFCURVE",
"1032 1538 OFFCURVE",
"1040 1526 CURVE SMOOTH",
"1046 1520 OFFCURVE",
"1084 1460 OFFCURVE",
"1094 1444 CURVE SMOOTH",
"1110 1413 OFFCURVE",
"1114 1382 OFFCURVE",
"1153 1382 CURVE SMOOTH",
"1167 1382 OFFCURVE",
"1198 1382 OFFCURVE",
"1198 1405 CURVE SMOOTH",
"1198 1534 LINE SMOOTH",
"1198 1550 OFFCURVE",
"1192 1637 OFFCURVE",
"1190 1653 CURVE SMOOTH",
"1186 1669 OFFCURVE",
"1177 1677 OFFCURVE",
"1161 1683 CURVE",
"621 1683 LINE SMOOTH",
"584 1683 OFFCURVE",
"289 1690 OFFCURVE",
"252 1692 CURVE SMOOTH"
);
},
{
closed = 1;
nodes = (
"744 1477 OFFCURVE",
"744 1468 OFFCURVE",
"748 1468 CURVE SMOOTH",
"752 1468 OFFCURVE",
"752 1477 OFFCURVE",
"748 1477 CURVE SMOOTH"
);
}
);
width = 1259;
}
);
},
{
glyphname = _120;
lastChange = "2012-12-26 13:06:26 -0800";
layers = (
{
layerId = "680DE9A7-CE01-463E-86B9-683CD586B94D";
name = "Bold Condensed";
paths = (
{
closed = 1;
nodes = (
"1446 1669 LINE SMOOTH",
"1434 1669 OFFCURVE",
"1432 1640 OFFCURVE",
"1432 1630 CURVE SMOOTH",
"1432 1618 OFFCURVE",
"1432 1591 OFFCURVE",
"1446 1585 CURVE",
"1503 1577 OFFCURVE",
"1544 1569 OFFCURVE",
"1575 1518 CURVE SMOOTH",
"1593 1485 OFFCURVE",
"1684 1327 OFFCURVE",
"1702 1292 CURVE",
"1710 1286 LINE",
"1868 1014 LINE SMOOTH",
"1872 1010 OFFCURVE",
"1888 989 OFFCURVE",
"1890 985 CURVE SMOOTH",
"1906 956 OFFCURVE",
"1948 872 OFFCURVE",
"1950 864 CURVE SMOOTH",
"1952 860 OFFCURVE",
"1956 787 OFFCURVE",
"1958 760 CURVE SMOOTH",
"1958 662 LINE SMOOTH",
"1956 627 OFFCURVE",
"1952 522 OFFCURVE",
"1950 512 CURVE SMOOTH",
"1948 481 OFFCURVE",
"1927 422 OFFCURVE",
"1898 406 CURVE SMOOTH",
"1861 386 OFFCURVE",
"1819 375 OFFCURVE",
"1778 369 CURVE",
"1762 363 OFFCURVE",
"1761 352 OFFCURVE",
"1761 340 CURVE SMOOTH",
"1761 328 OFFCURVE",
"1762 297 OFFCURVE",
"1778 293 CURVE SMOOTH",
"1784 291 OFFCURVE",
"1817 287 OFFCURVE",
"1823 285 CURVE",
"1833 285 OFFCURVE",
"1917 287 OFFCURVE",
"1927 285 CURVE",
"1956 285 OFFCURVE",
"2191 279 OFFCURVE",
"2220 279 CURVE SMOOTH",
"2333 279 LINE",
"2349 293 LINE",
"2349 346 LINE",
"2333 360 LINE",
"2288 368 OFFCURVE",
"2241 371 OFFCURVE",
"2206 406 CURVE SMOOTH",
"2194 418 OFFCURVE",
"2177 439 OFFCURVE",
"2175 459 CURVE SMOOTH",
"2175 463 OFFCURVE",
"2177 500 OFFCURVE",
"2175 504 CURVE",
"2175 514 OFFCURVE",
"2169 592 OFFCURVE",
"2169 602 CURVE SMOOTH",
"2169 606 OFFCURVE",
"2167 684 OFFCURVE",
"2167 713 CURVE SMOOTH",
"2167 740 OFFCURVE",
"2169 815 OFFCURVE",
"2169 819 CURVE SMOOTH",
"2169 854 OFFCURVE",
"2171 882 OFFCURVE",
"2191 909 CURVE SMOOTH",
"2197 917 OFFCURVE",
"2224 955 OFFCURVE",
"2228 963 CURVE SMOOTH",
"2242 983 OFFCURVE",
"2253 1007 OFFCURVE",
"2265 1030 CURVE SMOOTH",
"2310 1102 OFFCURVE",
"2421 1274 OFFCURVE",
"2423 1278 CURVE SMOOTH",
"2431 1286 LINE",
"2507 1413 LINE",
"2517 1419 OFFCURVE",
"2525 1444 OFFCURVE",
"2529 1450 CURVE SMOOTH",
"2531 1454 OFFCURVE",
"2558 1487 OFFCURVE",
"2566 1495 CURVE SMOOTH",
"2572 1501 OFFCURVE",
"2587 1518 OFFCURVE",
"2589 1518 CURVE SMOOTH",
"2595 1522 OFFCURVE",
"2659 1555 OFFCURVE",
"2679 1563 CURVE SMOOTH",
"2691 1569 OFFCURVE",
"2718 1573 OFFCURVE",
"2718 1593 CURVE SMOOTH",
"2718 1607 OFFCURVE",
"2715 1645 OFFCURVE",
"2695 1653 CURVE",
"2490 1653 LINE SMOOTH",
"2486 1653 OFFCURVE",
"2451 1661 OFFCURVE",
"2445 1661 CURVE SMOOTH",
"2243 1661 LINE",
"2227 1643 OFFCURVE",
"2226 1628 OFFCURVE",
"2226 1608 CURVE SMOOTH",
"2226 1553 OFFCURVE",
"2277 1573 OFFCURVE",
"2318 1563 CURVE",
"2345 1559 OFFCURVE",
"2358 1529 OFFCURVE",
"2372 1511 CURVE SMOOTH",
"2382 1495 OFFCURVE",
"2386 1482 OFFCURVE",
"2386 1464 CURVE SMOOTH",
"2386 1450 LINE",
"2318 1300 LINE",
"2130 999 LINE",
"2124 999 LINE SMOOTH",
"2116 999 OFFCURVE",
"2113 1000 OFFCURVE",
"2107 1008 CURVE SMOOTH",
"2101 1018 OFFCURVE",
"2081 1049 OFFCURVE",
"2079 1053 CURVE SMOOTH",
"1868 1444 LINE SMOOTH",
"1856 1464 OFFCURVE",
"1851 1486 OFFCURVE",
"1851 1511 CURVE SMOOTH",
"1851 1558 OFFCURVE",
"1898 1563 OFFCURVE",
"1935 1571 CURVE SMOOTH",
"1937 1571 OFFCURVE",
"1956 1577 OFFCURVE",
"1958 1579 CURVE SMOOTH",
"2001 1585 OFFCURVE",
"2003 1575 OFFCURVE",
"2003 1626 CURVE SMOOTH",
"2003 1653 LINE SMOOTH",
"1999 1665 OFFCURVE",
"1970 1669 OFFCURVE",
"1966 1669 CURVE SMOOTH"
);
},
{
closed = 1;
nodes = (
"123 1683 LINE",
"117 1679 OFFCURVE",
"111 1669 OFFCURVE",
"109 1661 CURVE SMOOTH",
"105 1632 OFFCURVE",
"88 1502 OFFCURVE",
"86 1473 CURVE SMOOTH",
"86 1391 LINE",
"96 1377 OFFCURVE",
"115 1374 OFFCURVE",
"129 1374 CURVE SMOOTH",
"168 1374 OFFCURVE",
"175 1425 OFFCURVE",
"193 1450 CURVE",
"242 1528 OFFCURVE",
"295 1598 OFFCURVE",
"395 1602 CURVE SMOOTH",
"481 1602 LINE SMOOTH",
"518 1602 OFFCURVE",
"573 1605 OFFCURVE",
"612 1593 CURVE",
"612 1255 LINE SMOOTH",
"612 1230 OFFCURVE",
"606 1039 OFFCURVE",
"604 1014 CURVE SMOOTH",
"602 830 OFFCURVE",
"606 655 OFFCURVE",
"590 473 CURVE SMOOTH",
"588 471 OFFCURVE",
"577 455 OFFCURVE",
"575 451 CURVE SMOOTH",
"573 449 OFFCURVE",
"561 424 OFFCURVE",
"559 422 CURVE SMOOTH",
"526 387 OFFCURVE",
"457 381 OFFCURVE",
"418 375 CURVE",
"400 369 OFFCURVE",
"401 338 OFFCURVE",
"401 322 CURVE SMOOTH",
"401 307 LINE SMOOTH",
"403 305 OFFCURVE",
"414 299 OFFCURVE",
"418 301 CURVE",
"490 299 OFFCURVE",
"831 295 OFFCURVE",
"905 293 CURVE SMOOTH",
"989 293 LINE",
"1001 301 OFFCURVE",
"1004 322 OFFCURVE",
"1004 334 CURVE SMOOTH",
"1004 385 OFFCURVE",
"938 379 OFFCURVE",
"905 391 CURVE SMOOTH",
"872 403 OFFCURVE",
"833 442 OFFCURVE",
"815 467 CURVE",
"819 526 OFFCURVE",
"807 586 OFFCURVE",
"807 645 CURVE SMOOTH",
"807 670 LINE SMOOTH",
"809 684 OFFCURVE",
"815 805 OFFCURVE",
"815 819 CURVE SMOOTH",
"815 1436 LINE",
"825 1485 OFFCURVE",
"825 1544 OFFCURVE",
"823 1593 CURVE",
"829 1602 LINE",
"895 1602 LINE SMOOTH",
"1045 1602 OFFCURVE",
"1145 1604 OFFCURVE",
"1229 1473 CURVE SMOOTH",
"1235 1463 OFFCURVE",
"1282 1378 OFFCURVE",
"1288 1368 CURVE SMOOTH",
"1296 1360 LINE",
"1323 1360 LINE SMOOTH",
"1335 1360 OFFCURVE",
"1354 1358 OFFCURVE",
"1364 1368 CURVE",
"1364 1436 LINE SMOOTH",
"1362 1452 OFFCURVE",
"1343 1577 OFFCURVE",
"1341 1593 CURVE SMOOTH",
"1339 1609 OFFCURVE",
"1347 1653 OFFCURVE",
"1327 1661 CURVE",
"1298 1663 OFFCURVE",
"1174 1667 OFFCURVE",
"1147 1669 CURVE",
"762 1669 LINE",
"752 1671 OFFCURVE",
"698 1675 OFFCURVE",
"688 1675 CURVE SMOOTH",
"676 1677 OFFCURVE",
"585 1675 OFFCURVE",
"575 1675 CURVE SMOOTH",
"542 1677 OFFCURVE",
"277 1683 OFFCURVE",
"244 1683 CURVE SMOOTH"
);
}
);
width = 2787;
}
);
},
{
glyphname = _121;
lastChange = "2012-12-26 13:06:26 -0800";
layers = (
{
layerId = "680DE9A7-CE01-463E-86B9-683CD586B94D";
name = "Bold Condensed";
paths = (
{
closed = 1;
nodes = (
"133 1669 LINE",
"111 1661 LINE",
"111 1593 LINE SMOOTH",
"111 1581 OFFCURVE",
"184 1585 OFFCURVE",
"207 1571 CURVE SMOOTH",
"213 1569 OFFCURVE",
"227 1556 OFFCURVE",
"229 1556 CURVE SMOOTH",
"282 1511 OFFCURVE",
"291 1471 OFFCURVE",
"291 1403 CURVE SMOOTH",
"291 1360 LINE SMOOTH",
"289 1305 OFFCURVE",
"283 845 OFFCURVE",
"283 788 CURVE SMOOTH",
"283 594 LINE SMOOTH",
"283 576 OFFCURVE",
"272 485 OFFCURVE",
"268 467 CURVE",
"243 410 OFFCURVE",
"198 395 OFFCURVE",
"139 383 CURVE SMOOTH",
"119 379 OFFCURVE",
"100 389 OFFCURVE",
"88 369 CURVE",
"86 342 LINE SMOOTH",
"86 324 OFFCURVE",
"86 305 OFFCURVE",
"102 293 CURVE",
"266 297 OFFCURVE",
"430 285 OFFCURVE",
"594 285 CURVE SMOOTH",
"688 285 LINE",
"704 297 OFFCURVE",
"705 316 OFFCURVE",
"705 332 CURVE SMOOTH",
"705 346 OFFCURVE",
"706 363 OFFCURVE",
"688 369 CURVE",
"604 371 OFFCURVE",
"522 397 OFFCURVE",
"502 489 CURVE",
"500 522 OFFCURVE",
"494 680 OFFCURVE",
"494 715 CURVE SMOOTH",
"494 999 LINE SMOOTH",
"494 1013 OFFCURVE",
"502 1123 OFFCURVE",
"502 1135 CURVE SMOOTH",
"502 1540 LINE SMOOTH",
"502 1544 OFFCURVE",
"506 1567 OFFCURVE",
"508 1571 CURVE SMOOTH",
"516 1579 LINE SMOOTH",
"551 1587 OFFCURVE",
"579 1585 OFFCURVE",
"614 1585 CURVE SMOOTH",
"796 1585 OFFCURVE",
"961 1495 OFFCURVE",
"961 1292 CURVE SMOOTH",
"961 1249 OFFCURVE",
"960 1223 OFFCURVE",
"944 1180 CURVE SMOOTH",
"903 1067 OFFCURVE",
"830 1018 OFFCURVE",
"711 1008 CURVE SMOOTH",
"705 1008 OFFCURVE",
"657 999 OFFCURVE",
"651 999 CURVE SMOOTH",
"647 999 OFFCURVE",
"625 1001 OFFCURVE",
"621 999 CURVE SMOOTH",
"613 995 OFFCURVE",
"590 972 OFFCURVE",
"590 958 CURVE SMOOTH",
"590 927 OFFCURVE",
"614 909 OFFCURVE",
"643 909 CURVE SMOOTH",
"733 909 LINE SMOOTH",
"786 909 OFFCURVE",
"815 904 OFFCURVE",
"862 918 CURVE",
"862 918 OFFCURVE",
"875 924 OFFCURVE",
"877 924 CURVE SMOOTH",
"932 940 OFFCURVE",
"989 952 OFFCURVE",
"1034 991 CURVE SMOOTH",
"1050 1005 OFFCURVE",
"1125 1076 OFFCURVE",
"1139 1090 CURVE",
"1182 1156 OFFCURVE",
"1194 1216 OFFCURVE",
"1194 1294 CURVE SMOOTH",
"1194 1501 OFFCURVE",
"1036 1641 OFFCURVE",
"831 1661 CURVE",
"616 1659 OFFCURVE",
"403 1669 OFFCURVE",
"190 1669 CURVE SMOOTH"
);
},
{
closed = 1;
nodes = (
"211 1026 OFFCURVE",
"211 1018 OFFCURVE",
"215 1018 CURVE SMOOTH",
"219 1018 OFFCURVE",
"219 1026 OFFCURVE",
"215 1026 CURVE SMOOTH"
);
}
);
width = 1263;
}
);
},
{
glyphname = _122;
lastChange = "2012-12-26 13:06:26 -0800";
layers = (
{
layerId = "680DE9A7-CE01-463E-86B9-683CD586B94D";
name = "Bold Condensed";
paths = (
{
closed = 1;
nodes = (
"113 1661 LINE",
"103 1651 OFFCURVE",
"104 1626 OFFCURVE",
"104 1614 CURVE SMOOTH",
"104 1610 OFFCURVE",
"106 1595 OFFCURVE",
"106 1593 CURVE SMOOTH",
"113 1585 LINE",
"129 1583 OFFCURVE",
"197 1567 OFFCURVE",
"211 1563 CURVE SMOOTH",
"213 1563 OFFCURVE",
"223 1556 OFFCURVE",
"225 1556 CURVE SMOOTH",
"252 1531 OFFCURVE",
"281 1510 OFFCURVE",
"287 1473 CURVE",
"289 1438 OFFCURVE",
"293 1276 OFFCURVE",
"293 1241 CURVE SMOOTH",
"293 1235 OFFCURVE",
"295 1166 OFFCURVE",
"295 1141 CURVE SMOOTH",
"295 1114 OFFCURVE",
"293 1048 OFFCURVE",
"293 1044 CURVE SMOOTH",
"293 1030 OFFCURVE",
"287 915 OFFCURVE",
"287 901 CURVE SMOOTH",
"285 842 OFFCURVE",
"285 563 OFFCURVE",
"287 504 CURVE SMOOTH",
"287 467 OFFCURVE",
"258 426 OFFCURVE",
"242 397 CURVE",
"230 381 OFFCURVE",
"215 377 OFFCURVE",
"197 375 CURVE SMOOTH",
"183 375 OFFCURVE",
"118 369 OFFCURVE",
"106 369 CURVE",
"88 365 OFFCURVE",
"90 344 OFFCURVE",
"90 330 CURVE SMOOTH",
"90 318 OFFCURVE",
"88 297 OFFCURVE",
"106 293 CURVE",
"588 293 LINE SMOOTH",
"600 293 OFFCURVE",
"709 287 OFFCURVE",
"723 285 CURVE",
"743 285 OFFCURVE",
"920 287 OFFCURVE",
"940 285 CURVE",
"971 285 OFFCURVE",
"1112 281 OFFCURVE",
"1143 279 CURVE",
"1157 281 OFFCURVE",
"1163 289 OFFCURVE",
"1165 301 CURVE SMOOTH",
"1225 541 LINE",
"1223 555 OFFCURVE",
"1233 570 OFFCURVE",
"1233 584 CURVE SMOOTH",
"1233 586 LINE",
"1231 594 OFFCURVE",
"1219 616 OFFCURVE",
"1219 616 CURVE SMOOTH",
"1217 616 OFFCURVE",
"1202 618 OFFCURVE",
"1196 618 CURVE SMOOTH",
"1190 618 OFFCURVE",
"1174 616 OFFCURVE",
"1174 616 CURVE SMOOTH",
"1172 614 OFFCURVE",
"1149 594 OFFCURVE",
"1143 586 CURVE SMOOTH",
"1137 578 OFFCURVE",
"1083 504 OFFCURVE",
"1075 496 CURVE SMOOTH",
"1063 480 OFFCURVE",
"1024 446 OFFCURVE",
"1008 436 CURVE SMOOTH",
"985 422 OFFCURVE",
"917 385 OFFCURVE",
"909 383 CURVE SMOOTH",
"905 381 OFFCURVE",
"822 371 OFFCURVE",
"791 369 CURVE SMOOTH",
"768 369 LINE SMOOTH",
"709 369 OFFCURVE",
"647 379 OFFCURVE",
"588 375 CURVE",
"535 428 LINE SMOOTH",
"533 430 OFFCURVE",
"528 442 OFFCURVE",
"526 444 CURVE SMOOTH",
"524 446 OFFCURVE",
"498 477 OFFCURVE",
"498 481 CURVE SMOOTH",
"496 487 OFFCURVE",
"498 543 OFFCURVE",
"498 549 CURVE",
"496 553 OFFCURVE",
"489 596 OFFCURVE",
"489 602 CURVE SMOOTH",
"489 604 OFFCURVE",
"494 614 OFFCURVE",
"498 616 CURVE",
"496 659 OFFCURVE",
"496 858 OFFCURVE",
"498 901 CURVE SMOOTH",
"498 911 OFFCURVE",
"502 953 OFFCURVE",
"504 963 CURVE SMOOTH",
"506 975 OFFCURVE",
"528 971 OFFCURVE",
"530 971 CURVE SMOOTH",
"536 971 OFFCURVE",
"555 969 OFFCURVE",
"557 969 CURVE SMOOTH",
"571 969 OFFCURVE",
"693 963 OFFCURVE",
"707 963 CURVE SMOOTH",
"787 959 OFFCURVE",
"885 969 OFFCURVE",
"918 879 CURVE SMOOTH",
"924 865 OFFCURVE",
"950 790 OFFCURVE",
"954 774 CURVE",
"963 766 LINE",
"1022 766 LINE",
"1038 782 LINE",
"1036 823 OFFCURVE",
"1036 1018 OFFCURVE",
"1038 1059 CURVE SMOOTH",
"1038 1071 OFFCURVE",
"1044 1161 OFFCURVE",
"1044 1171 CURVE SMOOTH",
"1044 1194 OFFCURVE",
"1043 1233 OFFCURVE",
"1012 1233 CURVE SMOOTH",
"998 1233 OFFCURVE",
"987 1231 OFFCURVE",
"971 1225 CURVE",
"957 1176 OFFCURVE",
"936 1095 OFFCURVE",
"881 1075 CURVE SMOOTH",
"820 1050 OFFCURVE",
"760 1044 OFFCURVE",
"692 1044 CURVE SMOOTH",
"670 1044 LINE SMOOTH",
"623 1046 OFFCURVE",
"512 1053 OFFCURVE",
"512 1053 CURVE",
"504 1059 LINE",
"504 1116 LINE SMOOTH",
"504 1268 OFFCURVE",
"514 1419 OFFCURVE",
"512 1571 CURVE",
"569 1581 OFFCURVE",
"625 1579 OFFCURVE",
"684 1579 CURVE SMOOTH",
"782 1579 LINE SMOOTH",
"792 1577 OFFCURVE",
"856 1573 OFFCURVE",
"872 1571 CURVE SMOOTH",
"915 1567 OFFCURVE",
"946 1545 OFFCURVE",
"977 1518 CURVE SMOOTH",
"981 1516 OFFCURVE",
"991 1505 OFFCURVE",
"993 1503 CURVE SMOOTH",
"1067 1376 LINE SMOOTH",
"1075 1364 OFFCURVE",
"1090 1360 OFFCURVE",
"1102 1360 CURVE SMOOTH",
"1106 1360 LINE",
"1143 1368 LINE",
"1151 1372 OFFCURVE",
"1151 1391 OFFCURVE",
"1151 1399 CURVE SMOOTH",
"1151 1413 LINE SMOOTH",
"1149 1446 OFFCURVE",
"1145 1597 OFFCURVE",
"1143 1630 CURVE",
"1135 1640 OFFCURVE",
"1124 1651 OFFCURVE",
"1112 1653 CURVE SMOOTH",
"1079 1655 OFFCURVE",
"922 1661 OFFCURVE",
"887 1661 CURVE SMOOTH"
);
}
);
width = 1327;
}
);
},
{
glyphname = _128;
lastChange = "2012-12-26 13:06:16 -0800";
layers = (
{
layerId = "680DE9A7-CE01-463E-86B9-683CD586B94D";
name = "Bold Condensed";
paths = (
{
closed = 1;
nodes = (
"373 1855 OFFCURVE",
"358 1853 OFFCURVE",
"358 1853 CURVE SMOOTH",
"352 1851 OFFCURVE",
"309 1829 OFFCURVE",
"303 1827 CURVE SMOOTH",
"231 1798 OFFCURVE",
"152 1782 OFFCURVE",
"78 1755 CURVE",
"68 1743 OFFCURVE",
"68 1730 OFFCURVE",
"68 1716 CURVE SMOOTH",
"68 1665 OFFCURVE",
"182 1646 OFFCURVE",
"213 1599 CURVE",
"213 1407 LINE SMOOTH",
"213 1202 OFFCURVE",
"211 1000 OFFCURVE",
"205 797 CURVE SMOOTH",
"199 633 OFFCURVE",
"186 471 OFFCURVE",
"186 309 CURVE SMOOTH",
"186 297 OFFCURVE",
"185 291 OFFCURVE",
"195 281 CURVE",
"224 265 OFFCURVE",
"354 200 OFFCURVE",
"385 190 CURVE SMOOTH",
"408 182 OFFCURVE",
"520 158 OFFCURVE",
"547 154 CURVE SMOOTH",
"551 154 OFFCURVE",
"611 152 OFFCURVE",
"631 152 CURVE SMOOTH",
"801 152 OFFCURVE",
"957 232 OFFCURVE",
"1055 371 CURVE SMOOTH",
"1069 391 OFFCURVE",
"1114 461 OFFCURVE",
"1118 471 CURVE SMOOTH",
"1120 479 OFFCURVE",
"1147 561 OFFCURVE",
"1153 588 CURVE SMOOTH",
"1169 645 OFFCURVE",
"1163 703 OFFCURVE",
"1163 762 CURVE SMOOTH",
"1163 858 LINE SMOOTH",
"1161 872 OFFCURVE",
"1143 949 OFFCURVE",
"1135 967 CURVE SMOOTH",
"1102 1059 OFFCURVE",
"1041 1151 OFFCURVE",
"965 1212 CURVE",
"959 1214 OFFCURVE",
"915 1235 OFFCURVE",
"909 1239 CURVE SMOOTH",
"889 1249 OFFCURVE",
"871 1264 OFFCURVE",
"846 1266 CURVE SMOOTH",
"838 1268 OFFCURVE",
"764 1274 OFFCURVE",
"756 1276 CURVE SMOOTH",
"721 1276 LINE SMOOTH",
"672 1276 OFFCURVE",
"637 1253 OFFCURVE",
"594 1239 CURVE SMOOTH",
"575 1239 LINE SMOOTH",
"573 1239 OFFCURVE",
"559 1233 OFFCURVE",
"557 1229 CURVE",
"545 1223 OFFCURVE",
"450 1155 OFFCURVE",
"438 1149 CURVE",
"432 1143 OFFCURVE",
"426 1139 OFFCURVE",
"416 1139 CURVE SMOOTH",
"410 1139 OFFCURVE",
"407 1141 OFFCURVE",
"403 1149 CURVE SMOOTH",
"403 1184 LINE SMOOTH",
"403 1258 OFFCURVE",
"412 1329 OFFCURVE",
"412 1403 CURVE SMOOTH",
"412 1426 OFFCURVE",
"403 1445 OFFCURVE",
"403 1468 CURVE SMOOTH",
"403 1475 LINE SMOOTH",
"403 1479 OFFCURVE",
"412 1522 OFFCURVE",
"412 1528 CURVE SMOOTH",
"412 1647 LINE SMOOTH",
"412 1663 OFFCURVE",
"420 1809 OFFCURVE",
"422 1827 CURVE",
"422 1837 LINE SMOOTH",
"422 1857 OFFCURVE",
"391 1855 OFFCURVE",
"379 1855 CURVE SMOOTH"
);
},
{
closed = 1;
nodes = (
"383 293 OFFCURVE",
"377 293 OFFCURVE",
"377 299 CURVE",
"375 303 OFFCURVE",
"387 303 OFFCURVE",
"385 299 CURVE SMOOTH"
);
},
{
closed = 1;
nodes = (
"336 449 OFFCURVE",
"309 449 OFFCURVE",
"303 449 CURVE",
"303 461 LINE",
"340 461 LINE"
);
},
{
closed = 1;
nodes = (
"662 1096 OFFCURVE",
"709 1097 OFFCURVE",
"748 1085 CURVE SMOOTH",
"916 1024 OFFCURVE",
"983 817 OFFCURVE",
"983 653 CURVE SMOOTH",
"983 598 OFFCURVE",
"977 546 OFFCURVE",
"965 487 CURVE SMOOTH",
"955 444 OFFCURVE",
"920 393 OFFCURVE",
"891 362 CURVE",
"825 284 OFFCURVE",
"774 252 OFFCURVE",
"672 252 CURVE SMOOTH",
"549 252 OFFCURVE",
"403 332 OFFCURVE",
"403 471 CURVE SMOOTH",
"403 1004 LINE SMOOTH",
"403 1043 OFFCURVE",
"516 1088 OFFCURVE",
"547 1094 CURVE",
"559 1094 OFFCURVE",
"613 1096 OFFCURVE",
"625 1096 CURVE SMOOTH"
);
},
{
closed = 1;
nodes = (
"381 1217 OFFCURVE",
"381 1206 OFFCURVE",
"377 1206 CURVE SMOOTH",
"371 1206 OFFCURVE",
"371 1217 OFFCURVE",
"377 1217 CURVE SMOOTH"
);
},
{
closed = 1;
nodes = (
"326 1370 OFFCURVE",
"326 1360 OFFCURVE",
"322 1360 CURVE SMOOTH",
"318 1360 OFFCURVE",
"318 1370 OFFCURVE",
"322 1370 CURVE SMOOTH"
);
},
{
closed = 1;
nodes = (
"696 1153 OFFCURVE",
"696 1143 OFFCURVE",
"692 1143 CURVE SMOOTH",
"688 1143 OFFCURVE",
"688 1153 OFFCURVE",
"692 1153 CURVE SMOOTH"
);
},
{
closed = 1;
nodes = (
"317 1677 OFFCURVE",
"317 1669 OFFCURVE",
"313 1669 CURVE SMOOTH",
"307 1669 OFFCURVE",
"307 1677 OFFCURVE",
"313 1677 CURVE SMOOTH"
);
},
{
closed = 1;
nodes = (
"1032 981 OFFCURVE",
"1032 973 OFFCURVE",
"1026 973 CURVE SMOOTH",
"1022 973 OFFCURVE",
"1022 981 OFFCURVE",
"1026 981 CURVE SMOOTH"
);
}
);
width = 1234;
}
);
},
{
glyphname = _129;
lastChange = "2012-12-26 13:06:16 -0800";
layers = (
{
layerId = "680DE9A7-CE01-463E-86B9-683CD586B94D";
name = "Bold Condensed";
paths = (
{
closed = 1;
nodes = (
"729 1430 LINE SMOOTH",
"727 1430 OFFCURVE",
"690 1433 OFFCURVE",
"690 1421 CURVE SMOOTH",
"690 1343 LINE SMOOTH",
"690 1341 OFFCURVE",
"705 1335 OFFCURVE",
"711 1333 CURVE SMOOTH",
"717 1331 OFFCURVE",
"772 1317 OFFCURVE",
"778 1313 CURVE SMOOTH",
"784 1311 OFFCURVE",
"811 1282 OFFCURVE",
"817 1274 CURVE SMOOTH",
"821 1268 OFFCURVE",
"848 1212 OFFCURVE",
"856 1196 CURVE SMOOTH",
"862 1182 OFFCURVE",
"889 1106 OFFCURVE",
"895 1090 CURVE",
"887 1076 OFFCURVE",
"881 1056 OFFCURVE",
"885 1040 CURVE",
"827 877 LINE",
"817 866 LINE",
"807 837 OFFCURVE",
"751 709 OFFCURVE",
"739 682 CURVE SMOOTH",
"737 678 OFFCURVE",
"721 655 OFFCURVE",
"719 651 CURVE SMOOTH",
"709 635 OFFCURVE",
"701 573 OFFCURVE",
"674 573 CURVE SMOOTH",
"672 573 LINE",
"438 1245 LINE SMOOTH",
"436 1247 OFFCURVE",
"451 1276 OFFCURVE",
"457 1284 CURVE SMOOTH",
"461 1290 OFFCURVE",
"481 1311 OFFCURVE",
"485 1313 CURVE SMOOTH",
"491 1317 OFFCURVE",
"547 1339 OFFCURVE",
"555 1343 CURVE SMOOTH",
"565 1347 OFFCURVE",
"565 1352 OFFCURVE",
"565 1362 CURVE SMOOTH",
"565 1405 OFFCURVE",
"553 1430 OFFCURVE",
"506 1430 CURVE SMOOTH",
"127 1430 LINE",
"106 1411 LINE",
"106 1343 LINE",
"116 1337 OFFCURVE",
"166 1311 OFFCURVE",
"174 1305 CURVE SMOOTH",
"176 1303 OFFCURVE",
"191 1282 OFFCURVE",
"195 1274 CURVE SMOOTH",
"205 1256 OFFCURVE",
"231 1202 OFFCURVE",
"233 1196 CURVE SMOOTH",
"555 244 LINE SMOOTH",
"555 242 OFFCURVE",
"561 233 OFFCURVE",
"563 233 CURVE SMOOTH",
"573 231 OFFCURVE",
"606 223 OFFCURVE",
"612 223 CURVE SMOOTH",
"637 223 OFFCURVE",
"672 237 OFFCURVE",
"680 262 CURVE SMOOTH",
"924 895 LINE",
"944 915 LINE",
"991 843 OFFCURVE",
"983 744 OFFCURVE",
"1030 672 CURVE",
"1167 244 LINE SMOOTH",
"1173 221 OFFCURVE",
"1211 223 OFFCURVE",
"1225 223 CURVE SMOOTH",
"1270 223 OFFCURVE",
"1303 242 OFFCURVE",
"1303 293 CURVE",
"1468 760 LINE",
"1523 848 OFFCURVE",
"1534 955 OFFCURVE",
"1567 1051 CURVE SMOOTH",
"1575 1078 OFFCURVE",
"1622 1200 OFFCURVE",
"1634 1227 CURVE",
"1646 1245 OFFCURVE",
"1665 1268 OFFCURVE",
"1683 1284 CURVE SMOOTH",
"1720 1315 OFFCURVE",
"1761 1321 OFFCURVE",
"1761 1376 CURVE SMOOTH",
"1761 1409 OFFCURVE",
"1747 1421 OFFCURVE",
"1712 1421 CURVE SMOOTH",
"1391 1421 LINE SMOOTH",
"1379 1421 OFFCURVE",
"1380 1378 OFFCURVE",
"1380 1376 CURVE SMOOTH",
"1380 1300 OFFCURVE",
"1442 1333 OFFCURVE",
"1489 1294 CURVE",
"1493 1288 OFFCURVE",
"1507 1268 OFFCURVE",
"1507 1266 CURVE SMOOTH",
"1507 1157 LINE",
"1411 856 LINE SMOOTH",
"1409 854 OFFCURVE",
"1401 840 OFFCURVE",
"1401 838 CURVE SMOOTH",
"1397 826 OFFCURVE",
"1366 731 OFFCURVE",
"1362 721 CURVE SMOOTH",
"1354 701 OFFCURVE",
"1313 612 OFFCURVE",
"1303 594 CURVE",
"1301 586 OFFCURVE",
"1294 584 OFFCURVE",
"1288 584 CURVE SMOOTH",
"1284 584 LINE",
"1264 623 LINE",
"1079 1217 LINE",
"1079 1231 LINE SMOOTH",
"1079 1268 OFFCURVE",
"1114 1303 OFFCURVE",
"1147 1313 CURVE SMOOTH",
"1190 1327 OFFCURVE",
"1235 1321 OFFCURVE",
"1235 1382 CURVE SMOOTH",
"1235 1396 OFFCURVE",
"1233 1405 OFFCURVE",
"1225 1421 CURVE",
"1155 1421 OFFCURVE",
"828 1430 OFFCURVE",
"758 1430 CURVE SMOOTH"
);
}
);
width = 1843;
}
);
},
{
glyphname = _130;
lastChange = "2012-12-26 13:06:26 -0800";
layers = (
{
layerId = "680DE9A7-CE01-463E-86B9-683CD586B94D";
name = "Bold Condensed";
paths = (
{
closed = 1;
nodes = (
"113 1903 OFFCURVE",
"98 1892 OFFCURVE",
"98 1853 CURVE SMOOTH",
"98 1820 OFFCURVE",
"98 1802 OFFCURVE",
"133 1794 CURVE SMOOTH",
"141 1794 OFFCURVE",
"197 1788 OFFCURVE",
"205 1786 CURVE SMOOTH",
"281 1774 OFFCURVE",
"309 1715 OFFCURVE",
"319 1645 CURVE",
"319 1190 LINE SMOOTH",
"319 1124 OFFCURVE",
"311 582 OFFCURVE",
"311 516 CURVE SMOOTH",
"311 471 OFFCURVE",
"277 445 OFFCURVE",
"250 410 CURVE SMOOTH",
"236 392 OFFCURVE",
"202 379 OFFCURVE",
"186 373 CURVE SMOOTH",
"166 367 OFFCURVE",
"106 372 OFFCURVE",
"88 356 CURVE SMOOTH",
"82 348 OFFCURVE",
"80 331 OFFCURVE",
"80 319 CURVE SMOOTH",
"80 296 OFFCURVE",
"75 260 OFFCURVE",
"106 258 CURVE SMOOTH",
"114 256 OFFCURVE",
"187 258 OFFCURVE",
"195 258 CURVE SMOOTH",
"234 256 OFFCURVE",
"541 250 OFFCURVE",
"578 248 CURVE",
"617 248 OFFCURVE",
"930 250 OFFCURVE",
"969 248 CURVE SMOOTH",
"989 248 OFFCURVE",
"1154 240 OFFCURVE",
"1174 240 CURVE SMOOTH",
"1368 240 LINE",
"1376 248 LINE SMOOTH",
"1378 250 OFFCURVE",
"1397 311 OFFCURVE",
"1405 338 CURVE",
"1411 367 OFFCURVE",
"1415 399 OFFCURVE",
"1421 426 CURVE SMOOTH",
"1435 483 OFFCURVE",
"1458 537 OFFCURVE",
"1458 596 CURVE SMOOTH",
"1458 623 OFFCURVE",
"1459 631 OFFCURVE",
"1432 631 CURVE SMOOTH",
"1412 631 OFFCURVE",
"1390 630 OFFCURVE",
"1376 612 CURVE SMOOTH",
"1370 604 OFFCURVE",
"1321 532 OFFCURVE",
"1315 524 CURVE SMOOTH",
"1284 487 OFFCURVE",
"1246 471 OFFCURVE",
"1217 436 CURVE",
"1201 426 OFFCURVE",
"1112 383 OFFCURVE",
"1094 373 CURVE SMOOTH",
"1090 373 OFFCURVE",
"1071 367 OFFCURVE",
"1067 365 CURVE SMOOTH",
"987 346 LINE SMOOTH",
"985 346 OFFCURVE",
"971 338 OFFCURVE",
"969 338 CURVE SMOOTH",
"967 338 OFFCURVE",
"944 346 OFFCURVE",
"942 346 CURVE SMOOTH",
"821 354 OFFCURVE",
"731 342 OFFCURVE",
"612 383 CURVE",
"551 451 OFFCURVE",
"567 567 OFFCURVE",
"567 649 CURVE SMOOTH",
"567 966 OFFCURVE",
"576 1282 OFFCURVE",
"586 1599 CURVE SMOOTH",
"590 1683 OFFCURVE",
"623 1755 OFFCURVE",
"711 1778 CURVE SMOOTH",
"713 1778 OFFCURVE",
"735 1786 OFFCURVE",
"737 1786 CURVE SMOOTH",
"786 1790 OFFCURVE",
"854 1763 OFFCURVE",
"854 1829 CURVE SMOOTH",
"854 1860 OFFCURVE",
"846 1882 OFFCURVE",
"817 1892 CURVE",
"594 1890 OFFCURVE",
"375 1903 OFFCURVE",
"152 1903 CURVE SMOOTH"
);
}
);
width = 1546;
}
);
},
{
glyphname = _131;
lastChange = "2012-12-26 13:06:26 -0800";
layers = (
{
layerId = "680DE9A7-CE01-463E-86B9-683CD586B94D";
name = "Bold Condensed";
paths = (
{
closed = 1;
nodes = (
"932 1882 OFFCURVE",
"876 1870 OFFCURVE",
"821 1874 CURVE",
"794 1868 OFFCURVE",
"676 1835 OFFCURVE",
"649 1829 CURVE SMOOTH",
"608 1817 OFFCURVE",
"572 1794 OFFCURVE",
"535 1776 CURVE SMOOTH",
"515 1764 OFFCURVE",
"489 1759 OFFCURVE",
"471 1747 CURVE SMOOTH",
"408 1710 OFFCURVE",
"338 1642 OFFCURVE",
"291 1595 CURVE",
"291 1591 OFFCURVE",
"285 1579 OFFCURVE",
"283 1577 CURVE SMOOTH",
"279 1571 OFFCURVE",
"233 1522 OFFCURVE",
"229 1516 CURVE SMOOTH",
"219 1502 OFFCURVE",
"188 1452 OFFCURVE",
"184 1444 CURVE SMOOTH",
"178 1432 OFFCURVE",
"143 1337 OFFCURVE",
"139 1327 CURVE SMOOTH",
"119 1278 OFFCURVE",
"86 1177 OFFCURVE",
"86 1128 CURVE SMOOTH",
"86 842 LINE SMOOTH",
"86 836 OFFCURVE",
"98 768 OFFCURVE",
"104 743 CURVE SMOOTH",
"104 741 OFFCURVE",
"111 727 OFFCURVE",
"113 725 CURVE SMOOTH",
"115 721 OFFCURVE",
"129 678 OFFCURVE",
"131 672 CURVE SMOOTH",
"145 641 OFFCURVE",
"222 496 OFFCURVE",
"238 467 CURVE",
"254 447 OFFCURVE",
"336 364 OFFCURVE",
"354 350 CURVE SMOOTH",
"362 342 OFFCURVE",
"436 301 OFFCURVE",
"444 295 CURVE SMOOTH",
"446 293 OFFCURVE",
"459 281 OFFCURVE",
"463 279 CURVE SMOOTH",
"598 205 OFFCURVE",
"751 170 OFFCURVE",
"907 170 CURVE SMOOTH",
"1100 170 OFFCURVE",
"1297 188 OFFCURVE",
"1475 268 CURVE",
"1512 309 OFFCURVE",
"1497 340 OFFCURVE",
"1501 395 CURVE SMOOTH",
"1520 565 LINE",
"1520 637 LINE",
"1512 647 OFFCURVE",
"1497 655 OFFCURVE",
"1485 655 CURVE SMOOTH",
"1426 655 OFFCURVE",
"1423 600 OFFCURVE",
"1403 555 CURVE SMOOTH",
"1393 530 OFFCURVE",
"1370 490 OFFCURVE",
"1350 467 CURVE SMOOTH",
"1270 381 OFFCURVE",
"1190 308 OFFCURVE",
"1071 279 CURVE SMOOTH",
"1069 277 OFFCURVE",
"1055 279 OFFCURVE",
"1053 279 CURVE SMOOTH",
"1051 277 OFFCURVE",
"1038 270 OFFCURVE",
"1036 268 CURVE",
"866 268 LINE SMOOTH",
"862 268 OFFCURVE",
"837 275 OFFCURVE",
"829 279 CURVE SMOOTH",
"686 326 OFFCURVE",
"604 371 OFFCURVE",
"516 494 CURVE SMOOTH",
"489 531 OFFCURVE",
"426 625 OFFCURVE",
"426 627 CURVE SMOOTH",
"426 637 LINE",
"362 842 LINE",
"364 846 OFFCURVE",
"364 858 OFFCURVE",
"362 860 CURVE",
"362 868 OFFCURVE",
"354 926 OFFCURVE",
"354 932 CURVE SMOOTH",
"354 1184 LINE SMOOTH",
"356 1219 OFFCURVE",
"366 1255 OFFCURVE",
"362 1290 CURVE",
"368 1317 OFFCURVE",
"406 1435 OFFCURVE",
"418 1460 CURVE",
"424 1478 OFFCURVE",
"475 1561 OFFCURVE",
"489 1577 CURVE SMOOTH",
"495 1585 OFFCURVE",
"571 1661 OFFCURVE",
"596 1686 CURVE SMOOTH",
"604 1694 OFFCURVE",
"637 1718 OFFCURVE",
"641 1720 CURVE SMOOTH",
"664 1732 OFFCURVE",
"746 1772 OFFCURVE",
"758 1776 CURVE SMOOTH",
"813 1790 OFFCURVE",
"881 1794 OFFCURVE",
"938 1794 CURVE SMOOTH",
"1176 1794 OFFCURVE",
"1331 1626 OFFCURVE",
"1411 1415 CURVE",
"1415 1411 OFFCURVE",
"1434 1399 OFFCURVE",
"1440 1399 CURVE SMOOTH",
"1456 1397 OFFCURVE",
"1493 1402 OFFCURVE",
"1501 1425 CURVE",
"1501 1431 OFFCURVE",
"1503 1458 OFFCURVE",
"1503 1466 CURVE SMOOTH",
"1503 1474 OFFCURVE",
"1501 1503 OFFCURVE",
"1501 1505 CURVE SMOOTH",
"1499 1521 OFFCURVE",
"1477 1643 OFFCURVE",
"1475 1659 CURVE SMOOTH",
"1475 1665 OFFCURVE",
"1477 1714 OFFCURVE",
"1475 1720 CURVE SMOOTH",
"1473 1732 OFFCURVE",
"1460 1770 OFFCURVE",
"1456 1776 CURVE SMOOTH",
"1456 1778 OFFCURVE",
"1429 1790 OFFCURVE",
"1421 1792 CURVE SMOOTH",
"1392 1802 OFFCURVE",
"1262 1847 OFFCURVE",
"1233 1855 CURVE SMOOTH",
"1206 1855 LINE SMOOTH",
"1196 1857 OFFCURVE",
"1116 1872 OFFCURVE",
"1108 1874 CURVE SMOOTH",
"1061 1880 OFFCURVE",
"1028 1882 OFFCURVE",
"987 1882 CURVE SMOOTH"
);
},
{
closed = 1;
nodes = (
"1399 381 OFFCURVE",
"1399 373 OFFCURVE",
"1395 373 CURVE SMOOTH",
"1391 373 OFFCURVE",
"1391 381 OFFCURVE",
"1395 381 CURVE SMOOTH"
);
}
);
width = 1609;
}
);
},
